<svg width="25" height="25" viewBox="0 0 25 25" fill="none" xmlns="http://www.w3.org/2000/svg">
<path d="M12.5 6.25C12.0055 6.25 11.5222 6.10338 11.1111 5.82868C10.6999 5.55397 10.3795 5.16352 10.1903 4.70671C10.0011 4.24989 9.95157 3.74723 10.048 3.26228C10.1445 2.77732 10.3826 2.33187 10.7322 1.98223C11.0819 1.6326 11.5273 1.3945 12.0123 1.29804C12.4972 1.20157 12.9999 1.25108 13.4567 1.4403C13.9135 1.62952 14.304 1.94995 14.5787 2.36108C14.8534 2.7722 15 3.25555 15 3.75C15 4.41304 14.7366 5.04893 14.2678 5.51777C13.7989 5.98661 13.163 6.25 12.5 6.25ZM18.641 16.6889L12.5114 8.76038L6.38183 16.6889C6.31165 16.7684 6.26953 16.8687 6.26198 16.9744C6.25444 17.0802 6.28187 17.1855 6.34005 17.2741C6.39824 17.3627 6.48395 17.4297 6.58398 17.4648C6.68401 17.4999 6.7928 17.5012 6.89361 17.4684L10.5834 15.7887C10.6568 15.7413 10.7426 15.7167 10.8299 15.7178C10.9173 15.719 11.0023 15.7458 11.0745 15.7951C11.1467 15.8443 11.2027 15.9137 11.2356 15.9946C11.2686 16.0756 11.2769 16.1644 11.2596 16.25H11.25V23.1251C11.25 23.2071 11.2662 23.2884 11.2976 23.3642C11.329 23.44 11.375 23.5089 11.433 23.567C11.4911 23.625 11.5599 23.671 11.6358 23.7024C11.7116 23.7338 11.7929 23.75 11.8749 23.75H13.1251C13.2071 23.75 13.2884 23.7338 13.3642 23.7024C13.44 23.671 13.5089 23.625 13.567 23.567C13.625 23.5089 13.671 23.44 13.7024 23.3642C13.7338 23.2884 13.75 23.2071 13.75 23.1251V16.2604H13.7614C13.7425 16.174 13.7497 16.084 13.782 16.0016C13.8142 15.9193 13.8702 15.8484 13.9428 15.7979C14.0154 15.7474 14.1013 15.7196 14.1897 15.7179C14.2781 15.7163 14.3651 15.7409 14.4395 15.7887L18.1293 17.4683C18.2301 17.5011 18.3389 17.4999 18.4389 17.4648C18.5389 17.4297 18.6246 17.3627 18.6828 17.2741C18.741 17.1854 18.7684 17.0802 18.7609 16.9744C18.7533 16.8687 18.7112 16.7684 18.641 16.6889Z" fill="#2A5DFF" stroke="#2A5DFF" stroke-width="0.5"/>
</svg>
