<svg width="25" height="25" viewBox="0 0 25 25" fill="none" xmlns="http://www.w3.org/2000/svg">
<path d="M3.75 15C3.25555 15 2.7722 14.8534 2.36108 14.5787C1.94995 14.304 1.62952 13.9135 1.4403 13.4567C1.25108 12.9999 1.20157 12.4972 1.29804 12.0123C1.3945 11.5273 1.6326 11.0819 1.98223 10.7322C2.33187 10.3826 2.77732 10.1445 3.26228 10.0481C3.74723 9.95159 4.24989 10.0011 4.70671 10.1903C5.16352 10.3795 5.55397 10.7 5.82868 11.1111C6.10338 11.5222 6.25 12.0056 6.25 12.5C6.25 13.1631 5.98661 13.7989 5.51777 14.2678C5.04893 14.7366 4.41304 15 3.75 15ZM16.2537 13.7959C17.5872 13.8186 18.8582 14.3656 19.7914 15.3185C20.7246 16.2715 21.2449 17.5537 21.2396 18.8874H21.25V20.6096C21.25 20.6937 21.2666 20.777 21.2987 20.8547C21.3309 20.9324 21.3781 21.003 21.4376 21.0624C21.497 21.1219 21.5676 21.1691 21.6453 21.2013C21.723 21.2335 21.8063 21.25 21.8904 21.25H23.1096C23.1937 21.25 23.277 21.2335 23.3547 21.2013C23.4324 21.1691 23.503 21.1219 23.5624 21.0624C23.6219 21.003 23.6691 20.9324 23.7013 20.8547C23.7334 20.777 23.75 20.6937 23.75 20.6096V18.75H23.7327C23.7026 16.7781 22.9042 14.8957 21.5073 13.5036C20.1105 12.1114 18.2255 11.3193 16.2534 11.2959L16.2397 11.2936L16.2398 11.3187H15V11.3073C14.9136 11.3262 14.8236 11.3191 14.7413 11.2868C14.6589 11.2545 14.588 11.1985 14.5375 11.126C14.487 11.0534 14.4592 10.9674 14.4576 10.879C14.4559 10.7906 14.4805 10.7037 14.5283 10.6293L16.208 6.93949C16.2408 6.83869 16.2395 6.72989 16.2044 6.62986C16.1693 6.52983 16.1023 6.44412 16.0137 6.38594C15.9251 6.32775 15.8198 6.30032 15.7141 6.30787C15.6083 6.31542 15.508 6.35753 15.4285 6.42771L7.5 12.5573L15.4285 18.6869C15.508 18.7571 15.6083 18.7992 15.7141 18.8067C15.8198 18.8143 15.9251 18.7869 16.0137 18.7287C16.1023 18.6705 16.1693 18.5848 16.2044 18.4848C16.2395 18.3847 16.2408 18.276 16.208 18.1752L14.5283 14.4854C14.4805 14.4109 14.4559 14.324 14.4576 14.2356C14.4592 14.1472 14.487 14.0613 14.5375 13.9887C14.588 13.9161 14.6589 13.8601 14.7413 13.8278C14.8236 13.7955 14.9136 13.7884 15 13.8073V13.8187H16.25" fill="#2A5DFF"/>
<path d="M16.2537 13.7959C17.5872 13.8186 18.8582 14.3656 19.7914 15.3185C20.7246 16.2715 21.2449 17.5537 21.2396 18.8874H21.25V20.6096C21.25 20.6937 21.2666 20.777 21.2987 20.8547C21.3309 20.9324 21.3781 21.003 21.4376 21.0624C21.497 21.1219 21.5676 21.1691 21.6453 21.2013C21.723 21.2335 21.8063 21.25 21.8904 21.25H23.1096C23.1937 21.25 23.277 21.2335 23.3547 21.2013C23.4324 21.1691 23.503 21.1219 23.5624 21.0624C23.6219 21.003 23.6691 20.9324 23.7013 20.8547C23.7334 20.777 23.75 20.6937 23.75 20.6096V18.75H23.7327C23.7026 16.7781 22.9042 14.8957 21.5073 13.5036C20.1105 12.1114 18.2255 11.3193 16.2534 11.2959L16.2397 11.2936L16.2398 11.3187H15V11.3073C14.9136 11.3262 14.8236 11.3191 14.7413 11.2868C14.6589 11.2545 14.588 11.1985 14.5375 11.126C14.487 11.0534 14.4592 10.9674 14.4576 10.879C14.4559 10.7906 14.4805 10.7037 14.5283 10.6293L16.208 6.93949C16.2408 6.83869 16.2395 6.72989 16.2044 6.62986C16.1693 6.52983 16.1023 6.44412 16.0137 6.38594C15.9251 6.32775 15.8198 6.30032 15.7141 6.30787C15.6083 6.31542 15.508 6.35753 15.4285 6.42771L7.5 12.5573L15.4285 18.6869C15.508 18.7571 15.6083 18.7992 15.7141 18.8067C15.8198 18.8143 15.9251 18.7869 16.0137 18.7287C16.1023 18.6705 16.1693 18.5848 16.2044 18.4848C16.2395 18.3847 16.2408 18.276 16.208 18.1752L14.5283 14.4854C14.4805 14.4109 14.4559 14.324 14.4576 14.2356C14.4592 14.1472 14.487 14.0613 14.5375 13.9887C14.588 13.9161 14.6589 13.8601 14.7413 13.8278C14.8236 13.7955 14.9136 13.7884 15 13.8073V13.8187H16.25M3.75 15C3.25555 15 2.7722 14.8534 2.36108 14.5787C1.94995 14.304 1.62952 13.9135 1.4403 13.4567C1.25108 12.9999 1.20157 12.4972 1.29804 12.0123C1.3945 11.5273 1.6326 11.0819 1.98223 10.7322C2.33187 10.3826 2.77732 10.1445 3.26228 10.0481C3.74723 9.95159 4.24989 10.0011 4.70671 10.1903C5.16352 10.3795 5.55397 10.7 5.82868 11.1111C6.10338 11.5222 6.25 12.0056 6.25 12.5C6.25 13.1631 5.98661 13.7989 5.51777 14.2678C5.04893 14.7366 4.41304 15 3.75 15Z" stroke="#2A5DFF" stroke-width="0.5"/>
</svg>
