<svg width="25" height="25" viewBox="0 0 25 25" fill="none" xmlns="http://www.w3.org/2000/svg">
<path d="M18.75 12.5C18.75 12.0056 18.8966 11.5222 19.1713 11.1111C19.446 10.7 19.8365 10.3795 20.2933 10.1903C20.7501 10.0011 21.2528 9.9516 21.7377 10.0481C22.2227 10.1445 22.6681 10.3826 23.0178 10.7323C23.3674 11.0819 23.6055 11.5273 23.702 12.0123C23.7984 12.4973 23.7489 12.9999 23.5597 13.4567C23.3705 13.9136 23.05 14.304 22.6389 14.5787C22.2278 14.8534 21.7445 15 21.25 15C20.587 15 19.9511 14.7366 19.4822 14.2678C19.0134 13.799 18.75 13.1631 18.75 12.5ZM8.75 13.8187H10V13.8073C10.0864 13.7884 10.1764 13.7956 10.2587 13.8278C10.3411 13.8601 10.412 13.9161 10.4625 13.9887C10.513 14.0613 10.5408 14.1472 10.5424 14.2356C10.5441 14.324 10.5195 14.4109 10.4717 14.4854L8.79204 18.1752C8.75923 18.276 8.76047 18.3847 8.79558 18.4848C8.83069 18.5848 8.89771 18.6705 8.98632 18.7287C9.07493 18.7869 9.18021 18.8143 9.28595 18.8067C9.39169 18.7992 9.49201 18.7571 9.57146 18.6869L17.5 12.5573L9.57146 6.42771C9.49201 6.35753 9.39169 6.31542 9.28595 6.30787C9.18021 6.30032 9.07492 6.32775 8.9863 6.38594C8.89769 6.44412 8.83066 6.52983 8.79556 6.62986C8.76045 6.72989 8.75922 6.83869 8.79204 6.93949L10.4717 10.6293C10.5195 10.7037 10.5441 10.7906 10.5424 10.879C10.5408 10.9674 10.513 11.0534 10.4625 11.126C10.412 11.1985 10.3411 11.2545 10.2587 11.2868C10.1764 11.3191 10.0864 11.3262 10 11.3073V11.3187H8.76023L8.76038 11.2936L8.74662 11.2959C6.7746 11.3193 4.88957 12.1114 3.49269 13.5036C2.09581 14.8957 1.29738 16.7781 1.26731 18.75H1.25V20.6096C1.25 20.6937 1.26656 20.777 1.29875 20.8547C1.33093 20.9324 1.3781 21.003 1.43757 21.0625C1.49704 21.1219 1.56764 21.1691 1.64534 21.2013C1.72303 21.2335 1.80631 21.25 1.89041 21.25H3.10959C3.19369 21.25 3.27697 21.2335 3.35466 21.2013C3.43236 21.1691 3.50296 21.1219 3.56243 21.0625C3.6219 21.003 3.66907 20.9324 3.70125 20.8547C3.73344 20.777 3.75 20.6937 3.75 20.6096V18.8874H3.76038C3.75511 17.5537 4.2754 16.2715 5.20859 15.3186C6.14178 14.3656 7.41276 13.8186 8.74634 13.7959" fill="#2A5DFF"/>
<path d="M8.75 13.8187H10V13.8073C10.0864 13.7884 10.1764 13.7956 10.2587 13.8278C10.3411 13.8601 10.412 13.9161 10.4625 13.9887C10.513 14.0613 10.5408 14.1472 10.5424 14.2356C10.5441 14.324 10.5195 14.4109 10.4717 14.4854L8.79204 18.1752C8.75923 18.276 8.76047 18.3847 8.79558 18.4848C8.83069 18.5848 8.89771 18.6705 8.98632 18.7287C9.07493 18.7869 9.18021 18.8143 9.28595 18.8067C9.39169 18.7992 9.49201 18.7571 9.57146 18.6869L17.5 12.5573L9.57146 6.42771C9.49201 6.35753 9.39169 6.31542 9.28595 6.30787C9.18021 6.30032 9.07492 6.32775 8.9863 6.38594C8.89768 6.44412 8.83066 6.52983 8.79556 6.62986C8.76045 6.72989 8.75922 6.83869 8.79204 6.93949L10.4717 10.6293C10.5195 10.7037 10.5441 10.7906 10.5424 10.879C10.5408 10.9674 10.513 11.0534 10.4625 11.126C10.412 11.1985 10.3411 11.2545 10.2587 11.2868C10.1764 11.3191 10.0864 11.3262 10 11.3073V11.3187H8.76023L8.76037 11.2936L8.74663 11.2959C6.7746 11.3193 4.88957 12.1114 3.49269 13.5036C2.09581 14.8957 1.29738 16.7781 1.26731 18.75H1.25V20.6096C1.25 20.6937 1.26656 20.777 1.29875 20.8547C1.33093 20.9324 1.3781 21.003 1.43757 21.0625C1.49704 21.1219 1.56764 21.1691 1.64534 21.2013C1.72303 21.2335 1.80631 21.25 1.89041 21.25H3.10959C3.19369 21.25 3.27697 21.2335 3.35466 21.2013C3.43236 21.1691 3.50296 21.1219 3.56243 21.0625C3.6219 21.003 3.66907 20.9324 3.70125 20.8547C3.73344 20.777 3.75 20.6937 3.75 20.6096V18.8874H3.76038C3.75511 17.5537 4.2754 16.2715 5.20859 15.3186C6.14178 14.3656 7.41276 13.8186 8.74634 13.7959M18.75 12.5C18.75 12.0056 18.8966 11.5222 19.1713 11.1111C19.446 10.7 19.8365 10.3795 20.2933 10.1903C20.7501 10.0011 21.2528 9.9516 21.7377 10.0481C22.2227 10.1445 22.6681 10.3826 23.0178 10.7323C23.3674 11.0819 23.6055 11.5273 23.702 12.0123C23.7984 12.4973 23.7489 12.9999 23.5597 13.4567C23.3705 13.9136 23.05 14.304 22.6389 14.5787C22.2278 14.8534 21.7445 15 21.25 15C20.587 15 19.9511 14.7366 19.4822 14.2678C19.0134 13.799 18.75 13.1631 18.75 12.5Z" stroke="#2A5DFF" stroke-width="0.5"/>
</svg>
