<svg width="25" height="25" viewBox="0 0 25 25" fill="none" xmlns="http://www.w3.org/2000/svg">
<path d="M21.6944 5.07321L14.707 12.0606C14.5905 12.1772 14.525 12.3352 14.525 12.5C14.525 12.6648 14.5905 12.8228 14.707 12.9394L21.6944 19.9268C21.8109 20.0433 21.8764 20.2014 21.8764 20.3662C21.8764 20.531 21.8109 20.689 21.6944 20.8055L20.8056 21.6943C20.6891 21.8108 20.5311 21.8763 20.3663 21.8763C20.2015 21.8763 20.0434 21.8108 19.9269 21.6943L12.9395 14.7069C12.8229 14.5904 12.6649 14.5249 12.5001 14.5249C12.3353 14.5249 12.1773 14.5904 12.0607 14.7069L5.07319 21.6944C4.95665 21.8109 4.79861 21.8764 4.63381 21.8764C4.46902 21.8764 4.31097 21.8109 4.19444 21.6944L3.30569 20.8057C3.18917 20.6891 3.12371 20.5311 3.12371 20.3663C3.12371 20.2015 3.18917 20.0434 3.30569 19.9269L10.2931 12.9395C10.4096 12.823 10.4751 12.6649 10.4751 12.5001C10.4751 12.3353 10.4096 12.1773 10.2931 12.0607L3.30561 5.07321C3.18909 4.95667 3.12363 4.79863 3.12363 4.63383C3.12363 4.46904 3.18909 4.31099 3.30561 4.19446L4.19436 3.30571C4.3109 3.18919 4.46894 3.12373 4.63374 3.12373C4.79853 3.12373 4.95658 3.18919 5.07311 3.30571L12.0606 10.293C12.1771 10.4096 12.3352 10.475 12.5 10.475C12.6648 10.475 12.8228 10.4096 12.9393 10.293L19.9268 3.30563C20.0433 3.18912 20.2013 3.12366 20.3661 3.12366C20.5309 3.12366 20.689 3.18912 20.8055 3.30563L21.6943 4.19438C21.752 4.25208 21.7978 4.32058 21.829 4.39597C21.8602 4.47136 21.8763 4.55216 21.8763 4.63377C21.8764 4.71538 21.8603 4.79619 21.8291 4.87159C21.7978 4.94699 21.7521 5.0155 21.6944 5.07321Z" fill="#2A5DFF" stroke="#2A5DFF" stroke-width="0.5"/>
</svg>
