<svg width="25" height="25" viewBox="0 0 25 25" fill="none" xmlns="http://www.w3.org/2000/svg">
<path d="M12.4772 23.75C11.9827 23.75 11.4993 23.6034 11.0882 23.3287C10.6771 23.054 10.3567 22.6635 10.1675 22.2067C9.97823 21.7499 9.92872 21.2472 10.0252 20.7623C10.1217 20.2773 10.3598 19.8319 10.7094 19.4822C11.059 19.1326 11.5045 18.8945 11.9894 18.798C12.4744 18.7016 12.977 18.7511 13.4339 18.9403C13.8907 19.1295 14.2811 19.45 14.5558 19.8611C14.8305 20.2722 14.9772 20.7555 14.9772 21.25C14.9772 21.913 14.7138 22.5489 14.2449 23.0178C13.7761 23.4866 13.1402 23.75 12.4772 23.75ZM18.6182 9.17854L12.4886 1.25L6.35899 9.17854C6.2888 9.25799 6.24669 9.35831 6.23914 9.46405C6.23159 9.56979 6.25902 9.67508 6.31721 9.7637C6.37539 9.85231 6.4611 9.91934 6.56113 9.95444C6.66116 9.98955 6.76996 9.99078 6.87076 9.95796L10.5606 8.27828C10.634 8.23093 10.7197 8.20628 10.8071 8.20741C10.8945 8.20855 10.9795 8.23541 11.0517 8.28465C11.1239 8.33388 11.1799 8.4033 11.2129 8.48423C11.2458 8.56515 11.2541 8.65399 11.2368 8.73962H11.2272V15.6147C11.2271 15.6968 11.2433 15.778 11.2747 15.8539C11.3061 15.9297 11.3521 15.9986 11.4102 16.0566C11.4682 16.1146 11.5371 16.1607 11.6129 16.1921C11.6887 16.2235 11.77 16.2396 11.8521 16.2396H13.1022C13.1843 16.2396 13.2656 16.2235 13.3414 16.1921C13.4172 16.1607 13.4861 16.1146 13.5441 16.0566C13.6022 15.9986 13.6482 15.9297 13.6796 15.8539C13.711 15.778 13.7272 15.6968 13.7272 15.6147V8.75H13.7386C13.7197 8.66362 13.7268 8.57358 13.7591 8.49126C13.7914 8.40894 13.8474 8.33804 13.92 8.28754C13.9925 8.23704 14.0785 8.20921 14.1669 8.20756C14.2553 8.20591 14.3422 8.23052 14.4166 8.27828L18.1064 9.95796C18.2072 9.99077 18.316 9.98953 18.416 9.95442C18.5161 9.91931 18.6018 9.85229 18.66 9.76368C18.7181 9.67507 18.7456 9.56979 18.738 9.46405C18.7305 9.35831 18.6884 9.25799 18.6182 9.17854Z" fill="#2A5DFF" stroke="#2A5DFF" stroke-width="0.5"/>
</svg>
