<svg width="25" height="25" viewBox="0 0 25 25" fill="none" xmlns="http://www.w3.org/2000/svg">
<path d="M3.75 21.25C3.75 20.7556 3.89662 20.2722 4.17133 19.8611C4.44603 19.45 4.83648 19.1295 5.29329 18.9403C5.75011 18.7511 6.25277 18.7016 6.73773 18.7981C7.22268 18.8945 7.66814 19.1326 8.01777 19.4823C8.3674 19.8319 8.6055 20.2773 8.70196 20.7623C8.79843 21.2473 8.74892 21.7499 8.5597 22.2067C8.37048 22.6636 8.05005 23.054 7.63893 23.3287C7.2278 23.6034 6.74445 23.75 6.25 23.75C5.58696 23.75 4.95107 23.4866 4.48223 23.0178C4.01339 22.549 3.75 21.9131 3.75 21.25ZM12.5 10.0687H13.75V10.0573C13.8364 10.0384 13.9264 10.0456 14.0087 10.0778C14.0911 10.1101 14.162 10.1661 14.2125 10.2387C14.263 10.3113 14.2908 10.3972 14.2924 10.4856C14.2941 10.574 14.2695 10.6609 14.2217 10.7354L12.542 14.4252C12.5092 14.526 12.5105 14.6347 12.5456 14.7348C12.5807 14.8348 12.6477 14.9205 12.7363 14.9787C12.8249 15.0369 12.9302 15.0643 13.036 15.0567C13.1417 15.0492 13.242 15.0071 13.3215 14.9369L21.25 8.80733L13.3215 2.67771C13.242 2.60753 13.1417 2.56542 13.0359 2.55787C12.9302 2.55032 12.8249 2.57775 12.7363 2.63593C12.6477 2.69412 12.5807 2.77983 12.5456 2.87986C12.5105 2.97989 12.5092 3.08869 12.542 3.18949L14.2217 6.87929C14.2695 6.95371 14.2941 7.04062 14.2924 7.12903C14.2908 7.21744 14.263 7.30338 14.2125 7.37596C14.162 7.44855 14.0911 7.50453 14.0087 7.53681C13.9264 7.56909 13.8364 7.57623 13.75 7.55733V7.56869H12.5102L12.5104 7.54359L12.4966 7.54588C10.5246 7.5693 8.63957 8.36138 7.24269 9.75356C5.84581 11.1457 5.04738 13.0281 5.01731 15H5V16.8596C5 16.9437 5.01656 17.027 5.04875 17.1047C5.08093 17.1824 5.1281 17.253 5.18757 17.3125C5.24704 17.3719 5.31764 17.4191 5.39534 17.4513C5.47303 17.4835 5.55631 17.5 5.64041 17.5H6.85959C6.94369 17.5 7.02697 17.4835 7.10466 17.4513C7.18236 17.4191 7.25296 17.3719 7.31243 17.3125C7.3719 17.253 7.41907 17.1824 7.45125 17.1047C7.48344 17.027 7.5 16.9437 7.5 16.8596V15.1374H7.51037C7.50511 13.8037 8.0254 12.5215 8.95859 11.5686C9.89178 10.6156 11.1628 10.0686 12.4963 10.0459" fill="#2A5DFF"/>
<path d="M12.5 10.0687H13.75V10.0573C13.8364 10.0384 13.9264 10.0456 14.0087 10.0778C14.0911 10.1101 14.162 10.1661 14.2125 10.2387C14.263 10.3113 14.2908 10.3972 14.2924 10.4856C14.2941 10.574 14.2695 10.6609 14.2217 10.7354L12.542 14.4252C12.5092 14.526 12.5105 14.6347 12.5456 14.7348C12.5807 14.8348 12.6477 14.9205 12.7363 14.9787C12.8249 15.0369 12.9302 15.0643 13.036 15.0567C13.1417 15.0492 13.242 15.0071 13.3215 14.9369L21.25 8.80733L13.3215 2.67771C13.242 2.60753 13.1417 2.56542 13.0359 2.55787C12.9302 2.55032 12.8249 2.57775 12.7363 2.63593C12.6477 2.69412 12.5807 2.77983 12.5456 2.87986C12.5105 2.97989 12.5092 3.08869 12.542 3.18949L14.2217 6.87929C14.2695 6.95371 14.2941 7.04062 14.2924 7.12903C14.2908 7.21744 14.263 7.30338 14.2125 7.37596C14.162 7.44855 14.0911 7.50453 14.0087 7.53681C13.9264 7.56909 13.8364 7.57623 13.75 7.55733V7.56869H12.5102L12.5104 7.54359L12.4966 7.54588C10.5246 7.5693 8.63957 8.36138 7.24269 9.75356C5.84581 11.1457 5.04738 13.0281 5.01731 15H5V16.8596C5 16.9437 5.01656 17.027 5.04875 17.1047C5.08093 17.1824 5.1281 17.253 5.18757 17.3125C5.24704 17.3719 5.31764 17.4191 5.39534 17.4513C5.47303 17.4835 5.55631 17.5 5.64041 17.5H6.85959C6.94369 17.5 7.02697 17.4835 7.10466 17.4513C7.18236 17.4191 7.25296 17.3719 7.31243 17.3125C7.3719 17.253 7.41907 17.1824 7.45125 17.1047C7.48344 17.027 7.5 16.9437 7.5 16.8596V15.1374H7.51037C7.50511 13.8037 8.0254 12.5215 8.95859 11.5686C9.89178 10.6156 11.1628 10.0686 12.4963 10.0459M3.75 21.25C3.75 20.7556 3.89662 20.2722 4.17133 19.8611C4.44603 19.45 4.83648 19.1295 5.29329 18.9403C5.75011 18.7511 6.25277 18.7016 6.73773 18.7981C7.22268 18.8945 7.66814 19.1326 8.01777 19.4823C8.3674 19.8319 8.6055 20.2773 8.70196 20.7623C8.79843 21.2473 8.74892 21.7499 8.5597 22.2067C8.37048 22.6636 8.05005 23.054 7.63893 23.3287C7.2278 23.6034 6.74445 23.75 6.25 23.75C5.58696 23.75 4.95107 23.4866 4.48223 23.0178C4.01339 22.549 3.75 21.9131 3.75 21.25Z" stroke="#2A5DFF" stroke-width="0.5"/>
</svg>
