<svg width="25" height="25" viewBox="0 0 25 25" fill="none" xmlns="http://www.w3.org/2000/svg">
<path d="M18.75 23.75C18.2555 23.75 17.7722 23.6034 17.3611 23.3287C16.95 23.054 16.6295 22.6636 16.4403 22.2067C16.2511 21.7499 16.2016 21.2473 16.298 20.7623C16.3945 20.2773 16.6326 19.8319 16.9822 19.4823C17.3319 19.1326 17.7773 18.8945 18.2623 18.7981C18.7472 18.7016 19.2499 18.7511 19.7067 18.9403C20.1635 19.1295 20.554 19.45 20.8287 19.8611C21.1034 20.2722 21.25 20.7556 21.25 21.25C21.25 21.9131 20.9866 22.549 20.5178 23.0178C20.0489 23.4866 19.413 23.75 18.75 23.75ZM12.5037 10.0459C13.8372 10.0686 15.1082 10.6156 16.0414 11.5686C16.9746 12.5215 17.4949 13.8037 17.4896 15.1374H17.5V16.8596C17.5 16.9437 17.5166 17.027 17.5487 17.1047C17.5809 17.1824 17.6281 17.253 17.6876 17.3125C17.747 17.3719 17.8176 17.4191 17.8953 17.4513C17.973 17.4835 18.0563 17.5 18.1404 17.5H19.3596C19.4437 17.5 19.527 17.4835 19.6047 17.4513C19.6824 17.4191 19.753 17.3719 19.8124 17.3125C19.8719 17.253 19.9191 17.1824 19.9513 17.1047C19.9834 17.027 20 16.9437 20 16.8596V15H19.9827C19.9526 13.0281 19.1542 11.1458 17.7573 9.75358C16.3605 8.3614 14.4755 7.56931 12.5034 7.54588L12.4897 7.54359L12.4898 7.56869H11.25V7.55733C11.1636 7.57623 11.0736 7.56909 10.9913 7.53681C10.9089 7.50452 10.838 7.44855 10.7875 7.37596C10.737 7.30338 10.7092 7.21745 10.7076 7.12904C10.7059 7.04063 10.7305 6.95372 10.7783 6.8793L12.458 3.18949C12.4908 3.08869 12.4895 2.97989 12.4544 2.87986C12.4193 2.77983 12.3523 2.69412 12.2637 2.63593C12.1751 2.57775 12.0698 2.55032 11.9641 2.55787C11.8583 2.56542 11.758 2.60753 11.6785 2.67771L3.75 8.80733L11.6785 14.9369C11.758 15.0071 11.8583 15.0492 11.964 15.0568C12.0698 15.0643 12.1751 15.0369 12.2637 14.9787C12.3523 14.9205 12.4193 14.8348 12.4544 14.7348C12.4895 14.6348 12.4908 14.526 12.458 14.4252L10.7783 10.7354C10.7305 10.6609 10.7059 10.574 10.7076 10.4856C10.7092 10.3972 10.737 10.3113 10.7875 10.2387C10.838 10.1661 10.9089 10.1101 10.9913 10.0778C11.0736 10.0456 11.1636 10.0384 11.25 10.0573V10.0687H12.5" fill="#2A5DFF"/>
<path d="M12.5037 10.0459C13.8372 10.0686 15.1082 10.6156 16.0414 11.5686C16.9746 12.5215 17.4949 13.8037 17.4896 15.1374H17.5V16.8596C17.5 16.9437 17.5166 17.027 17.5487 17.1047C17.5809 17.1824 17.6281 17.253 17.6876 17.3125C17.747 17.3719 17.8176 17.4191 17.8953 17.4513C17.973 17.4835 18.0563 17.5 18.1404 17.5H19.3596C19.4437 17.5 19.527 17.4835 19.6047 17.4513C19.6824 17.4191 19.753 17.3719 19.8124 17.3125C19.8719 17.253 19.9191 17.1824 19.9513 17.1047C19.9834 17.027 20 16.9437 20 16.8596V15H19.9827C19.9526 13.0281 19.1542 11.1458 17.7573 9.75358C16.3605 8.3614 14.4755 7.56931 12.5034 7.54588L12.4897 7.54359L12.4898 7.56869H11.25V7.55733C11.1636 7.57623 11.0736 7.56909 10.9913 7.53681C10.9089 7.50452 10.838 7.44855 10.7875 7.37596C10.737 7.30338 10.7092 7.21745 10.7076 7.12904C10.7059 7.04063 10.7305 6.95372 10.7783 6.8793L12.458 3.18949C12.4908 3.08869 12.4895 2.97989 12.4544 2.87986C12.4193 2.77983 12.3523 2.69412 12.2637 2.63593C12.1751 2.57775 12.0698 2.55032 11.9641 2.55787C11.8583 2.56542 11.758 2.60753 11.6785 2.67771L3.75 8.80733L11.6785 14.9369C11.758 15.0071 11.8583 15.0492 11.964 15.0568C12.0698 15.0643 12.1751 15.0369 12.2637 14.9787C12.3523 14.9205 12.4193 14.8348 12.4544 14.7348C12.4895 14.6348 12.4908 14.526 12.458 14.4252L10.7783 10.7354C10.7305 10.6609 10.7059 10.574 10.7076 10.4856C10.7092 10.3972 10.737 10.3113 10.7875 10.2387C10.838 10.1661 10.9089 10.1101 10.9913 10.0778C11.0736 10.0456 11.1636 10.0384 11.25 10.0573V10.0687H12.5M18.75 23.75C18.2555 23.75 17.7722 23.6034 17.3611 23.3287C16.95 23.054 16.6295 22.6636 16.4403 22.2067C16.2511 21.7499 16.2016 21.2473 16.298 20.7623C16.3945 20.2773 16.6326 19.8319 16.9822 19.4823C17.3319 19.1326 17.7773 18.8945 18.2623 18.7981C18.7472 18.7016 19.2499 18.7511 19.7067 18.9403C20.1635 19.1295 20.554 19.45 20.8287 19.8611C21.1034 20.2722 21.25 20.7556 21.25 21.25C21.25 21.9131 20.9866 22.549 20.5178 23.0178C20.0489 23.4866 19.413 23.75 18.75 23.75Z" stroke="#2A5DFF" stroke-width="0.5"/>
</svg>
