<svg width="25" height="25" viewBox="0 0 25 25" fill="none" xmlns="http://www.w3.org/2000/svg">
<path d="M12.5 23.75C12.0055 23.75 11.5222 23.6034 11.1111 23.3287C10.7 23.054 10.3795 22.6635 10.1903 22.2067C10.0011 21.7499 9.95157 21.2472 10.048 20.7623C10.1445 20.2773 10.3826 19.8319 10.7322 19.4822C11.0819 19.1326 11.5273 18.8945 12.0123 18.798C12.4972 18.7016 12.9999 18.7511 13.4567 18.9403C13.9135 19.1295 14.304 19.45 14.5787 19.8611C14.8534 20.2722 15 20.7555 15 21.25C15 21.913 14.7366 22.5489 14.2678 23.0178C13.7989 23.4866 13.163 23.75 12.5 23.75ZM18.6411 9.17854L12.5115 1.25L6.38184 9.17854C6.31165 9.25799 6.26954 9.35831 6.26199 9.46405C6.25444 9.56979 6.28187 9.67508 6.34006 9.7637C6.39824 9.85231 6.48395 9.91934 6.58398 9.95444C6.68401 9.98955 6.79281 9.99078 6.89361 9.95796L10.5834 8.27828C10.6568 8.23093 10.7426 8.20628 10.83 8.20741C10.9173 8.20855 11.0024 8.23541 11.0746 8.28465C11.1467 8.33388 11.2028 8.4033 11.2357 8.48423C11.2686 8.56515 11.277 8.65399 11.2597 8.73962H11.25V15.6147C11.25 15.6968 11.2662 15.778 11.2976 15.8539C11.329 15.9297 11.375 15.9986 11.433 16.0566C11.4911 16.1146 11.56 16.1607 11.6358 16.1921C11.7116 16.2235 11.7929 16.2396 11.8749 16.2396H13.1251C13.2071 16.2396 13.2884 16.2235 13.3642 16.1921C13.44 16.1607 13.5089 16.1146 13.567 16.0566C13.625 15.9986 13.671 15.9297 13.7024 15.8539C13.7338 15.778 13.75 15.6968 13.75 15.6147V8.75H13.7615C13.7425 8.66362 13.7497 8.57358 13.782 8.49126C13.8143 8.40894 13.8702 8.33804 13.9428 8.28754C14.0154 8.23704 14.1013 8.20921 14.1897 8.20756C14.2781 8.20591 14.3651 8.23052 14.4395 8.27828L18.1293 9.95796C18.2301 9.99077 18.3389 9.98953 18.4389 9.95442C18.5389 9.91931 18.6246 9.85229 18.6828 9.76368C18.741 9.67507 18.7684 9.56979 18.7609 9.46405C18.7533 9.35831 18.7112 9.25799 18.6411 9.17854Z" fill="#2A5DFF" stroke="#2A5DFF" stroke-width="0.5"/>
</svg>
