<svg width="25" height="25" viewBox="0 0 25 25" fill="none" xmlns="http://www.w3.org/2000/svg">
<path d="M16 7.75001V9.75001H3.12649C3.02667 9.74991 2.93098 9.71021 2.8604 9.63963C2.78981 9.56905 2.75011 9.47335 2.75 9.37354V8.12649C2.75011 8.02667 2.78981 7.93098 2.8604 7.8604C2.93098 7.78982 3.02667 7.75012 3.12649 7.75001H16ZM16.25 7.50001H3.12649C2.96033 7.50001 2.80099 7.56602 2.6835 7.6835C2.56601 7.80099 2.5 7.96034 2.5 8.12649V9.37354C2.5 9.53969 2.56601 9.69904 2.6835 9.81652C2.80099 9.93401 2.96033 10 3.12649 10H16.25V7.50001ZM12.5 9.97713H14.9844C15.0708 9.95823 15.1609 9.96538 15.2432 9.99767C15.3255 10.03 15.3964 10.0859 15.4469 10.1585C15.4974 10.2311 15.5252 10.3171 15.5269 10.4055C15.5285 10.4939 15.5039 10.5808 15.4562 10.6552L13.7765 14.345C13.7437 14.4458 13.7449 14.5546 13.78 14.6546C13.8151 14.7547 13.8821 14.8404 13.9707 14.8986C14.0594 14.9568 14.1646 14.9842 14.2704 14.9766C14.3761 14.9691 14.4764 14.927 14.5559 14.8568L22.4896 8.75001L14.5559 2.59751C14.4764 2.52733 14.3761 2.48522 14.2704 2.47767C14.1646 2.47012 14.0593 2.49755 13.9707 2.55573C13.8821 2.61392 13.8151 2.69963 13.78 2.79966C13.7449 2.89969 13.7436 3.00849 13.7765 3.10929L15.4561 6.79909C15.5039 6.87351 15.5285 6.96042 15.5269 7.04883C15.5252 7.13723 15.4974 7.22317 15.4469 7.29575C15.3964 7.36833 15.3255 7.42431 15.2432 7.45659C15.1608 7.48888 15.0708 7.49602 14.9844 7.47711H12.5V7.47484L12.4862 7.47713C10.4898 7.50058 8.58334 8.31126 7.18144 9.73288C5.77954 11.1545 4.99556 13.0721 5 15.0687V20H5.00389L5.00139 21.879C5.00127 21.9605 5.01723 22.0412 5.04835 22.1166C5.07948 22.1919 5.12515 22.2604 5.18275 22.3181C5.24036 22.3758 5.30878 22.4215 5.38408 22.4527C5.45939 22.484 5.54012 22.5 5.62164 22.5H6.87972C7.04423 22.5 7.202 22.4347 7.31833 22.3183C7.43465 22.202 7.5 22.0442 7.5 21.8797V15.0687C7.49474 13.7349 8.01503 12.4528 8.94822 11.4998C9.8814 10.5469 11.1524 9.99981 12.486 9.97713H12.5Z" fill="#2A5DFF" stroke="#2A5DFF" stroke-width="0.5"/>
</svg>
