<svg width="25" height="25" viewBox="0 0 25 25" fill="none" xmlns="http://www.w3.org/2000/svg">
<path d="M20.6294 7.75C20.7277 7.75011 20.8219 7.78919 20.8913 7.85866C20.9608 7.92813 20.9999 8.02233 21 8.12058V9.37943C20.9999 9.47768 20.9608 9.57187 20.8913 9.64135C20.8219 9.71082 20.7277 9.7499 20.6294 9.75H9V7.75H20.6294ZM20.6294 7.5H8.75V10H20.6294C20.7109 10 20.7916 9.98396 20.8669 9.95277C20.9422 9.92158 21.0106 9.87587 21.0682 9.81825C21.1259 9.76062 21.1716 9.69221 21.2028 9.61691C21.234 9.54162 21.25 9.46092 21.25 9.37943V8.12058C21.25 8.03908 21.234 7.95839 21.2028 7.88309C21.1716 7.8078 21.1259 7.73939 21.0682 7.68176C21.0106 7.62414 20.9422 7.57842 20.8669 7.54724C20.7916 7.51605 20.7109 7.5 20.6294 7.5ZM12.5 7.47712H10.0156C9.92918 7.49602 9.83914 7.48888 9.75682 7.45659C9.6745 7.42431 9.60361 7.36834 9.55311 7.29575C9.50261 7.22317 9.47477 7.13724 9.47312 7.04883C9.47147 6.96042 9.49608 6.87351 9.54384 6.79909L11.2235 3.10929C11.2563 3.00849 11.2551 2.89969 11.22 2.79967C11.1849 2.69964 11.1179 2.61393 11.0293 2.55574C10.9407 2.49755 10.8354 2.47012 10.7296 2.47767C10.6239 2.48521 10.5236 2.52732 10.4441 2.5975L2.51038 8.75L10.4441 14.8568C10.5236 14.927 10.6239 14.9691 10.7296 14.9766C10.8354 14.9842 10.9407 14.9567 11.0293 14.8986C11.1179 14.8404 11.1849 14.7547 11.22 14.6546C11.2551 14.5546 11.2563 14.4458 11.2235 14.345L9.54384 10.6552C9.49608 10.5808 9.47146 10.4939 9.47311 10.4055C9.47475 10.3171 9.50259 10.2311 9.55309 10.1585C9.60359 10.0859 9.67448 10.0299 9.7568 9.99766C9.83913 9.96537 9.92918 9.95822 10.0156 9.97712H12.514C13.8476 9.9998 15.1186 10.5468 16.0518 11.4998C16.985 12.4527 17.5053 13.7349 17.5 15.0687V21.8797C17.5 22.0442 17.5653 22.202 17.6817 22.3183C17.798 22.4347 17.9558 22.5 18.1203 22.5H19.3784C19.4599 22.5 19.5406 22.4839 19.6159 22.4527C19.6912 22.4215 19.7596 22.3757 19.8172 22.3181C19.8748 22.2604 19.9205 22.1919 19.9516 22.1166C19.9827 22.0412 19.9987 21.9605 19.9986 21.879L19.9961 20H20V15.0687C20.0044 13.0721 19.2205 11.1545 17.8186 9.73287C16.4167 8.31125 14.5102 7.50057 12.5138 7.47712L12.5 7.47483" fill="#2A5DFF"/>
<path d="M12.5 7.47712H10.0156C9.92918 7.49602 9.83914 7.48888 9.75682 7.45659C9.6745 7.42431 9.60361 7.36834 9.55311 7.29575C9.50261 7.22317 9.47477 7.13724 9.47312 7.04883C9.47147 6.96042 9.49608 6.87351 9.54384 6.79909L11.2235 3.10929C11.2563 3.00849 11.2551 2.89969 11.22 2.79967C11.1849 2.69964 11.1179 2.61393 11.0293 2.55574C10.9407 2.49755 10.8354 2.47012 10.7296 2.47767C10.6239 2.48521 10.5236 2.52732 10.4441 2.5975L2.51038 8.75L10.4441 14.8568C10.5236 14.927 10.6239 14.9691 10.7296 14.9766C10.8354 14.9842 10.9407 14.9567 11.0293 14.8986C11.1179 14.8404 11.1849 14.7547 11.22 14.6546C11.2551 14.5546 11.2563 14.4458 11.2235 14.345L9.54384 10.6552C9.49608 10.5808 9.47146 10.4939 9.47311 10.4055C9.47475 10.3171 9.50259 10.2311 9.55309 10.1585C9.60359 10.0859 9.67448 10.0299 9.7568 9.99766C9.83913 9.96537 9.92918 9.95822 10.0156 9.97712H12.514C13.8476 9.9998 15.1186 10.5468 16.0518 11.4998C16.985 12.4527 17.5053 13.7349 17.5 15.0687V21.8797C17.5 22.0442 17.5653 22.202 17.6817 22.3183C17.798 22.4347 17.9558 22.5 18.1203 22.5H19.3784C19.4599 22.5 19.5406 22.4839 19.6159 22.4527C19.6912 22.4215 19.7596 22.3757 19.8172 22.3181C19.8748 22.2604 19.9205 22.1919 19.9516 22.1166C19.9827 22.0412 19.9987 21.9605 19.9986 21.879L19.9961 20H20V15.0687C20.0044 13.0721 19.2205 11.1545 17.8186 9.73287C16.4167 8.31125 14.5102 7.50057 12.5137 7.47712L12.5 7.47483M20.6294 7.75C20.7277 7.75011 20.8219 7.78919 20.8913 7.85866C20.9608 7.92813 20.9999 8.02233 21 8.12058V9.37943C20.9999 9.47768 20.9608 9.57187 20.8913 9.64135C20.8219 9.71082 20.7277 9.7499 20.6294 9.75H9V7.75H20.6294ZM20.6294 7.5H8.75V10H20.6294C20.7109 10 20.7916 9.98396 20.8669 9.95277C20.9422 9.92158 21.0106 9.87587 21.0682 9.81825C21.1259 9.76062 21.1716 9.69221 21.2028 9.61691C21.234 9.54162 21.25 9.46092 21.25 9.37943V8.12058C21.25 8.03908 21.234 7.95839 21.2028 7.88309C21.1716 7.8078 21.1259 7.73939 21.0682 7.68176C21.0106 7.62414 20.9422 7.57843 20.8669 7.54724C20.7916 7.51605 20.7109 7.5 20.6294 7.5Z" stroke="#2A5DFF" stroke-width="0.5"/>
</svg>
