<svg width="25" height="25" viewBox="0 0 25 25" fill="none" xmlns="http://www.w3.org/2000/svg">
<path d="M2.84233 8.22104C2.93209 8.22113 3.01892 8.25292 3.08751 8.31081L5.68001 10.4985C6.65358 11.3852 7.41456 12.48 7.90625 13.7016C8.39794 14.9231 8.60768 16.2399 8.51983 17.5538V21.8799C8.5197 21.978 8.48066 22.0721 8.41125 22.1415C8.34185 22.2109 8.24775 22.2499 8.14961 22.25H6.89148C6.84282 22.25 6.79464 22.2404 6.74968 22.2218C6.70473 22.2032 6.66389 22.1759 6.6295 22.1414C6.59512 22.107 6.56786 22.0661 6.54928 22.0211C6.53071 21.9762 6.52119 21.928 6.52126 21.8793L6.526 17.3933C6.58758 16.3894 6.42489 15.3844 6.04972 14.4512C5.67456 13.5181 5.09634 12.6801 4.35703 11.9983L1.78532 9.82844C1.74679 9.79592 1.71511 9.75607 1.6921 9.7112C1.6691 9.66634 1.65523 9.61735 1.65131 9.56709C1.64739 9.51682 1.65349 9.46628 1.66926 9.41839C1.68503 9.3705 1.71015 9.32622 1.74317 9.28811L2.55442 8.35238C2.59019 8.31112 2.63442 8.27804 2.6841 8.25538C2.73378 8.23272 2.78773 8.22101 2.84233 8.22104ZM2.84236 7.97104C2.75191 7.97091 2.6625 7.99028 2.58021 8.02782C2.49792 8.06537 2.4247 8.12021 2.36552 8.18861L1.55427 9.12435C1.49956 9.18747 1.45793 9.26083 1.4318 9.34017C1.40567 9.41951 1.39556 9.50326 1.40206 9.58654C1.40856 9.66982 1.43153 9.75097 1.46965 9.8253C1.50777 9.89963 1.56028 9.96564 1.62412 10.0195L4.19583 12.1893C4.90446 12.8449 5.45872 13.6497 5.81863 14.5455C6.17854 15.4413 6.33512 16.4058 6.27708 17.3694L6.27126 21.879C6.27115 21.9605 6.28711 22.0412 6.31823 22.1166C6.34935 22.1919 6.39502 22.2604 6.45263 22.3181C6.51023 22.3757 6.57864 22.4215 6.65394 22.4527C6.72925 22.4839 6.80997 22.5 6.89148 22.5H8.14961C8.31409 22.5 8.47184 22.4347 8.58814 22.3184C8.70445 22.2021 8.76979 22.0443 8.7698 21.8798V17.5538C8.85311 16.2048 8.6337 14.8542 8.12764 13.601C7.62158 12.3478 6.84167 11.2236 5.84501 10.3107L3.24876 8.11975C3.13517 8.0236 2.99118 7.97092 2.84236 7.97104ZM13.7604 9.97713H16.2448C16.3312 9.95823 16.4213 9.96538 16.5036 9.99767C16.5859 10.03 16.6568 10.0859 16.7073 10.1585C16.7578 10.2311 16.7856 10.3171 16.7873 10.4055C16.7889 10.4939 16.7643 10.5808 16.7165 10.6552L15.0369 14.345C15.004 14.4458 15.0053 14.5546 15.0404 14.6546C15.0755 14.7547 15.1425 14.8404 15.2311 14.8986C15.3197 14.9568 15.425 14.9842 15.5308 14.9766C15.6365 14.9691 15.7368 14.927 15.8163 14.8568L23.75 8.75001L15.8163 2.59751C15.7368 2.52733 15.6365 2.48522 15.5307 2.47767C15.425 2.47012 15.3197 2.49755 15.2311 2.55573C15.1425 2.61392 15.0755 2.69963 15.0404 2.79966C15.0052 2.89969 15.004 3.00849 15.0368 3.10929L16.7165 6.79909C16.7643 6.87351 16.7889 6.96042 16.7872 7.04883C16.7856 7.13723 16.7578 7.22317 16.7073 7.29575C16.6568 7.36833 16.5859 7.42431 16.5035 7.45659C16.4212 7.48888 16.3312 7.49602 16.2448 7.47711H13.7604V7.47484L13.7466 7.47713C11.7502 7.50058 9.84373 8.31126 8.44182 9.73288C7.03992 11.1545 6.25595 13.0721 6.26038 15.0687V20H6.26427L6.26177 21.879C6.26166 21.9605 6.27762 22.0412 6.30874 22.1166C6.33986 22.1919 6.38553 22.2604 6.44314 22.3181C6.50075 22.3758 6.56917 22.4215 6.64448 22.4527C6.71979 22.484 6.80051 22.5 6.88203 22.5H8.14011C8.30462 22.5 8.46238 22.4347 8.57871 22.3183C8.69503 22.202 8.76038 22.0442 8.76038 21.8797V15.0687C8.75512 13.7349 9.27541 12.4528 10.2086 11.4998C11.1418 10.5469 12.4128 9.99981 13.7463 9.97713H13.7604Z" fill="#2A5DFF" stroke="#2A5DFF" stroke-width="0.5"/>
</svg>
