<svg width="25" height="25" viewBox="0 0 25 25" fill="none" xmlns="http://www.w3.org/2000/svg">
<path d="M22.1701 8.22104C22.2247 8.22102 22.2787 8.23273 22.3284 8.25539C22.378 8.27805 22.4223 8.31113 22.458 8.35238L23.2693 9.28812C23.3023 9.32622 23.3274 9.37049 23.3432 9.41838C23.359 9.46627 23.3651 9.51682 23.3612 9.56709C23.3573 9.61735 23.3434 9.66634 23.3204 9.71121C23.2974 9.75607 23.2657 9.79592 23.2272 9.82844L20.6516 12.0015C19.9156 12.6801 19.3395 13.5137 18.9649 14.442C18.5902 15.3704 18.4264 16.3704 18.4853 17.3697L18.4912 21.8794C18.4912 21.928 18.4817 21.9762 18.4631 22.0212C18.4446 22.0661 18.4173 22.107 18.3829 22.1414C18.3486 22.1759 18.3077 22.2032 18.2628 22.2218C18.2178 22.2404 18.1697 22.25 18.121 22.25H16.8629C16.7647 22.2499 16.6706 22.2109 16.6012 22.1414C16.5318 22.072 16.4927 21.9779 16.4926 21.8797L16.4919 17.5344C16.4061 16.2244 16.6166 14.9119 17.1078 13.6944C17.5989 12.4768 18.358 11.3856 19.3288 10.5017L21.925 8.31081C21.9936 8.25292 22.0804 8.22114 22.1701 8.22104ZM22.1703 7.97103C22.0214 7.97092 21.8774 8.02363 21.7638 8.11978L19.1675 10.3107C18.1708 11.2236 17.3909 12.3478 16.8848 13.601C16.3788 14.8542 16.1593 16.2048 16.2426 17.5538V21.8798C16.2427 22.0443 16.308 22.202 16.4243 22.3184C16.5407 22.4347 16.6984 22.5 16.8629 22.5H18.121C18.2025 22.5 18.2832 22.484 18.3585 22.4527C18.4338 22.4215 18.5022 22.3758 18.5598 22.3181C18.6174 22.2604 18.6631 22.1919 18.6942 22.1166C18.7253 22.0413 18.7413 21.9605 18.7412 21.879L18.7353 17.3694C18.6773 16.4058 18.8339 15.4413 19.1938 14.5455C19.5537 13.6497 20.1079 12.845 20.8166 12.1894L23.3883 10.0195C23.4522 9.96565 23.5047 9.89963 23.5428 9.8253C23.5809 9.75098 23.6039 9.66982 23.6104 9.58653C23.6169 9.50325 23.6068 9.41951 23.5806 9.34017C23.5545 9.26083 23.5129 9.18747 23.4581 9.12436L22.6469 8.18862C22.5877 8.12022 22.5145 8.06537 22.4322 8.02783C22.3499 7.99028 22.2607 7.9709 22.1703 7.97103ZM11.251 7.47713H8.76654C8.68016 7.49604 8.59012 7.48889 8.5078 7.45661C8.42548 7.42433 8.35458 7.36835 8.30408 7.29577C8.25359 7.22318 8.22575 7.13725 8.2241 7.04884C8.22245 6.96044 8.24706 6.87352 8.29482 6.79911L9.9745 3.10931C10.0073 3.0085 10.0061 2.8997 9.97099 2.79967C9.93589 2.69964 9.86887 2.61393 9.78025 2.55574C9.69163 2.49755 9.58634 2.47012 9.4806 2.47767C9.37486 2.48522 9.27453 2.52733 9.19508 2.59752L1.26135 8.75002L9.1951 14.8568C9.27456 14.927 9.37488 14.9691 9.48062 14.9766C9.58636 14.9842 9.69165 14.9568 9.78026 14.8986C9.86887 14.8404 9.93589 14.7547 9.97099 14.6546C10.0061 14.5546 10.0073 14.4458 9.9745 14.345L8.29482 10.6552C8.24705 10.5808 8.22244 10.4939 8.22409 10.4055C8.22573 10.3171 8.25357 10.2311 8.30407 10.1585C8.35456 10.0859 8.42546 10.03 8.50778 9.99767C8.5901 9.96538 8.68015 9.95823 8.76654 9.97713H11.265C12.5986 9.99982 13.8696 10.5469 14.8027 11.4998C15.7359 12.4528 16.2562 13.7349 16.251 15.0687V21.8797C16.251 21.9612 16.267 22.0419 16.2982 22.1171C16.3294 22.1924 16.375 22.2607 16.4326 22.3183C16.4902 22.3759 16.5586 22.4216 16.6339 22.4528C16.7091 22.484 16.7898 22.5 16.8713 22.5H18.1293C18.2109 22.5 18.2916 22.484 18.3669 22.4527C18.4422 22.4215 18.5106 22.3758 18.5682 22.3181C18.6258 22.2604 18.6714 22.1919 18.7026 22.1166C18.7337 22.0412 18.7496 21.9605 18.7495 21.879L18.7471 20H18.751V15.0687C18.7554 13.0721 17.9714 11.1545 16.5695 9.73288C15.1676 8.31126 13.2612 7.50058 11.2647 7.47713L11.251 7.47484" fill="#2A5DFF"/>
<path d="M11.251 7.47713H8.76654C8.68016 7.49604 8.59012 7.48889 8.5078 7.45661C8.42548 7.42433 8.35458 7.36835 8.30408 7.29577C8.25359 7.22318 8.22575 7.13725 8.2241 7.04884C8.22245 6.96044 8.24706 6.87352 8.29482 6.79911L9.9745 3.10931C10.0073 3.0085 10.0061 2.8997 9.97099 2.79967C9.93589 2.69964 9.86887 2.61393 9.78025 2.55574C9.69163 2.49755 9.58634 2.47012 9.4806 2.47767C9.37485 2.48522 9.27453 2.52733 9.19508 2.59752L1.26135 8.75002L9.1951 14.8568C9.27456 14.927 9.37488 14.9691 9.48062 14.9766C9.58636 14.9842 9.69165 14.9568 9.78026 14.8986C9.86887 14.8404 9.93589 14.7547 9.97099 14.6546C10.0061 14.5546 10.0073 14.4458 9.9745 14.345L8.29482 10.6552C8.24705 10.5808 8.22244 10.4939 8.22409 10.4055C8.22573 10.3171 8.25357 10.2311 8.30407 10.1585C8.35456 10.0859 8.42546 10.03 8.50778 9.99767C8.5901 9.96538 8.68015 9.95823 8.76654 9.97713H11.265C12.5986 9.99982 13.8696 10.5469 14.8027 11.4998C15.7359 12.4528 16.2562 13.7349 16.251 15.0687V21.8797C16.251 21.9612 16.267 22.0419 16.2982 22.1171C16.3294 22.1924 16.375 22.2608 16.4326 22.3183C16.4902 22.3759 16.5586 22.4216 16.6339 22.4528C16.7091 22.484 16.7898 22.5 16.8713 22.5H18.1293C18.2109 22.5 18.2916 22.484 18.3669 22.4527C18.4422 22.4215 18.5106 22.3758 18.5682 22.3181C18.6258 22.2604 18.6714 22.1919 18.7026 22.1166C18.7337 22.0412 18.7496 21.9605 18.7495 21.879L18.7471 20H18.751V15.0687C18.7554 13.0721 17.9714 11.1545 16.5695 9.73288C15.1676 8.31126 13.2612 7.50058 11.2647 7.47713L11.251 7.47484M22.1701 8.22104C22.2247 8.22102 22.2787 8.23273 22.3284 8.25539C22.378 8.27805 22.4223 8.31113 22.458 8.35238L23.2693 9.28812C23.3023 9.32622 23.3274 9.37049 23.3432 9.41838C23.359 9.46627 23.3651 9.51682 23.3612 9.56709C23.3573 9.61735 23.3434 9.66634 23.3204 9.71121C23.2974 9.75607 23.2657 9.79592 23.2272 9.82844L20.6516 12.0015C19.9156 12.6801 19.3395 13.5137 18.9649 14.4421C18.5902 15.3704 18.4264 16.3704 18.4853 17.3697L18.4912 21.8794C18.4912 21.928 18.4817 21.9762 18.4631 22.0212C18.4446 22.0661 18.4173 22.107 18.3829 22.1414C18.3486 22.1759 18.3077 22.2032 18.2628 22.2218C18.2178 22.2404 18.1697 22.25 18.121 22.25H16.8629C16.7647 22.2499 16.6706 22.2109 16.6012 22.1414C16.5318 22.072 16.4927 21.9779 16.4926 21.8797L16.4919 17.5344C16.4061 16.2244 16.6166 14.9119 17.1078 13.6944C17.5989 12.4768 18.358 11.3856 19.3288 10.5017L21.925 8.31081C21.9936 8.25292 22.0804 8.22114 22.1701 8.22104ZM22.1703 7.97103C22.0214 7.97092 21.8774 8.02363 21.7638 8.11978L19.1675 10.3107C18.1708 11.2236 17.3909 12.3478 16.8848 13.601C16.3788 14.8542 16.1593 16.2048 16.2426 17.5538V21.8798C16.2427 22.0443 16.308 22.202 16.4243 22.3184C16.5407 22.4347 16.6984 22.5 16.8629 22.5H18.121C18.2025 22.5 18.2832 22.484 18.3585 22.4527C18.4338 22.4215 18.5022 22.3758 18.5598 22.3181C18.6174 22.2604 18.6631 22.1919 18.6942 22.1166C18.7253 22.0413 18.7413 21.9605 18.7412 21.879L18.7353 17.3694C18.6773 16.4058 18.8339 15.4413 19.1938 14.5455C19.5537 13.6497 20.1079 12.845 20.8166 12.1894L23.3883 10.0195C23.4522 9.96565 23.5047 9.89963 23.5428 9.82531C23.5809 9.75098 23.6039 9.66982 23.6104 9.58653C23.6169 9.50325 23.6068 9.41951 23.5806 9.34017C23.5545 9.26083 23.5129 9.18747 23.4581 9.12436L22.6469 8.18862C22.5877 8.12022 22.5145 8.06537 22.4322 8.02783C22.3499 7.99028 22.2607 7.9709 22.1703 7.97103Z" stroke="#2A5DFF" stroke-width="0.5"/>
</svg>
