<svg width="25" height="25" viewBox="0 0 25 25" fill="none" xmlns="http://www.w3.org/2000/svg">
<path d="M22.1951 8.24708C22.2497 8.24704 22.3037 8.25876 22.3533 8.28142C22.403 8.30408 22.4473 8.33716 22.483 8.37841L23.2943 9.31415C23.3273 9.35225 23.3524 9.39652 23.3682 9.44441C23.384 9.4923 23.3901 9.54285 23.3862 9.59312C23.3823 9.64338 23.3684 9.69237 23.3454 9.73724C23.3224 9.7821 23.2907 9.82196 23.2522 9.85448L20.6766 12.0275C19.9406 12.7061 19.3645 13.5397 18.9899 14.468C18.6152 15.3964 18.4514 16.3964 18.5103 17.3957L18.5162 21.9053C18.5162 21.954 18.5067 22.0022 18.4881 22.0472C18.4696 22.0921 18.4423 22.133 18.4079 22.1674C18.3735 22.2019 18.3327 22.2292 18.2878 22.2478C18.2428 22.2664 18.1946 22.276 18.146 22.276H16.8879C16.7897 22.2759 16.6956 22.2369 16.6262 22.1675C16.5568 22.098 16.5177 22.0039 16.5176 21.9057L16.5169 17.5605C16.4311 16.2504 16.6416 14.9379 17.1327 13.7204C17.6238 12.5029 18.3829 11.4116 19.3537 10.5278L21.9499 8.33684C22.0185 8.27894 22.1053 8.24716 22.1951 8.24708ZM22.1951 7.99706C22.0463 7.99694 21.9023 8.04966 21.7887 8.14581L19.1924 10.3367C18.1958 11.2496 17.4159 12.3738 16.9098 13.627C16.4037 14.8803 16.1843 16.2308 16.2676 17.5798V21.9058C16.2676 22.0703 16.333 22.2281 16.4493 22.3444C16.5656 22.4607 16.7234 22.526 16.8879 22.5261H18.146C18.2275 22.526 18.3082 22.51 18.3835 22.4788C18.4588 22.4475 18.5272 22.4018 18.5848 22.3441C18.6424 22.2864 18.6881 22.218 18.7192 22.1426C18.7503 22.0673 18.7663 21.9866 18.7662 21.905L18.7603 17.3954C18.7023 16.4318 18.8588 15.4673 19.2188 14.5715C19.5787 13.6757 20.1329 12.871 20.8416 12.2154L23.4133 10.0456C23.4771 9.9917 23.5296 9.92568 23.5678 9.85135C23.6059 9.77702 23.6289 9.69586 23.6354 9.61258C23.6419 9.52929 23.6318 9.44555 23.6056 9.3662C23.5795 9.28686 23.5378 9.2135 23.4831 9.15038L22.6719 8.21464C22.6127 8.14623 22.5395 8.09139 22.4572 8.05385C22.3749 8.0163 22.2856 7.99693 22.1951 7.99706ZM2.80491 8.22102C2.89468 8.22111 2.98153 8.2529 3.05013 8.3108L5.64263 10.4985C6.61619 11.3852 7.37716 12.48 7.86884 13.7016C8.36052 14.9231 8.57025 16.2399 8.4824 17.5538V21.8798C8.48227 21.978 8.44322 22.0721 8.37382 22.1415C8.30442 22.2109 8.21033 22.2499 8.11219 22.25H6.85403C6.80537 22.25 6.75719 22.2404 6.71224 22.2218C6.6673 22.2031 6.62647 22.1758 6.59209 22.1414C6.55771 22.107 6.53045 22.0661 6.51188 22.0211C6.49331 21.9762 6.48378 21.928 6.48385 21.8793L6.48857 17.3933C6.55016 16.3894 6.38747 15.3844 6.0123 14.4512C5.63714 13.5181 5.05892 12.6801 4.31961 11.9983L1.7479 9.82842C1.70937 9.79591 1.67768 9.75606 1.65468 9.71119C1.63167 9.66632 1.61781 9.61733 1.61389 9.56707C1.60997 9.5168 1.61608 9.46625 1.63185 9.41836C1.64763 9.37048 1.67276 9.3262 1.70579 9.2881L2.51704 8.35236C2.55281 8.31111 2.59704 8.27803 2.64672 8.25537C2.6964 8.23271 2.75031 8.22099 2.80491 8.22102ZM2.80498 7.97102C2.71453 7.97089 2.62511 7.99026 2.54283 8.02781C2.46054 8.06535 2.38731 8.1202 2.32814 8.1886L1.51689 9.12434C1.46217 9.18745 1.42053 9.26081 1.3944 9.34015C1.36826 9.41949 1.35815 9.50323 1.36464 9.58651C1.37114 9.6698 1.39411 9.75096 1.43223 9.82529C1.47035 9.89961 1.52286 9.96563 1.5867 10.0195L4.1584 12.1893C4.86702 12.8449 5.42129 13.6497 5.7812 14.5455C6.14111 15.4412 6.29769 16.4057 6.23965 17.3694L6.23378 21.879C6.23367 21.9605 6.24963 22.0412 6.28075 22.1166C6.31188 22.1919 6.35755 22.2604 6.41515 22.3181C6.47276 22.3758 6.54117 22.4215 6.61648 22.4527C6.69178 22.4839 6.77251 22.5 6.85403 22.5H8.11219C8.27667 22.5 8.43442 22.4347 8.55072 22.3183C8.66703 22.202 8.73237 22.0443 8.73238 21.8798V17.5538C8.81569 16.2048 8.59628 14.8542 8.09021 13.601C7.58415 12.3478 6.80424 11.2236 5.80758 10.3107L3.21133 8.11974C3.09773 8.02358 2.9538 7.97091 2.80498 7.97102ZM18.6411 10.4285L12.5115 2.5L6.38184 10.4285C6.31165 10.508 6.26954 10.6083 6.26199 10.7141C6.25444 10.8198 6.28187 10.9251 6.34006 11.0137C6.39824 11.1023 6.48395 11.1693 6.58398 11.2044C6.68401 11.2395 6.79281 11.2408 6.89361 11.208L10.5834 9.52828C10.6578 9.48051 10.7448 9.4559 10.8332 9.45754C10.9216 9.45919 11.0075 9.48703 11.0801 9.53753C11.1527 9.58803 11.2087 9.65893 11.2409 9.74125C11.2732 9.82357 11.2804 9.91362 11.2615 10V21.8706C11.2614 21.9533 11.2777 22.0351 11.3093 22.1115C11.341 22.1878 11.3873 22.2572 11.4458 22.3157C11.5042 22.3741 11.5736 22.4205 11.6499 22.4521C11.7263 22.4837 11.8081 22.5 11.8908 22.5H13.132C13.2147 22.5 13.2965 22.4837 13.3729 22.4521C13.4492 22.4205 13.5186 22.3741 13.5771 22.3157C13.6355 22.2572 13.6819 22.1879 13.7135 22.1115C13.7451 22.0351 13.7614 21.9533 13.7614 21.8706V10C13.7425 9.91362 13.7496 9.82357 13.7819 9.74124C13.8142 9.65891 13.8701 9.58801 13.9427 9.53751C14.0153 9.48701 14.1013 9.45917 14.1897 9.45753C14.2781 9.45589 14.365 9.48051 14.4394 9.52828L18.1292 11.208C18.23 11.2408 18.3388 11.2396 18.4389 11.2045C18.5389 11.1694 18.6246 11.1023 18.6828 11.0137C18.741 10.9251 18.7684 10.8198 18.7609 10.7141C18.7533 10.6083 18.7113 10.508 18.6411 10.4285Z" fill="#2A5DFF" stroke="#2A5DFF" stroke-width="0.5"/>
</svg>
