<svg width="25" height="25" viewBox="0 0 25 25" fill="none" xmlns="http://www.w3.org/2000/svg">
<path d="M19.6951 8.22102C19.7497 8.221 19.8037 8.23271 19.8533 8.25537C19.903 8.27803 19.9472 8.31111 19.983 8.35236L20.7943 9.2881C20.8273 9.3262 20.8524 9.37048 20.8682 9.41836C20.884 9.46625 20.8901 9.5168 20.8862 9.56707C20.8823 9.61733 20.8684 9.66632 20.8454 9.71119C20.8224 9.75606 20.7907 9.79591 20.7522 9.82842L18.1766 12.0015C17.4406 12.6801 16.8645 13.5137 16.4899 14.442C16.1152 15.3704 15.9514 16.3704 16.0103 17.3697L16.0162 21.8793C16.0162 21.928 16.0067 21.9762 15.9881 22.0212C15.9696 22.0661 15.9423 22.107 15.9079 22.1414C15.8735 22.1758 15.8327 22.2032 15.7878 22.2218C15.7428 22.2404 15.6946 22.25 15.646 22.25H14.3879C14.2897 22.2499 14.1956 22.2109 14.1262 22.1414C14.0568 22.072 14.0177 21.9779 14.0176 21.8797L14.0169 17.5344C13.9311 16.2244 14.1416 14.9119 14.6327 13.6943C15.1238 12.4768 15.8829 11.3856 16.8537 10.5017L19.4499 8.31079C19.5185 8.25289 19.6053 8.22111 19.6951 8.22102ZM19.6951 7.97101C19.5463 7.97089 19.4023 8.02361 19.2887 8.11976L16.6924 10.3107C15.6958 11.2236 14.9159 12.3478 14.4098 13.601C13.9037 14.8542 13.6843 16.2048 13.7676 17.5538V21.8798C13.7676 22.0443 13.833 22.202 13.9493 22.3183C14.0656 22.4347 14.2234 22.5 14.3879 22.5H15.646C15.7275 22.5 15.8082 22.4839 15.8835 22.4527C15.9588 22.4215 16.0272 22.3757 16.0848 22.3181C16.1424 22.2604 16.1881 22.1919 16.2192 22.1166C16.2503 22.0412 16.2663 21.9605 16.2662 21.879L16.2603 17.3694C16.2022 16.4058 16.3588 15.4413 16.7187 14.5455C17.0787 13.6497 17.6329 12.8449 18.3415 12.1893L20.9133 10.0195C20.9772 9.96563 21.0297 9.89961 21.0678 9.82528C21.1059 9.75095 21.1289 9.66979 21.1354 9.58651C21.1419 9.50323 21.1317 9.41949 21.1056 9.34015C21.0795 9.26081 21.0378 9.18746 20.9831 9.12434L20.1719 8.1886C20.1127 8.1202 20.0395 8.06535 19.9572 8.02781C19.8749 7.99026 19.7856 7.97088 19.6951 7.97101ZM13.3076 10.3106L10.2357 7.71835C10.1581 7.67605 10.0947 7.61166 10.0537 7.53334C10.0126 7.45501 9.99571 7.36627 10.0051 7.27834C10.0145 7.19041 10.0498 7.10724 10.1064 7.03936C10.1631 6.97147 10.2386 6.92192 10.3235 6.89698L14.0096 5.20927C14.1004 5.15461 14.1708 5.07159 14.2098 4.97303C14.2488 4.87446 14.2543 4.7658 14.2254 4.6638C14.1966 4.56179 14.135 4.4721 14.0502 4.40854C13.9653 4.34498 13.8619 4.31108 13.7559 4.31206L3.75 3.75L5.72555 13.575C5.73962 13.6801 5.78784 13.7776 5.8628 13.8526C5.93775 13.9275 6.03528 13.9758 6.14035 13.9899C6.24542 14.004 6.35221 13.9831 6.44426 13.9305C6.53632 13.8779 6.60853 13.7966 6.64978 13.6989L7.7975 9.81064C7.81015 9.72311 7.84849 9.64131 7.90765 9.57558C7.96681 9.50985 8.04414 9.46315 8.12985 9.44138C8.21557 9.41961 8.30581 9.42376 8.38917 9.4533C8.47252 9.48283 8.54524 9.53643 8.59812 9.60731L11.6584 12.1893C12.367 12.8449 12.9213 13.6496 13.2812 14.5454C13.6411 15.4412 13.7977 16.4057 13.7397 17.3693L13.7338 21.8789C13.7337 21.9604 13.7496 22.0412 13.7807 22.1165C13.8118 22.1919 13.8575 22.2604 13.9151 22.3181C13.9727 22.3757 14.0411 22.4215 14.1165 22.4527C14.1918 22.4839 14.2725 22.5 14.354 22.5H15.6122C15.7767 22.5 15.9344 22.4346 16.0507 22.3183C16.167 22.202 16.2324 22.0442 16.2324 21.8797V17.5538C16.3157 16.2048 16.0963 14.8542 15.5902 13.601C15.0841 12.3478 14.3043 11.2235 13.3076 10.3106Z" fill="#2A5DFF" stroke="#2A5DFF" stroke-width="0.5"/>
</svg>
