<svg width="25" height="25" viewBox="0 0 25 25" fill="none" xmlns="http://www.w3.org/2000/svg">
<path d="M5.33581 8.22102C5.42557 8.22111 5.51242 8.2529 5.58102 8.3108L8.17352 10.4985C9.14708 11.3852 9.90805 12.48 10.3997 13.7016C10.8914 14.9231 11.1011 16.2399 11.0133 17.5538V21.8798C11.0132 21.978 10.9741 22.0721 10.9047 22.1415C10.8353 22.2109 10.7412 22.2499 10.6431 22.25H9.38491C9.33625 22.25 9.28807 22.2404 9.24312 22.2218C9.19818 22.2031 9.15735 22.1758 9.12297 22.1414C9.08858 22.107 9.06133 22.0661 9.04276 22.0211C9.02418 21.9762 9.01466 21.928 9.01473 21.8793L9.01947 17.3933C9.08105 16.3894 8.91836 15.3844 8.5432 14.4512C8.16804 13.5181 7.58982 12.6801 6.85051 11.9983L4.27874 9.82842C4.24021 9.79591 4.20851 9.75606 4.1855 9.7112C4.16249 9.66633 4.14862 9.61734 4.1447 9.56708C4.14078 9.51681 4.14688 9.46626 4.16266 9.41837C4.17843 9.37048 4.20356 9.3262 4.23659 9.2881L5.04784 8.35236C5.08362 8.31111 5.12784 8.27803 5.17752 8.25537C5.2272 8.23271 5.2812 8.22099 5.33581 8.22102ZM5.33578 7.97102C5.24533 7.97089 5.15592 7.99026 5.07363 8.02781C4.99135 8.06535 4.91812 8.1202 4.85894 8.1886L4.04769 9.12434C3.99298 9.18746 3.95134 9.26082 3.92521 9.34016C3.89908 9.4195 3.88897 9.50324 3.89547 9.58652C3.90196 9.6698 3.92494 9.75096 3.96307 9.82529C4.00119 9.89962 4.0537 9.96563 4.11754 10.0195L6.68929 12.1893C7.39792 12.8449 7.95218 13.6497 8.31209 14.5455C8.672 15.4412 8.82859 16.4057 8.77054 17.3694L8.76467 21.879C8.76456 21.9605 8.78052 22.0412 8.81164 22.1166C8.84276 22.1919 8.88843 22.2604 8.94604 22.3181C9.00364 22.3758 9.07205 22.4215 9.14736 22.4527C9.22267 22.4839 9.30339 22.5 9.38491 22.5H10.6431C10.8076 22.5 10.9653 22.4347 11.0816 22.3183C11.1979 22.202 11.2633 22.0443 11.2633 21.8798V17.5538C11.3466 16.2048 11.1272 14.8542 10.6211 13.601C10.115 12.3478 9.33514 11.2236 8.33847 10.3107L5.74222 8.11974C5.62863 8.02358 5.48461 7.97091 5.33578 7.97102ZM8.76762 17.5538V21.8798C8.76763 22.0443 8.83297 22.202 8.94928 22.3183C9.06558 22.4346 9.22332 22.5 9.38781 22.5H10.646C10.7275 22.5 10.8082 22.4839 10.8835 22.4527C10.9588 22.4215 11.0272 22.3757 11.0848 22.3181C11.1424 22.2604 11.1881 22.1919 11.2192 22.1166C11.2503 22.0412 11.2663 21.9605 11.2662 21.879L11.2603 17.3694C11.2023 16.4057 11.3588 15.4412 11.7187 14.5455C12.0787 13.6497 12.6329 12.845 13.3415 12.1894L16.4018 9.60736C16.4546 9.53648 16.5274 9.48288 16.6107 9.45335C16.6941 9.42381 16.7843 9.41966 16.87 9.44143C16.9557 9.4632 17.0331 9.5099 17.0922 9.57563C17.1514 9.64136 17.1897 9.72316 17.2024 9.81069L18.3501 13.6989C18.3914 13.7966 18.4636 13.8781 18.5557 13.9307C18.6477 13.9833 18.7545 14.0041 18.8596 13.99C18.9647 13.9759 19.0623 13.9277 19.1372 13.8527C19.2122 13.7777 19.2604 13.6801 19.2744 13.575L21.25 3.75L11.244 4.31206C11.138 4.31108 11.0347 4.34498 10.9498 4.40854C10.865 4.4721 10.8034 4.56179 10.7746 4.6638C10.7457 4.7658 10.7512 4.87446 10.7902 4.97303C10.8292 5.07159 10.8996 5.15461 10.9904 5.20927L14.6765 6.89698C14.7613 6.92192 14.8369 6.97147 14.8935 7.03936C14.9502 7.10724 14.9855 7.19041 14.9949 7.27834C15.0043 7.36627 14.9874 7.45501 14.9463 7.53334C14.9053 7.61166 14.8419 7.67605 14.7642 7.71835L11.6924 10.3107C10.6958 11.2236 9.91584 12.3478 9.40978 13.601C8.90372 14.8542 8.68431 16.2048 8.76762 17.5538Z" fill="#2A5DFF" stroke="#2A5DFF" stroke-width="0.5"/>
</svg>
