<svg width="25" height="25" viewBox="0 0 25 25" fill="none" xmlns="http://www.w3.org/2000/svg">
<path d="M21.2614 10V21.8706C21.2614 21.9533 21.2451 22.0351 21.2135 22.1115C21.1818 22.1878 21.1355 22.2572 21.077 22.3157C21.0186 22.3741 20.9492 22.4205 20.8729 22.4521C20.7965 22.4837 20.7147 22.5 20.632 22.5H19.3908C19.3081 22.5 19.2263 22.4837 19.1499 22.4521C19.0736 22.4205 19.0042 22.3741 18.9458 22.3157C18.8873 22.2572 18.841 22.1879 18.8093 22.1115C18.7777 22.0351 18.7614 21.9533 18.7614 21.8706V10C18.7614 8.83968 18.3005 7.72688 17.48 6.90641C16.6595 6.08594 15.5467 5.625 14.3864 5.625C13.2261 5.625 12.1133 6.08594 11.2928 6.90641C10.4724 7.72688 10.0114 8.83968 10.0114 10V15H10C9.9811 15.0864 9.98824 15.1764 10.0205 15.2587C10.0528 15.3411 10.1088 15.412 10.1814 15.4625C10.2539 15.513 10.3399 15.5408 10.4283 15.5424C10.5167 15.5441 10.6036 15.5195 10.678 15.4717L14.3678 13.792C14.4686 13.7592 14.5774 13.7605 14.6774 13.7956C14.7775 13.8307 14.8632 13.8977 14.9214 13.9863C14.9795 14.0749 15.007 14.1802 14.9994 14.286C14.9919 14.3917 14.9498 14.492 14.8796 14.5715L8.75 22.5L2.62031 14.5715C2.55014 14.492 2.50804 14.3917 2.50049 14.286C2.49295 14.1802 2.52038 14.0749 2.57856 13.9863C2.63675 13.8977 2.72245 13.8307 2.82247 13.7956C2.9225 13.7605 3.03129 13.7592 3.13209 13.792L6.82189 15.4717C6.89631 15.5195 6.98323 15.5441 7.07164 15.5425C7.16006 15.5408 7.246 15.513 7.31859 15.4625C7.39119 15.412 7.44717 15.3411 7.47946 15.2588C7.51175 15.1764 7.5189 15.0864 7.5 15H7.51136V10C7.51136 8.17664 8.23569 6.42795 9.525 5.13864C10.8143 3.84933 12.563 3.125 14.3864 3.125C16.2097 3.125 17.9584 3.84933 19.2477 5.13864C20.537 6.42795 21.2614 8.17664 21.2614 10Z" fill="#2A5DFF" stroke="#2A5DFF" stroke-width="0.5"/>
</svg>
