<svg width="25" height="25" viewBox="0 0 25 25" fill="none" xmlns="http://www.w3.org/2000/svg">
<path d="M9.75 9V21.8782C9.74989 21.9767 9.71068 22.0713 9.64097 22.141C9.57126 22.2107 9.47675 22.2499 9.37816 22.25H8.12184C8.02325 22.2499 7.92873 22.2107 7.85902 22.141C7.78931 22.0713 7.7501 21.9767 7.75 21.8782V9H9.75ZM10 8.75H7.5V21.8782C7.5 21.9598 7.51608 22.0407 7.54733 22.1161C7.57858 22.1916 7.62438 22.2601 7.68213 22.3179C7.73987 22.3756 7.80842 22.4214 7.88387 22.4527C7.95931 22.4839 8.04017 22.5 8.12184 22.5H9.37816C9.45982 22.5 9.54069 22.4839 9.61613 22.4527C9.69158 22.4214 9.76013 22.3756 9.81787 22.3179C9.87561 22.2601 9.92142 22.1916 9.95267 22.1161C9.98392 22.0407 10 21.9598 10 21.8782V8.75ZM9.97711 12.5V10.0156C9.95821 9.92918 9.96536 9.83913 9.99765 9.7568C10.0299 9.67448 10.0859 9.60359 10.1585 9.55309C10.2311 9.50259 10.317 9.47476 10.4055 9.47311C10.4939 9.47146 10.5808 9.49608 10.6552 9.54384L14.345 11.2235C14.4458 11.2563 14.5546 11.2551 14.6546 11.22C14.7547 11.1849 14.8404 11.1179 14.8986 11.0293C14.9567 10.9406 14.9842 10.8354 14.9766 10.7296C14.9691 10.6239 14.927 10.5236 14.8568 10.4441L8.75 2.51038L2.5975 10.4441C2.52731 10.5236 2.4852 10.6239 2.47765 10.7296C2.4701 10.8354 2.49753 10.9407 2.55572 11.0293C2.6139 11.1179 2.69962 11.1849 2.79964 11.22C2.89967 11.2551 3.00847 11.2564 3.10927 11.2236L6.79909 9.54384C6.8735 9.49608 6.96042 9.47147 7.04882 9.47312C7.13723 9.47477 7.22316 9.50261 7.29575 9.55311C7.36833 9.60361 7.42431 9.6745 7.45659 9.75682C7.48887 9.83914 7.49602 9.92918 7.47711 10.0156V12.5H7.47482L7.47711 12.5138C7.50056 14.5102 8.31124 16.4167 9.73286 17.8186C11.1545 19.2205 13.0721 20.0044 15.0687 20H20V19.9961L21.879 19.9986C21.9605 19.9987 22.0412 19.9828 22.1166 19.9516C22.1919 19.9205 22.2604 19.8749 22.3181 19.8172C22.3758 19.7596 22.4215 19.6912 22.4527 19.6159C22.4839 19.5406 22.5 19.4599 22.5 19.3784V18.1203C22.5 17.9558 22.4346 17.798 22.3183 17.6817C22.202 17.5654 22.0442 17.5 21.8797 17.5H15.0687C13.7349 17.5053 12.4527 16.985 11.4998 16.0518C10.5468 15.1186 9.9998 13.8476 9.97711 12.514V12.5Z" fill="#2A5DFF" stroke="#2A5DFF" stroke-width="0.5"/>
</svg>
