<svg width="25" height="25" viewBox="0 0 25 25" fill="none" xmlns="http://www.w3.org/2000/svg">
<path d="M17.25 9V21.874C17.2499 21.9737 17.2102 22.0693 17.1398 22.1398C17.0693 22.2103 16.9737 22.2499 16.874 22.25H15.626C15.5263 22.2499 15.4307 22.2103 15.3602 22.1398C15.2898 22.0693 15.2501 21.9737 15.25 21.874V9H17.25ZM17.5 8.75H15V21.874C15 22.04 15.066 22.1993 15.1833 22.3167C15.3007 22.434 15.46 22.5 15.626 22.5H16.874C16.9562 22.5 17.0376 22.4838 17.1136 22.4524C17.1895 22.4209 17.2585 22.3748 17.3166 22.3167C17.3748 22.2585 17.4209 22.1895 17.4523 22.1136C17.4838 22.0376 17.5 21.9562 17.5 21.874V8.75ZM17.5229 12.5V10.0156C17.504 9.92918 17.5111 9.83914 17.5434 9.75682C17.5757 9.6745 17.6317 9.60361 17.7043 9.55311C17.7768 9.50261 17.8628 9.47477 17.9512 9.47312C18.0396 9.47147 18.1265 9.49608 18.2009 9.54384L21.8907 11.2235C21.9915 11.2563 22.1003 11.2551 22.2003 11.22C22.3004 11.1849 22.3861 11.1179 22.4443 11.0293C22.5025 10.9407 22.5299 10.8354 22.5223 10.7296C22.5148 10.6239 22.4727 10.5236 22.4025 10.4441L16.25 2.51038L10.1432 10.4441C10.073 10.5236 10.0309 10.6239 10.0234 10.7296C10.0158 10.8354 10.0432 10.9407 10.1014 11.0293C10.1596 11.1179 10.2453 11.1849 10.3453 11.22C10.4454 11.2551 10.5542 11.2564 10.655 11.2236L14.3448 9.54386C14.4192 9.4961 14.5061 9.47149 14.5945 9.47313C14.6829 9.47478 14.7689 9.50261 14.8415 9.55311C14.9141 9.60361 14.97 9.67451 15.0023 9.75683C15.0346 9.83915 15.0418 9.9292 15.0229 10.0156V12.5141C15.0002 13.8476 14.4531 15.1186 13.5002 16.0518C12.5472 16.985 11.2651 17.5053 9.93134 17.5H3.12028C2.95577 17.5 2.798 17.5654 2.68167 17.6817C2.56535 17.798 2.5 17.9558 2.5 18.1203V19.3784C2.5 19.4599 2.51607 19.5406 2.54729 19.6159C2.57851 19.6912 2.62427 19.7596 2.68195 19.8172C2.73963 19.8748 2.8081 19.9205 2.88344 19.9516C2.95878 19.9827 3.03952 19.9987 3.12104 19.9986L5 19.9961V20H9.93134C11.9279 20.0044 13.8455 19.2205 15.2671 17.8186C16.6888 16.4167 17.4994 14.5102 17.5229 12.5138L17.5252 12.5" fill="#2A5DFF"/>
<path d="M17.5229 12.5V10.0156C17.504 9.92919 17.5111 9.83914 17.5434 9.75682C17.5757 9.6745 17.6317 9.60361 17.7043 9.55311C17.7768 9.50261 17.8628 9.47477 17.9512 9.47312C18.0396 9.47147 18.1265 9.49608 18.2009 9.54384L21.8907 11.2235C21.9915 11.2563 22.1003 11.2551 22.2003 11.22C22.3004 11.1849 22.3861 11.1179 22.4443 11.0293C22.5025 10.9407 22.5299 10.8354 22.5223 10.7296C22.5148 10.6239 22.4727 10.5236 22.4025 10.4441L16.25 2.51038L10.1432 10.4441C10.073 10.5236 10.0309 10.6239 10.0234 10.7296C10.0158 10.8354 10.0432 10.9407 10.1014 11.0293C10.1596 11.1179 10.2453 11.1849 10.3453 11.22C10.4454 11.2551 10.5542 11.2564 10.655 11.2236L14.3448 9.54386C14.4192 9.4961 14.5061 9.47149 14.5945 9.47313C14.6829 9.47478 14.7689 9.50261 14.8415 9.55311C14.9141 9.60361 14.97 9.67451 15.0023 9.75683C15.0346 9.83915 15.0418 9.9292 15.0229 10.0156V12.5141C15.0002 13.8476 14.4531 15.1186 13.5002 16.0518C12.5472 16.985 11.2651 17.5053 9.93134 17.5H3.12028C2.95577 17.5 2.798 17.5654 2.68167 17.6817C2.56535 17.798 2.5 17.9558 2.5 18.1203V19.3784C2.5 19.4599 2.51607 19.5406 2.54729 19.6159C2.57851 19.6912 2.62427 19.7596 2.68195 19.8172C2.73963 19.8748 2.8081 19.9205 2.88344 19.9516C2.95878 19.9827 3.03952 19.9987 3.12104 19.9986L5 19.9961V20H9.93134C11.9279 20.0044 13.8455 19.2205 15.2671 17.8186C16.6888 16.4167 17.4994 14.5102 17.5229 12.5138L17.5252 12.5M17.25 9V21.874C17.2499 21.9737 17.2102 22.0693 17.1398 22.1398C17.0693 22.2103 16.9737 22.2499 16.874 22.25H15.626C15.5263 22.2499 15.4307 22.2103 15.3602 22.1398C15.2898 22.0693 15.2501 21.9737 15.25 21.874V9H17.25ZM17.5 8.75H15V21.874C15 22.04 15.066 22.1993 15.1833 22.3167C15.3007 22.434 15.46 22.5 15.626 22.5H16.874C16.9562 22.5 17.0376 22.4838 17.1136 22.4524C17.1895 22.4209 17.2585 22.3748 17.3166 22.3167C17.3748 22.2585 17.4209 22.1895 17.4523 22.1136C17.4838 22.0376 17.5 21.9562 17.5 21.874V8.75Z" stroke="#2A5DFF" stroke-width="0.5"/>
</svg>
