<svg width="25" height="25" viewBox="0 0 25 25" fill="none" xmlns="http://www.w3.org/2000/svg">
<path d="M14.7403 11.5V21.869C14.7402 21.97 14.7 22.0668 14.6285 22.1383C14.5571 22.2097 14.4602 22.2499 14.3592 22.25H13.1213C13.0203 22.2499 12.9235 22.2097 12.852 22.1383C12.7806 22.0668 12.7404 21.97 12.7403 21.869V11.5H14.7403ZM14.9903 11.25H12.4903V21.869C12.4903 21.9518 12.5066 22.0339 12.5383 22.1105C12.57 22.187 12.6165 22.2566 12.6751 22.3152C12.7337 22.3738 12.8033 22.4203 12.8798 22.452C12.9564 22.4837 13.0385 22.5 13.1213 22.5H14.3592C14.5266 22.5 14.6871 22.4335 14.8054 22.3152C14.9238 22.1968 14.9903 22.0363 14.9903 21.869L14.9903 11.25ZM19.8879 9.16994L13.7582 1.24139L7.62855 9.16994C7.55837 9.24939 7.51625 9.34972 7.50871 9.45546C7.50116 9.5612 7.52859 9.66649 7.58677 9.75511C7.64496 9.84372 7.73067 9.91074 7.8307 9.94585C7.93073 9.98095 8.03953 9.98219 8.14033 9.94937L11.8301 8.26967C11.9044 8.22197 11.9911 8.19735 12.0794 8.19891C12.1676 8.20047 12.2534 8.22814 12.3259 8.27843C12.3984 8.32872 12.4544 8.39937 12.4868 8.48146C12.5192 8.56355 12.5266 8.65341 12.5079 8.73967L12.51 11.2848C12.4785 12.3052 12.1791 13.2994 11.642 14.1676C11.1048 15.0358 10.3488 15.7474 9.4497 16.2311L4.06863 19.5834C3.99856 19.627 3.93778 19.684 3.88975 19.7512C3.84172 19.8183 3.80739 19.8943 3.78871 19.9747C3.77004 20.0551 3.76738 20.1384 3.7809 20.2198C3.79443 20.3013 3.82386 20.3792 3.86751 20.4493L4.52471 21.5039C4.56835 21.574 4.62537 21.6347 4.69249 21.6828C4.75962 21.7308 4.83556 21.7651 4.91595 21.7838C4.99635 21.8025 5.07964 21.8051 5.16106 21.7916C5.24249 21.7781 5.32045 21.7487 5.3905 21.705L10.779 18.3484C12.0531 17.6369 13.1156 16.6002 13.8584 15.3441C14.6011 14.088 14.9974 12.6574 15.0069 11.1981V8.74139C14.988 8.65501 14.9964 8.56496 15.0287 8.48263C15.061 8.4003 15.117 8.32941 15.1896 8.2789C15.2621 8.2284 15.3481 8.20057 15.4365 8.19893C15.5249 8.19728 15.6118 8.2219 15.6863 8.26967L19.3761 9.94936C19.4769 9.98218 19.5857 9.98095 19.6857 9.94585C19.7857 9.91075 19.8714 9.84373 19.9296 9.75511C19.9878 9.6665 20.0152 9.56121 20.0077 9.45547C20.0001 9.34972 19.958 9.2494 19.8879 9.16994Z" fill="#2A5DFF" stroke="#2A5DFF" stroke-width="0.5"/>
</svg>
