<svg width="25" height="25" viewBox="0 0 25 25" fill="none" xmlns="http://www.w3.org/2000/svg">
<path d="M12.2821 11.5V21.869C12.2819 21.97 12.2418 22.0668 12.1703 22.1383C12.0989 22.2097 12.002 22.2499 11.901 22.25H10.6631C10.5621 22.2499 10.4653 22.2097 10.3938 22.1383C10.3224 22.0668 10.2822 21.97 10.2821 21.8689V11.5H12.2821ZM12.5321 11.25H10.0321V21.869C10.0321 21.9518 10.0484 22.0339 10.0801 22.1105C10.1118 22.187 10.1583 22.2566 10.2169 22.3152C10.2755 22.3738 10.3451 22.4203 10.4217 22.452C10.4982 22.4837 10.5803 22.5 10.6631 22.5H11.901C12.0684 22.5 12.2289 22.4335 12.3472 22.3152C12.4656 22.1968 12.5321 22.0363 12.5321 21.869L12.5321 11.25ZM5.64625 9.94936L9.33606 8.26967C9.41048 8.22191 9.49739 8.1973 9.5858 8.19895C9.6742 8.2006 9.76014 8.22844 9.83272 8.27894C9.9053 8.32944 9.96128 8.40033 9.99356 8.48265C10.0258 8.56497 10.033 8.65501 10.0141 8.74139H10.0153V11.1981C10.0249 12.6574 10.4212 14.088 11.1639 15.3441C11.9066 16.6002 12.9692 17.6369 14.2432 18.3484L19.6318 21.705C19.7019 21.7487 19.7798 21.7781 19.8613 21.7916C19.9427 21.8051 20.026 21.8025 20.1064 21.7838C20.1868 21.7651 20.2627 21.7308 20.3298 21.6828C20.397 21.6347 20.454 21.574 20.4976 21.5039L21.1548 20.4493C21.1985 20.3792 21.2279 20.3013 21.2414 20.2198C21.255 20.1384 21.2523 20.0551 21.2336 19.9747C21.2149 19.8943 21.1806 19.8183 21.1326 19.7512C21.0846 19.684 21.0238 19.627 20.9537 19.5834L15.5726 16.2311C14.6736 15.7475 13.9175 15.0358 13.3804 14.1677C12.8432 13.2995 12.5439 12.3053 12.5123 11.2849L12.5144 8.73977C12.4958 8.6535 12.5031 8.56365 12.5355 8.48156C12.5679 8.39947 12.6239 8.32882 12.6964 8.27853C12.769 8.22824 12.8548 8.20057 12.943 8.19901C13.0312 8.19745 13.118 8.22207 13.1922 8.26977L16.882 9.94946C16.9828 9.9823 17.0916 9.98107 17.1917 9.94596C17.2917 9.91085 17.3775 9.84381 17.4356 9.75518C17.4938 9.66654 17.5212 9.56123 17.5137 9.45547C17.5061 9.34972 17.464 9.24939 17.3937 9.16994L11.2641 1.24139L5.13447 9.16994C5.06429 9.24939 5.02219 9.34972 5.01464 9.45546C5.00709 9.56119 5.03452 9.66648 5.09271 9.75509C5.15089 9.8437 5.2366 9.91072 5.33663 9.94583C5.43665 9.98093 5.54545 9.98217 5.64625 9.94936Z" fill="#2A5DFF" stroke="#2A5DFF" stroke-width="0.5"/>
</svg>
