<svg width="25" height="25" viewBox="0 0 25 25" fill="none" xmlns="http://www.w3.org/2000/svg">
<path d="M4.37236 22.5C4.29064 22.5 4.20973 22.4839 4.13423 22.4526C4.05874 22.4214 3.99014 22.3755 3.93236 22.3177C3.87458 22.26 3.82875 22.1914 3.79748 22.1159C3.76621 22.0404 3.75012 21.9594 3.75012 21.8777L3.75071 6.28662C3.73961 5.61121 3.989 4.95747 4.44712 4.46106C4.68093 4.22559 4.96081 4.0409 5.26926 3.91855C5.5777 3.7962 5.90808 3.73882 6.23972 3.75L6.56992 3.7475C7.34426 3.69791 8.12042 3.81028 8.8489 4.07742C9.57738 4.34457 10.2422 4.76064 10.8009 5.29907L17.541 11.0604L17.5457 11.0549C17.5996 11.1249 17.6731 11.1775 17.7569 11.2058C17.8407 11.2341 17.931 11.2369 18.0164 11.2139C18.1017 11.1908 18.1784 11.143 18.2365 11.0764C18.2947 11.0098 18.3319 10.9275 18.3432 10.8398L19.4338 6.93513C19.4736 6.83688 19.5446 6.75444 19.6359 6.70052C19.7272 6.64659 19.8336 6.62417 19.9389 6.6367C20.0442 6.64923 20.1424 6.69603 20.2184 6.76988C20.2945 6.84373 20.3441 6.94054 20.3597 7.04538L22.4793 16.8404L12.4662 16.4253C12.3603 16.4278 12.2564 16.3954 12.1707 16.3331C12.0849 16.2708 12.022 16.182 11.9917 16.0805C11.9613 15.9789 11.9652 15.8702 12.0028 15.771C12.0403 15.6719 12.1094 15.5879 12.1994 15.5319L15.8604 13.7902C15.941 13.766 16.0129 13.719 16.0674 13.6549C16.1219 13.5907 16.1567 13.5122 16.1676 13.4288C16.1785 13.3453 16.165 13.2605 16.1288 13.1845C16.0926 13.1085 16.0352 13.0446 15.9636 13.0005L9.21946 7.2345C8.88577 6.88271 8.47671 6.61109 8.02299 6.44006C7.56928 6.26903 7.08271 6.20302 6.59983 6.247L6.2501 6.25493V21.8778C6.25008 22.0428 6.18452 22.2011 6.06783 22.3178C5.95114 22.4344 5.79288 22.5 5.62786 22.5H4.37236Z" fill="#2A5DFF" stroke="#2A5DFF" stroke-width="0.5"/>
</svg>
