<svg width="25" height="25" viewBox="0 0 25 25" fill="none" xmlns="http://www.w3.org/2000/svg">
<path d="M19.3721 22.5C19.2071 22.5 19.0488 22.4344 18.9321 22.3177C18.8155 22.2011 18.7499 22.0428 18.7499 21.8778V6.25488L18.4002 6.24695C17.9173 6.20297 17.4307 6.26898 16.977 6.44001C16.5233 6.61104 16.1142 6.88266 15.7805 7.23445L9.03646 13.0005C8.96479 13.0446 8.90739 13.1085 8.8712 13.1845C8.835 13.2605 8.82154 13.3453 8.83244 13.4288C8.84334 13.5122 8.87814 13.5907 8.93264 13.6549C8.98713 13.719 9.05901 13.766 9.13961 13.7902L12.8006 15.5319C12.8906 15.5879 12.9597 15.6719 12.9972 15.771C13.0348 15.8701 13.0387 15.9789 13.0083 16.0804C12.978 16.182 12.9151 16.2708 12.8294 16.3331C12.7436 16.3954 12.6397 16.4278 12.5338 16.4253L2.52065 16.8404L4.64024 7.04537C4.65586 6.94052 4.70552 6.84372 4.78157 6.76987C4.85761 6.69602 4.95583 6.64922 5.0611 6.63669C5.16636 6.62415 5.27282 6.64658 5.36408 6.7005C5.45535 6.75443 5.52635 6.83687 5.56614 6.93512L6.65677 10.8398C6.66814 10.9275 6.70527 11.0098 6.76345 11.0764C6.82164 11.143 6.89826 11.1908 6.98364 11.2138C7.06902 11.2369 7.1593 11.234 7.24308 11.2057C7.32685 11.1774 7.40035 11.1249 7.45427 11.0548L7.45899 11.0604L14.1991 5.29907C14.7578 4.76064 15.4226 4.34457 16.1511 4.07742C16.8796 3.81028 17.6557 3.69791 18.4301 3.7475L18.7603 3.75C19.0919 3.73882 19.4223 3.7962 19.7307 3.91855C20.0392 4.0409 20.3191 4.22559 20.5529 4.46106C21.011 4.95747 21.2604 5.61121 21.2493 6.28662L21.2499 21.8777C21.2499 21.9594 21.2338 22.0404 21.2025 22.1159C21.1712 22.1914 21.1254 22.26 21.0676 22.3177C21.0098 22.3755 20.9413 22.4214 20.8658 22.4526C20.7903 22.4839 20.7093 22.5 20.6276 22.5H19.3721Z" fill="#2A5DFF" stroke="#2A5DFF" stroke-width="0.5"/>
</svg>
