<svg width="25" height="25" viewBox="0 0 25 25" fill="none" xmlns="http://www.w3.org/2000/svg">
<path d="M12.5 7.47484L12.5138 7.47713C14.5102 7.50058 16.4167 8.31126 17.8186 9.73288C19.2205 11.1545 20.0044 13.0721 20 15.0687V20H19.9961L19.9986 21.879C19.9987 21.9605 19.9828 22.0412 19.9516 22.1166C19.9205 22.1919 19.8749 22.2604 19.8172 22.3181C19.7596 22.3758 19.6912 22.4215 19.6159 22.4527C19.5406 22.484 19.4599 22.5 19.3784 22.5H18.1203C17.9558 22.5 17.798 22.4347 17.6817 22.3183C17.5654 22.202 17.5 22.0442 17.5 21.8797V15.0687C17.5053 13.7349 16.985 12.4528 16.0518 11.4998C15.1186 10.5469 13.8476 9.99981 12.514 9.97713H10.0156C9.92918 9.95823 9.83913 9.96538 9.7568 9.99767C9.67448 10.03 9.60359 10.0859 9.55309 10.1585C9.50259 10.2311 9.47476 10.3171 9.47311 10.4055C9.47146 10.4939 9.49608 10.5808 9.54384 10.6552L11.2235 14.345C11.2563 14.4458 11.2551 14.5546 11.22 14.6546C11.1849 14.7547 11.1179 14.8404 11.0293 14.8986C10.9406 14.9568 10.8354 14.9842 10.7296 14.9766C10.6239 14.9691 10.5236 14.927 10.4441 14.8568L2.51038 8.75001L10.4441 2.59751C10.5236 2.52733 10.6239 2.48522 10.7296 2.47767C10.8354 2.47012 10.9407 2.49755 11.0293 2.55573C11.1179 2.61392 11.1849 2.69963 11.22 2.79966C11.2551 2.89969 11.2564 3.00849 11.2236 3.10929L9.54384 6.7991C9.49608 6.87352 9.47147 6.96043 9.47312 7.04884C9.47477 7.13725 9.50261 7.22318 9.55311 7.29576C9.60361 7.36835 9.6745 7.42432 9.75682 7.45661C9.83914 7.48889 9.92918 7.49603 10.0156 7.47713H12.5" fill="#2A5DFF"/>
<path d="M12.5 7.47484L12.5138 7.47713C14.5102 7.50058 16.4167 8.31126 17.8186 9.73288C19.2205 11.1545 20.0044 13.0721 20 15.0687V20H19.9961L19.9986 21.879C19.9987 21.9605 19.9828 22.0412 19.9516 22.1166C19.9205 22.1919 19.8749 22.2604 19.8172 22.3181C19.7596 22.3758 19.6912 22.4215 19.6159 22.4527C19.5406 22.484 19.4599 22.5 19.3784 22.5H18.1203C17.9558 22.5 17.798 22.4347 17.6817 22.3183C17.5654 22.202 17.5 22.0442 17.5 21.8797V15.0687C17.5053 13.7349 16.985 12.4528 16.0518 11.4998C15.1186 10.5469 13.8476 9.99981 12.514 9.97713H10.0156C9.92918 9.95823 9.83913 9.96538 9.7568 9.99767C9.67448 10.03 9.60359 10.0859 9.55309 10.1585C9.50259 10.2311 9.47476 10.3171 9.47311 10.4055C9.47146 10.4939 9.49608 10.5808 9.54384 10.6552L11.2235 14.345C11.2563 14.4458 11.2551 14.5546 11.22 14.6546C11.1849 14.7547 11.1179 14.8404 11.0293 14.8986C10.9406 14.9568 10.8354 14.9842 10.7296 14.9766C10.6239 14.9691 10.5236 14.927 10.4441 14.8568L2.51038 8.75001L10.4441 2.59751C10.5236 2.52733 10.6239 2.48522 10.7296 2.47767C10.8354 2.47012 10.9407 2.49755 11.0293 2.55573C11.1179 2.61392 11.1849 2.69963 11.22 2.79966C11.2551 2.89969 11.2564 3.00849 11.2236 3.10929L9.54384 6.7991C9.49608 6.87352 9.47147 6.96043 9.47312 7.04884C9.47477 7.13725 9.50261 7.22318 9.55311 7.29576C9.60361 7.36835 9.6745 7.42432 9.75682 7.45661C9.83914 7.48889 9.92919 7.49603 10.0156 7.47713H12.5" stroke="#2A5DFF" stroke-width="0.5"/>
</svg>
