<svg width="25" height="25" viewBox="0 0 25 25" fill="none" xmlns="http://www.w3.org/2000/svg">
<path d="M19.3721 22.4943C19.2071 22.4943 19.0488 22.4287 18.9322 22.312C18.8155 22.1953 18.7499 22.0371 18.7499 21.872V6.24915L18.4002 6.24124C17.9173 6.19726 17.4307 6.26327 16.977 6.4343C16.5233 6.60534 16.1142 6.87695 15.7806 7.22874L9.03647 12.9948C8.96479 13.0389 8.9074 13.1028 8.87121 13.1788C8.83501 13.2547 8.82155 13.3396 8.83245 13.423C8.84335 13.5065 8.87815 13.585 8.93264 13.6491C8.98714 13.7133 9.05902 13.7603 9.13962 13.7845L12.8006 15.5261C12.8906 15.5821 12.9597 15.6662 12.9972 15.7653C13.0348 15.8644 13.0387 15.9731 13.0084 16.0747C12.978 16.1763 12.9151 16.2651 12.8294 16.3274C12.7436 16.3897 12.6398 16.4221 12.5338 16.4195L2.52065 16.8346L4.64025 7.03964C4.65587 6.93479 4.70552 6.83798 4.78157 6.76413C4.85762 6.69028 4.95584 6.64349 5.0611 6.63095C5.16637 6.61842 5.27283 6.64084 5.36409 6.69477C5.45535 6.7487 5.52635 6.83114 5.56615 6.92939L6.65678 10.834C6.66815 10.9217 6.70527 11.0041 6.76346 11.0707C6.82164 11.1373 6.89827 11.1851 6.98365 11.2081C7.06902 11.2311 7.15931 11.2283 7.24309 11.2C7.32686 11.1717 7.40036 11.1192 7.45428 11.0491L7.459 11.0547L14.1991 5.29334C14.7578 4.75491 15.4226 4.33886 16.1511 4.07172C16.8796 3.80458 17.6558 3.69223 18.4301 3.74182L18.7603 3.74433C19.0919 3.73315 19.4223 3.79053 19.7308 3.91288C20.0392 4.03523 20.3191 4.21992 20.5529 4.45539C21.011 4.9518 21.2604 5.60554 21.2493 6.28095L21.2499 21.872C21.2499 21.9537 21.2338 22.0346 21.2025 22.1101C21.1713 22.1856 21.1254 22.2542 21.0676 22.312C21.0099 22.3698 20.9413 22.4156 20.8658 22.4469C20.7903 22.4782 20.7094 22.4943 20.6276 22.4943H19.3721Z" fill="#2A5DFF" stroke="#2A5DFF" stroke-width="0.5"/>
</svg>
