<svg width="25" height="25" viewBox="0 0 25 25" fill="none" xmlns="http://www.w3.org/2000/svg">
<path d="M18.7324 17.5538V21.8798C18.7324 22.0443 18.667 22.202 18.5507 22.3183C18.4344 22.4346 18.2767 22.5 18.1122 22.5H16.854C16.7725 22.5 16.6918 22.4839 16.6165 22.4527C16.5412 22.4215 16.4728 22.3757 16.4152 22.3181C16.3576 22.2604 16.3119 22.1919 16.2808 22.1166C16.2497 22.0412 16.2337 21.9605 16.2338 21.879L16.2397 17.3694C16.2977 16.4057 16.1411 15.4412 15.7812 14.5455C15.4213 13.6497 14.8671 12.845 14.1585 12.1894L11.0982 9.60731C11.0453 9.53643 10.9726 9.48283 10.8892 9.4533C10.8059 9.42376 10.7156 9.41961 10.6299 9.44138C10.5442 9.46315 10.4669 9.50985 10.4077 9.57558C10.3485 9.64131 10.3102 9.72311 10.2976 9.81064L9.14979 13.6989C9.10855 13.7966 9.03634 13.8779 8.94428 13.9305C8.85223 13.9831 8.74543 14.004 8.64036 13.9899C8.53528 13.9758 8.43775 13.9276 8.3628 13.8526C8.28784 13.7776 8.23961 13.6801 8.22555 13.575L6.25 3.75L16.2559 4.31206C16.3619 4.31108 16.4653 4.34498 16.5502 4.40854C16.635 4.4721 16.6966 4.56179 16.7254 4.6638C16.7543 4.7658 16.7488 4.87446 16.7098 4.97303C16.6708 5.07159 16.6004 5.15461 16.5096 5.20927L12.8235 6.89698C12.7386 6.92192 12.6631 6.97147 12.6064 7.03936C12.5498 7.10724 12.5145 7.19041 12.5051 7.27834C12.4957 7.36627 12.5126 7.45501 12.5537 7.53334C12.5947 7.61166 12.6581 7.67605 12.7357 7.71835L15.8076 10.3107C16.8042 11.2235 17.5841 12.3478 18.0902 13.601C18.5963 14.8542 18.8157 16.2048 18.7324 17.5538Z" fill="#2A5DFF" stroke="#2A5DFF" stroke-width="0.5"/>
</svg>
