<svg width="25" height="25" viewBox="0 0 25 25" fill="none" xmlns="http://www.w3.org/2000/svg">
<path d="M12.486 9.97712C11.1524 9.9998 9.8814 10.5468 8.94822 11.4998C8.01503 12.4527 7.49474 13.7349 7.5 15.0687V21.8797C7.5 22.0442 7.43465 22.202 7.31833 22.3183C7.202 22.4347 7.04423 22.5 6.87972 22.5H5.62164C5.54012 22.5 5.4594 22.4839 5.3841 22.4527C5.3088 22.4215 5.2404 22.3757 5.18279 22.3181C5.12519 22.2604 5.07953 22.1919 5.04841 22.1166C5.01729 22.0412 5.00134 21.9605 5.00145 21.879L5.00389 20H5V15.0687C4.99556 13.0721 5.77954 11.1545 7.18144 9.73287C8.58334 8.31125 10.4898 7.50057 12.4862 7.47712L12.5 7.47483V7.47712H14.9844C15.0708 7.49602 15.1609 7.48888 15.2432 7.45659C15.3255 7.42431 15.3964 7.36834 15.4469 7.29575C15.4974 7.22317 15.5252 7.13724 15.5269 7.04883C15.5285 6.96042 15.5039 6.87351 15.4562 6.79909L13.7765 3.10929C13.7437 3.00849 13.7449 2.89969 13.78 2.79967C13.8151 2.69964 13.8821 2.61393 13.9707 2.55574C14.0593 2.49755 14.1646 2.47012 14.2704 2.47767C14.3761 2.48521 14.4764 2.52732 14.5559 2.5975L22.4896 8.75L14.5559 14.8568C14.4764 14.927 14.3761 14.9691 14.2704 14.9767C14.1646 14.9842 14.0593 14.9568 13.9707 14.8986C13.8821 14.8404 13.8151 14.7547 13.78 14.6547C13.7449 14.5546 13.7436 14.4458 13.7764 14.345L15.4561 10.6552C15.5039 10.5808 15.5285 10.4939 15.5269 10.4055C15.5252 10.3171 15.4974 10.2311 15.4469 10.1585C15.3964 10.0859 15.3255 10.03 15.2432 9.99767C15.1608 9.96538 15.0708 9.95823 14.9844 9.97713L12.486 9.97712Z" fill="#2A5DFF" stroke="#2A5DFF" stroke-width="0.5"/>
</svg>
