<svg width="25" height="25" viewBox="0 0 25 25" fill="none" xmlns="http://www.w3.org/2000/svg">
<path d="M18.1286 2.75002C18.2271 2.75013 18.3215 2.7893 18.3911 2.85893C18.4607 2.92855 18.4999 3.02295 18.5 3.12142V21.8786C18.4999 21.9771 18.4607 22.0715 18.3911 22.1411C18.3215 22.2107 18.2271 22.2499 18.1286 22.25H16.8714C16.7729 22.2499 16.6785 22.2107 16.6089 22.1411C16.5393 22.0715 16.5001 21.9771 16.5 21.8786V3.12142C16.5001 3.02295 16.5393 2.92855 16.6089 2.85893C16.6785 2.7893 16.7729 2.75013 16.8714 2.75002H18.1286ZM18.1286 2.50002H16.8714C16.7898 2.50002 16.709 2.5161 16.6336 2.54732C16.5582 2.57855 16.4897 2.62433 16.432 2.68203C16.3743 2.73973 16.3285 2.80823 16.2973 2.88362C16.2661 2.95901 16.25 3.03982 16.25 3.12142V21.8786C16.25 21.9602 16.2661 22.041 16.2973 22.1164C16.3285 22.1918 16.3743 22.2603 16.432 22.318C16.4897 22.3757 16.5582 22.4215 16.6336 22.4527C16.709 22.4839 16.7898 22.5 16.8714 22.5H18.1286C18.2102 22.5 18.291 22.4839 18.3664 22.4527C18.4418 22.4215 18.5103 22.3757 18.568 22.318C18.6257 22.2603 18.6715 22.1918 18.7027 22.1164C18.7339 22.041 18.75 21.9602 18.75 21.8786V3.12142C18.75 3.03982 18.7339 2.95901 18.7027 2.88362C18.6715 2.80823 18.6257 2.73973 18.568 2.68203C18.5103 2.62433 18.4418 2.57855 18.3664 2.54732C18.291 2.5161 18.2102 2.50002 18.1286 2.50002ZM11.251 7.47713H8.76654C8.68016 7.49604 8.59012 7.48889 8.5078 7.45661C8.42548 7.42433 8.35458 7.36835 8.30408 7.29577C8.25359 7.22318 8.22575 7.13725 8.2241 7.04884C8.22245 6.96044 8.24706 6.87352 8.29482 6.79911L9.9745 3.10931C10.0073 3.0085 10.0061 2.8997 9.97099 2.79967C9.93589 2.69964 9.86887 2.61393 9.78025 2.55574C9.69163 2.49755 9.58634 2.47012 9.4806 2.47767C9.37486 2.48522 9.27453 2.52733 9.19508 2.59752L1.26135 8.75002L9.1951 14.8568C9.27456 14.927 9.37488 14.9691 9.48062 14.9766C9.58636 14.9842 9.69165 14.9568 9.78026 14.8986C9.86887 14.8404 9.93589 14.7547 9.97099 14.6546C10.0061 14.5546 10.0073 14.4458 9.9745 14.345L8.29482 10.6552C8.24705 10.5808 8.22244 10.4939 8.22409 10.4055C8.22573 10.3171 8.25357 10.2311 8.30407 10.1585C8.35456 10.0859 8.42546 10.03 8.50778 9.99767C8.5901 9.96538 8.68015 9.95823 8.76654 9.97713H11.265C12.5986 9.99982 13.8696 10.5469 14.8027 11.4998C15.7359 12.4528 16.2562 13.7349 16.251 15.0687V21.8797C16.251 21.9612 16.2661 22.0412 16.2973 22.1164C16.3285 22.1918 16.3743 22.2603 16.432 22.318C16.4897 22.3757 16.5582 22.4215 16.6336 22.4527C16.709 22.4839 16.7898 22.5 16.8714 22.5H18.1286C18.2102 22.5 18.291 22.4839 18.3664 22.4527C18.4418 22.4215 18.5103 22.3757 18.568 22.318C18.6257 22.2603 18.6715 22.1918 18.7027 22.1164C18.7339 22.041 18.75 21.9602 18.75 21.8786L18.7471 20H18.751V15.0687C18.7554 13.0721 17.9714 11.1545 16.5695 9.73288C15.1676 8.31126 13.2612 7.50058 11.2647 7.47713L11.251 7.47484" fill="#2A5DFF"/>
</svg>
