<svg width="25" height="25" viewBox="0 0 25 25" fill="none" xmlns="http://www.w3.org/2000/svg">
<path d="M8.12863 2.75001C8.22709 2.75013 8.32149 2.78929 8.39111 2.85892C8.46073 2.92855 8.49989 3.02295 8.5 3.12141V21.8786C8.49989 21.9771 8.46073 22.0715 8.39111 22.1411C8.32149 22.2107 8.22709 22.2499 8.12863 22.25H6.87137C6.77291 22.2499 6.67851 22.2107 6.60889 22.1411C6.53927 22.0715 6.50011 21.9771 6.5 21.8786V3.12141C6.50011 3.02295 6.53927 2.92855 6.60889 2.85892C6.67851 2.78929 6.77291 2.75013 6.87137 2.75001H8.12863ZM8.12863 2.50001H6.87137C6.78977 2.50002 6.70897 2.51609 6.63358 2.54732C6.55819 2.57855 6.48969 2.62432 6.43199 2.68202C6.37429 2.73973 6.32852 2.80823 6.2973 2.88362C6.26607 2.95901 6.25 3.03981 6.25 3.12141V21.8786C6.25 21.9602 6.26607 22.041 6.2973 22.1164C6.32852 22.1918 6.37429 22.2603 6.43199 22.318C6.48969 22.3757 6.55819 22.4215 6.63358 22.4527C6.70897 22.4839 6.78977 22.5 6.87137 22.5H8.12863C8.21023 22.5 8.29103 22.4839 8.36642 22.4527C8.44181 22.4215 8.51031 22.3757 8.56801 22.318C8.62571 22.2603 8.67148 22.1918 8.7027 22.1164C8.73393 22.041 8.75 21.9602 8.75 21.8786V3.12141C8.75 3.03981 8.73393 2.95901 8.7027 2.88362C8.67148 2.80823 8.62571 2.73973 8.56801 2.68202C8.51031 2.62432 8.44181 2.57855 8.36642 2.54732C8.29103 2.51609 8.21023 2.50002 8.12863 2.50001ZM13.7604 9.97713H16.2448C16.3312 9.95823 16.4212 9.96538 16.5036 9.99767C16.5859 10.03 16.6568 10.0859 16.7073 10.1585C16.7578 10.2311 16.7856 10.3171 16.7873 10.4055C16.7889 10.4939 16.7643 10.5808 16.7165 10.6552L15.0368 14.345C15.004 14.4458 15.0053 14.5546 15.0404 14.6546C15.0755 14.7547 15.1425 14.8404 15.2311 14.8986C15.3197 14.9568 15.425 14.9842 15.5308 14.9766C15.6365 14.9691 15.7368 14.927 15.8163 14.8568L23.75 8.75001L15.8162 2.59751C15.7368 2.52733 15.6365 2.48522 15.5307 2.47767C15.425 2.47012 15.3197 2.49755 15.2311 2.55573C15.1425 2.61392 15.0754 2.69963 15.0403 2.79966C15.0052 2.89969 15.004 3.00849 15.0368 3.10929L16.7165 6.79909C16.7643 6.87351 16.7889 6.96042 16.7872 7.04883C16.7856 7.13723 16.7577 7.22317 16.7072 7.29575C16.6567 7.36833 16.5858 7.42431 16.5035 7.45659C16.4212 7.48888 16.3312 7.49602 16.2448 7.47711H13.7604V7.47484L13.7466 7.47713C11.7502 7.50058 9.84372 8.31126 8.44181 9.73288C7.03991 11.1545 6.25594 13.0721 6.26037 15.0687V20H6.26426L6.26176 21.879C6.26165 21.9605 6.27761 22.0412 6.30873 22.1166C6.33985 22.1919 6.38552 22.2604 6.44313 22.3181C6.50074 22.3758 6.56916 22.4215 6.64447 22.4527C6.71978 22.484 6.8005 22.5 6.88203 22.5H8.1401C8.30461 22.5 8.46238 22.4347 8.5787 22.3183C8.69502 22.202 8.76037 22.0442 8.76037 21.8797V15.0687C8.75511 13.7349 9.2754 12.4528 10.2086 11.4998C11.1418 10.5469 12.4128 9.99981 13.7463 9.97713H13.7604Z" fill="#2A5DFF"/>
</svg>
