<svg width="25" height="25" viewBox="0 0 25 25" fill="none" xmlns="http://www.w3.org/2000/svg">
<path d="M18.1286 2.75C18.2271 2.75011 18.3215 2.78928 18.3911 2.85891C18.4607 2.92853 18.4999 3.02294 18.5 3.1214V21.8786C18.4999 21.9771 18.4607 22.0715 18.3911 22.1411C18.3215 22.2107 18.2271 22.2499 18.1286 22.25H16.8714C16.7729 22.2499 16.6785 22.2107 16.6089 22.1411C16.5393 22.0715 16.5001 21.9771 16.5 21.8786V3.1214C16.5001 3.02294 16.5393 2.92853 16.6089 2.85891C16.6785 2.78928 16.7729 2.75011 16.8714 2.75H18.1286ZM18.1286 2.5H16.8714C16.7898 2.5 16.709 2.51608 16.6336 2.54731C16.5582 2.57853 16.4897 2.62431 16.432 2.68201C16.3743 2.73971 16.3285 2.80821 16.2973 2.8836C16.2661 2.959 16.25 3.0398 16.25 3.1214V21.8786C16.25 21.9602 16.2661 22.041 16.2973 22.1164C16.3285 22.1918 16.3743 22.2603 16.432 22.318C16.4897 22.3757 16.5582 22.4215 16.6336 22.4527C16.709 22.4839 16.7898 22.5 16.8714 22.5H18.1286C18.2102 22.5 18.291 22.4839 18.3664 22.4527C18.4418 22.4215 18.5103 22.3757 18.568 22.318C18.6257 22.2603 18.6715 22.1918 18.7027 22.1164C18.7339 22.041 18.75 21.9602 18.75 21.8786V3.1214C18.75 3.0398 18.7339 2.959 18.7027 2.8836C18.6715 2.80821 18.6257 2.73971 18.568 2.68201C18.5103 2.62431 18.4418 2.57853 18.3664 2.54731C18.291 2.51608 18.2102 2.5 18.1286 2.5ZM15.8076 10.3107L12.7357 7.71835C12.6581 7.67605 12.5947 7.61166 12.5537 7.53334C12.5126 7.45501 12.4957 7.36627 12.5051 7.27834C12.5145 7.19041 12.5498 7.10724 12.6064 7.03936C12.6631 6.97147 12.7386 6.92192 12.8235 6.89698L16.5096 5.20927C16.6004 5.15461 16.6708 5.07159 16.7098 4.97303C16.7488 4.87446 16.7543 4.7658 16.7254 4.6638C16.6966 4.56179 16.635 4.4721 16.5502 4.40854C16.4653 4.34498 16.3619 4.31108 16.2559 4.31206L6.25 3.75L8.22555 13.575C8.23962 13.6801 8.28784 13.7776 8.3628 13.8526C8.43775 13.9275 8.53528 13.9758 8.64035 13.9899C8.74542 14.004 8.85221 13.9831 8.94426 13.9305C9.03632 13.8779 9.10853 13.7966 9.14978 13.6989L10.2975 9.81064C10.3102 9.72311 10.3485 9.64131 10.4077 9.57558C10.4668 9.50985 10.5441 9.46315 10.6299 9.44138C10.7156 9.41961 10.8058 9.42376 10.8892 9.4533C10.9725 9.48283 11.0452 9.53643 11.0981 9.60731L14.1583 12.1893C14.867 12.8449 15.4212 13.6496 15.7811 14.5454C16.141 15.4412 16.2976 16.4057 16.2396 17.3693L16.2337 21.8789C16.2336 21.9604 16.2496 22.0412 16.2807 22.1166C16.3118 22.1919 16.3575 22.2604 16.4151 22.3181C16.4727 22.3758 16.5411 22.4215 16.6164 22.4527C16.6918 22.484 16.7725 22.5 16.854 22.5H18.1122C18.2767 22.5 18.4344 22.4346 18.5507 22.3183C18.667 22.202 18.7324 22.0442 18.7324 21.8797V17.5538C18.8157 16.2048 18.5963 14.8542 18.0902 13.601C17.5842 12.3478 16.8042 11.2236 15.8076 10.3107Z" fill="#2A5DFF"/>
</svg>
