<svg width="25" height="25" viewBox="0 0 25 25" fill="none" xmlns="http://www.w3.org/2000/svg">
<path d="M10.6286 2.75C10.7271 2.75011 10.8215 2.78928 10.8911 2.85891C10.9607 2.92853 10.9999 3.02294 11 3.1214V21.8786C10.9999 21.9771 10.9607 22.0715 10.8911 22.1411C10.8215 22.2107 10.7271 22.2499 10.6286 22.25H9.37137C9.27291 22.2499 9.17851 22.2107 9.10889 22.1411C9.03927 22.0715 9.00011 21.9771 9 21.8786V3.1214C9.00011 3.02294 9.03927 2.92853 9.10889 2.85891C9.17851 2.78928 9.27291 2.75011 9.37137 2.75H10.6286ZM10.6286 2.5H9.37137C9.28977 2.5 9.20897 2.51608 9.13358 2.54731C9.05819 2.57853 8.98969 2.62431 8.93199 2.68201C8.87429 2.73971 8.82852 2.80821 8.7973 2.8836C8.76607 2.959 8.75 3.0398 8.75 3.1214V21.8786C8.75 21.9602 8.76607 22.041 8.7973 22.1164C8.82852 22.1918 8.87429 22.2603 8.93199 22.318C8.98969 22.3757 9.05819 22.4215 9.13358 22.4527C9.20897 22.4839 9.28977 22.5 9.37137 22.5H10.6286C10.7102 22.5 10.791 22.4839 10.8664 22.4527C10.9418 22.4215 11.0103 22.3757 11.068 22.318C11.1257 22.2603 11.1715 22.1918 11.2027 22.1164C11.2339 22.041 11.25 21.9602 11.25 21.8786V3.1214C11.25 3.0398 11.2339 2.959 11.2027 2.8836C11.1715 2.80821 11.1257 2.73971 11.068 2.68201C11.0103 2.62431 10.9418 2.57853 10.8664 2.54731C10.791 2.51608 10.7102 2.5 10.6286 2.5ZM8.76763 17.5538V21.8798C8.76764 22.0443 8.83298 22.202 8.94928 22.3183C9.06559 22.4346 9.22333 22.5 9.38781 22.5H10.646C10.7275 22.5 10.8082 22.4839 10.8835 22.4527C10.9588 22.4215 11.0272 22.3757 11.0848 22.3181C11.1424 22.2604 11.1881 22.1919 11.2192 22.1166C11.2503 22.0412 11.2663 21.9605 11.2662 21.879L11.2603 17.3694C11.2023 16.4057 11.3588 15.4412 11.7188 14.5455C12.0787 13.6497 12.6329 12.845 13.3415 12.1894L16.4018 9.60736C16.4546 9.53648 16.5274 9.48288 16.6107 9.45335C16.6941 9.42381 16.7843 9.41966 16.87 9.44143C16.9557 9.4632 17.0331 9.5099 17.0922 9.57563C17.1514 9.64136 17.1897 9.72316 17.2024 9.81069L18.3502 13.6989C18.3914 13.7966 18.4636 13.8781 18.5557 13.9307C18.6477 13.9833 18.7545 14.0041 18.8596 13.99C18.9647 13.9759 19.0623 13.9277 19.1372 13.8527C19.2122 13.7777 19.2604 13.6801 19.2745 13.575L21.25 3.75L11.2441 4.31206C11.1381 4.31108 11.0347 4.34498 10.9498 4.40854C10.865 4.4721 10.8034 4.56179 10.7746 4.6638C10.7457 4.7658 10.7512 4.87446 10.7902 4.97303C10.8292 5.07159 10.8996 5.15461 10.9904 5.20927L14.6765 6.89698C14.7614 6.92192 14.8369 6.97147 14.8936 7.03936C14.9502 7.10724 14.9855 7.19041 14.9949 7.27834C15.0043 7.36627 14.9874 7.45501 14.9463 7.53334C14.9053 7.61166 14.8419 7.67605 14.7643 7.71835L11.6924 10.3107C10.6958 11.2236 9.91585 12.3478 9.40979 13.601C8.90372 14.8542 8.68431 16.2048 8.76763 17.5538Z" fill="#2A5DFF"/>
</svg>
