<svg width="25" height="25" viewBox="0 0 25 25" fill="none" xmlns="http://www.w3.org/2000/svg">
<path d="M4.37236 22.4943C4.29064 22.4943 4.20973 22.4782 4.13423 22.4469C4.05874 22.4156 3.99014 22.3698 3.93236 22.312C3.87458 22.2542 3.82875 22.1856 3.79748 22.1101C3.76621 22.0346 3.75012 21.9537 3.75012 21.872L3.75071 6.28088C3.73961 5.60548 3.989 4.95173 4.44712 4.45532C4.68093 4.21985 4.96081 4.03516 5.26926 3.91281C5.5777 3.79046 5.90808 3.73308 6.23972 3.74426L6.56992 3.74176C7.34426 3.69217 8.12042 3.80454 8.8489 4.07169C9.57738 4.33884 10.2422 4.7549 10.8009 5.29333L17.541 11.0547L17.5457 11.0491C17.5996 11.1192 17.6731 11.1717 17.7569 11.2C17.8407 11.2283 17.931 11.2311 18.0164 11.2081C18.1017 11.1851 18.1784 11.1373 18.2365 11.0707C18.2947 11.0041 18.3319 10.9217 18.3432 10.834L19.4338 6.9294C19.4736 6.83115 19.5446 6.74871 19.6359 6.69478C19.7272 6.64085 19.8336 6.61843 19.9389 6.63096C20.0442 6.6435 20.1424 6.69029 20.2184 6.76414C20.2945 6.83799 20.3441 6.9348 20.3597 7.03965L22.4793 16.8346L12.4662 16.4195C12.3603 16.4221 12.2564 16.3897 12.1707 16.3274C12.0849 16.2651 12.022 16.1763 11.9917 16.0747C11.9613 15.9731 11.9652 15.8644 12.0028 15.7653C12.0403 15.6662 12.1094 15.5821 12.1994 15.5261L15.8604 13.7845C15.941 13.7603 16.0129 13.7133 16.0674 13.6491C16.1219 13.585 16.1567 13.5065 16.1676 13.423C16.1785 13.3396 16.165 13.2548 16.1288 13.1788C16.0926 13.1028 16.0352 13.0389 15.9636 12.9948L9.21946 7.22873C8.88577 6.87694 8.47671 6.60533 8.02299 6.4343C7.56928 6.26327 7.08271 6.19726 6.59983 6.24123L6.2501 6.24917V21.872C6.2501 22.0371 6.18454 22.1953 6.06785 22.312C5.95116 22.4287 5.79289 22.4943 5.62786 22.4943L4.37236 22.4943Z" fill="#2A5DFF" stroke="#2A5DFF" stroke-width="0.5"/>
</svg>
