<svg width="25" height="25" viewBox="0 0 25 25" fill="none" xmlns="http://www.w3.org/2000/svg">
<path d="M13.7463 9.9771C12.4128 9.99979 11.1418 10.5468 10.2086 11.4998C9.2754 12.4527 8.75511 13.7349 8.76038 15.0687V21.8797C8.76038 22.0442 8.69503 22.202 8.5787 22.3183C8.46238 22.4346 8.30461 22.5 8.1401 22.5H6.88203C6.80051 22.5 6.71979 22.4839 6.64449 22.4527C6.56919 22.4215 6.50078 22.3757 6.44318 22.318C6.38558 22.2604 6.33992 22.1919 6.3088 22.1165C6.27768 22.0412 6.26172 21.9605 6.26184 21.879L6.26426 20H6.26038V15.0687C6.25594 13.0721 7.03991 11.1545 8.44182 9.73285C9.84372 8.31123 11.7502 7.50055 13.7466 7.4771L13.7604 7.47481V7.4771H16.2448C16.3312 7.496 16.4212 7.48886 16.5036 7.45658C16.5859 7.4243 16.6568 7.36832 16.7073 7.29574C16.7578 7.22315 16.7856 7.13722 16.7873 7.04881C16.7889 6.9604 16.7643 6.87349 16.7165 6.79908L15.0369 3.10928C15.004 3.00848 15.0053 2.89968 15.0404 2.79966C15.0755 2.69963 15.1425 2.61393 15.2311 2.55574C15.3197 2.49756 15.425 2.47012 15.5307 2.47767C15.6365 2.48521 15.7368 2.52731 15.8163 2.59749L23.75 8.74999L15.8163 14.8568C15.7368 14.927 15.6365 14.9691 15.5307 14.9766C15.425 14.9842 15.3197 14.9568 15.2311 14.8986C15.1425 14.8404 15.0754 14.7547 15.0403 14.6546C15.0052 14.5546 15.004 14.4458 15.0368 14.345L16.7165 10.6552C16.7643 10.5808 16.7889 10.4939 16.7872 10.4055C16.7856 10.317 16.7578 10.2311 16.7073 10.1585C16.6568 10.0859 16.5859 10.0299 16.5035 9.99765C16.4212 9.96536 16.3312 9.95821 16.2448 9.97711L13.7463 9.9771Z" fill="#2A5DFF" stroke="#2A5DFF" stroke-width="0.5"/>
</svg>
