<svg width="25" height="25" viewBox="0 0 25 25" fill="none" xmlns="http://www.w3.org/2000/svg">
<path d="M11.251 7.47484L11.2647 7.47713C13.2612 7.50058 15.1676 8.31126 16.5695 9.73288C17.9714 11.1545 18.7554 13.0721 18.751 15.0687V20H18.7471L18.7496 21.879C18.7497 21.9605 18.7337 22.0412 18.7026 22.1166C18.6715 22.1919 18.6258 22.2604 18.5682 22.3181C18.5106 22.3758 18.4422 22.4215 18.3669 22.4527C18.2916 22.484 18.2108 22.5 18.1293 22.5H16.8712C16.7067 22.5 16.549 22.4347 16.4326 22.3183C16.3163 22.202 16.251 22.0442 16.251 21.8797V15.0687C16.2562 13.7349 15.7359 12.4527 14.8028 11.4998C13.8696 10.5468 12.5986 9.99981 11.265 9.97713H8.76654C8.68015 9.95823 8.5901 9.96538 8.50778 9.99767C8.42546 10.03 8.35456 10.0859 8.30406 10.1585C8.25356 10.2311 8.22573 10.3171 8.22408 10.4055C8.22244 10.4939 8.24705 10.5808 8.29481 10.6552L9.9745 14.345C10.0073 14.4458 10.0061 14.5546 9.97098 14.6546C9.93587 14.7547 9.86885 14.8404 9.78024 14.8986C9.69162 14.9568 9.58633 14.9842 9.48059 14.9766C9.37485 14.9691 9.27452 14.927 9.19507 14.8568L1.26135 8.75001L9.1951 2.59751C9.27455 2.52733 9.37487 2.48522 9.48061 2.47767C9.58636 2.47012 9.69165 2.49755 9.78026 2.55573C9.86888 2.61392 9.9359 2.69963 9.971 2.79966C10.0061 2.89969 10.0073 3.00849 9.97452 3.10929L8.29481 6.7991C8.24706 6.87352 8.22245 6.96043 8.2241 7.04884C8.22575 7.13725 8.25358 7.22318 8.30408 7.29576C8.35458 7.36835 8.42547 7.42432 8.50779 7.45661C8.59011 7.48889 8.68016 7.49603 8.76654 7.47713H11.251" fill="#2A5DFF"/>
<path d="M11.251 7.47484L11.2647 7.47713C13.2612 7.50058 15.1676 8.31126 16.5695 9.73288C17.9714 11.1545 18.7554 13.0721 18.751 15.0687V20H18.7471L18.7496 21.879C18.7497 21.9605 18.7337 22.0412 18.7026 22.1166C18.6715 22.1919 18.6258 22.2604 18.5682 22.3181C18.5106 22.3758 18.4422 22.4215 18.3669 22.4527C18.2916 22.484 18.2108 22.5 18.1293 22.5H16.8712C16.7067 22.5 16.549 22.4347 16.4326 22.3183C16.3163 22.202 16.251 22.0442 16.251 21.8797V15.0687C16.2562 13.7349 15.7359 12.4527 14.8028 11.4998C13.8696 10.5468 12.5986 9.99981 11.265 9.97713H8.76654C8.68015 9.95823 8.5901 9.96538 8.50778 9.99767C8.42546 10.03 8.35456 10.0859 8.30406 10.1585C8.25356 10.2311 8.22573 10.3171 8.22408 10.4055C8.22244 10.4939 8.24705 10.5808 8.29481 10.6552L9.9745 14.345C10.0073 14.4458 10.0061 14.5546 9.97098 14.6546C9.93588 14.7547 9.86885 14.8404 9.78024 14.8986C9.69162 14.9568 9.58633 14.9842 9.48059 14.9766C9.37485 14.9691 9.27452 14.927 9.19507 14.8568L1.26135 8.75001L9.1951 2.59751C9.27455 2.52733 9.37487 2.48522 9.48061 2.47767C9.58636 2.47012 9.69165 2.49755 9.78026 2.55573C9.86888 2.61392 9.9359 2.69963 9.971 2.79966C10.0061 2.89969 10.0073 3.00849 9.97452 3.10929L8.29481 6.7991C8.24706 6.87352 8.22245 6.96043 8.2241 7.04884C8.22575 7.13725 8.25358 7.22318 8.30408 7.29576C8.35458 7.36835 8.42547 7.42432 8.50779 7.45661C8.59011 7.48889 8.68016 7.49603 8.76654 7.47713H11.251" stroke="#2A5DFF" stroke-width="0.5"/>
</svg>
