<svg width="25" height="25" viewBox="0 0 25 25" fill="none" xmlns="http://www.w3.org/2000/svg">
<path d="M16.2324 17.5538V21.8798C16.2324 22.0443 16.167 22.202 16.0507 22.3183C15.9344 22.4346 15.7767 22.5 15.6122 22.5H14.354C14.2725 22.5 14.1918 22.4839 14.1165 22.4527C14.0412 22.4215 13.9728 22.3757 13.9152 22.3181C13.8576 22.2604 13.8119 22.1919 13.7808 22.1166C13.7497 22.0412 13.7337 21.9605 13.7338 21.879L13.7397 17.3694C13.7977 16.4057 13.6412 15.4412 13.2812 14.5455C12.9213 13.6497 12.3671 12.845 11.6585 12.1894L8.59818 9.60731C8.54529 9.53643 8.47257 9.48283 8.38922 9.4533C8.30586 9.42376 8.21562 9.41961 8.1299 9.44138C8.04419 9.46315 7.96686 9.50985 7.9077 9.57558C7.84854 9.64131 7.8102 9.72311 7.79755 9.81064L6.64979 13.6989C6.60855 13.7966 6.53634 13.8779 6.44428 13.9305C6.35223 13.9831 6.24543 14.004 6.14036 13.9899C6.03528 13.9758 5.93775 13.9276 5.8628 13.8526C5.78784 13.7776 5.73961 13.6801 5.72555 13.575L3.75 3.75L13.7559 4.31206C13.8619 4.31108 13.9653 4.34498 14.0502 4.40854C14.135 4.4721 14.1966 4.56179 14.2254 4.6638C14.2543 4.7658 14.2488 4.87446 14.2098 4.97303C14.1708 5.07159 14.1004 5.15461 14.0096 5.20927L10.3235 6.89698C10.2386 6.92192 10.1631 6.97147 10.1064 7.03936C10.0498 7.10724 10.0145 7.19041 10.0051 7.27834C9.99573 7.36627 10.0126 7.45501 10.0537 7.53334C10.0947 7.61166 10.1581 7.67605 10.2357 7.71835L13.3076 10.3107C14.3042 11.2235 15.0842 12.3478 15.5902 13.601C16.0963 14.8542 16.3157 16.2048 16.2324 17.5538Z" fill="#2A5DFF" stroke="#2A5DFF" stroke-width="0.5"/>
</svg>
