<svg width="25" height="25" viewBox="0 0 25 25" fill="none" xmlns="http://www.w3.org/2000/svg">
<path d="M11.6924 10.3107L14.7643 7.71835C14.8419 7.67605 14.9053 7.61166 14.9463 7.53334C14.9874 7.45501 15.0043 7.36627 14.9949 7.27834C14.9855 7.19041 14.9502 7.10724 14.8936 7.03936C14.8369 6.97147 14.7614 6.92192 14.6765 6.89698L10.9904 5.20927C10.8996 5.15461 10.8292 5.07159 10.7902 4.97303C10.7513 4.87446 10.7458 4.7658 10.7746 4.6638C10.8034 4.56179 10.865 4.4721 10.9498 4.40854C11.0347 4.34498 11.1381 4.31108 11.2441 4.31206L21.25 3.75L19.2745 13.575C19.2604 13.6801 19.2122 13.7776 19.1372 13.8526C19.0623 13.9275 18.9647 13.9758 18.8597 13.9899C18.7546 14.004 18.6478 13.9831 18.5557 13.9305C18.4637 13.8779 18.3915 13.7966 18.3502 13.6989L17.2025 9.81064C17.1899 9.72311 17.1515 9.64131 17.0924 9.57558C17.0332 9.50985 16.9559 9.46315 16.8702 9.44138C16.7844 9.41961 16.6942 9.42376 16.6108 9.4533C16.5275 9.48283 16.4548 9.53643 16.4019 9.60731L13.3416 12.1893C12.633 12.8449 12.0787 13.6496 11.7188 14.5454C11.3589 15.4412 11.2023 16.4057 11.2604 17.3693L11.2662 21.8789C11.2664 21.9604 11.2504 22.0412 11.2193 22.1165C11.1882 22.1919 11.1425 22.2604 11.0849 22.3181C11.0273 22.3757 10.9589 22.4215 10.8835 22.4527C10.8082 22.4839 10.7275 22.5 10.646 22.5H9.38782C9.22333 22.5 9.06558 22.4346 8.94927 22.3183C8.83297 22.202 8.76763 22.0442 8.76763 21.8797V17.5538C8.68432 16.2048 8.90373 14.8542 9.4098 13.601C9.91586 12.3478 10.6958 11.2236 11.6924 10.3107Z" fill="#2A5DFF" stroke="#2A5DFF" stroke-width="0.5"/>
</svg>
