<svg width="25" height="25" viewBox="0 0 25 25" fill="none" xmlns="http://www.w3.org/2000/svg">
<path d="M11.2152 6.5C12.1547 6.5 13.073 6.77858 13.8542 7.30052C14.6353 7.82246 15.2441 8.5643 15.6036 9.43225C15.9632 10.3002 16.0572 11.2553 15.8739 12.1767C15.6907 13.0981 15.2383 13.9445 14.574 14.6088C13.9097 15.2731 13.0633 15.7255 12.1419 15.9087C11.2205 16.092 10.2654 15.9979 9.39747 15.6384C8.52952 15.2789 7.78767 14.6701 7.26573 13.889C6.74379 13.1078 6.46521 12.1895 6.46521 11.25C6.46664 9.99066 6.96754 8.7833 7.85803 7.89281C8.74852 7.00232 9.95587 6.50142 11.2152 6.5ZM11.2152 15.25C12.0063 15.25 12.7797 15.0154 13.4375 14.5759C14.0953 14.1364 14.608 13.5116 14.9107 12.7807C15.2135 12.0498 15.2927 11.2456 15.1384 10.4696C14.984 9.69372 14.6031 8.98098 14.0436 8.42157C13.4842 7.86216 12.7715 7.4812 11.9956 7.32686C11.2197 7.17252 10.4154 7.25173 9.68448 7.55448C8.95357 7.85723 8.32886 8.36992 7.88933 9.02772C7.44981 9.68552 7.21521 10.4589 7.21521 11.25C7.21641 12.3105 7.63822 13.3272 8.3881 14.0771C9.13799 14.827 10.1547 15.2488 11.2152 15.25ZM11.2152 6.25C10.2263 6.25 9.25961 6.54324 8.43736 7.09265C7.61512 7.64206 6.97425 8.42295 6.59581 9.33658C6.21738 10.2502 6.11836 11.2555 6.31129 12.2255C6.50421 13.1954 6.98042 14.0863 7.67968 14.7855C8.37894 15.4848 9.26986 15.961 10.2398 16.1539C11.2097 16.3469 12.215 16.2478 13.1286 15.8694C14.0423 15.491 14.8232 14.8501 15.3726 14.0279C15.922 13.2056 16.2152 12.2389 16.2152 11.25C16.2137 9.92438 15.6864 8.65349 14.7491 7.71614C13.8117 6.77879 12.5408 6.25152 11.2152 6.25ZM11.2152 15C10.4735 15 9.74851 14.7801 9.13182 14.368C8.51514 13.956 8.03449 13.3703 7.75066 12.6851C7.46684 11.9998 7.39257 11.2458 7.53727 10.5184C7.68196 9.79098 8.03911 9.1228 8.56356 8.59835C9.08801 8.0739 9.75619 7.71675 10.4836 7.57206C11.2111 7.42736 11.9651 7.50162 12.6503 7.78545C13.3355 8.06928 13.9212 8.54993 14.3332 9.16661C14.7453 9.7833 14.9652 10.5083 14.9652 11.25C14.9641 12.2442 14.5687 13.1974 13.8657 13.9005C13.1626 14.6035 12.2094 14.9989 11.2152 15ZM20.579 16.2797C20.5757 16.2268 20.5551 16.1764 20.5204 16.1364C20.4857 16.0963 20.4387 16.0688 20.3869 16.0581C20.335 16.0473 20.281 16.0539 20.2332 16.0769C20.1854 16.0998 20.1465 16.1378 20.1225 16.1851L19.4118 18.0835C19.4024 18.1267 19.3804 18.1661 19.3485 18.1968C19.3167 18.2275 19.2765 18.248 19.2329 18.2558C19.1894 18.2636 19.1446 18.2584 19.104 18.2407C19.0635 18.223 19.0291 18.1937 19.0053 18.1564L14.3085 13.4601L13.8666 13.902C13.5192 14.2512 13.106 14.5281 12.6509 14.7165C12.1958 14.905 11.7078 15.0014 11.2152 15H10.5902V20H11.8402V16.2115C12.7304 16.1022 13.5741 15.7528 14.281 15.2008L18.1224 19.0417C18.1593 19.0657 18.1884 19.1001 18.2058 19.1405C18.2232 19.1809 18.2283 19.2256 18.2204 19.2689C18.2125 19.3122 18.192 19.3522 18.1614 19.3838C18.1308 19.4155 18.0915 19.4374 18.0485 19.4467L16.1501 20.1575C16.1029 20.1815 16.0648 20.2204 16.0419 20.2682C16.0189 20.316 16.0123 20.37 16.0231 20.4219C16.0338 20.4738 16.0613 20.5207 16.1014 20.5555C16.1415 20.5902 16.1918 20.6108 16.2447 20.614L21.215 21.25L20.579 16.2797Z" fill="#2A5DFF"/>
</svg>
