<svg width="25" height="25" viewBox="0 0 25 25" fill="none" xmlns="http://www.w3.org/2000/svg">
<path d="M16.25 7.75C17.1895 7.75 18.1078 8.02858 18.889 8.55052C19.6701 9.07246 20.2789 9.8143 20.6384 10.6823C20.9979 11.5502 21.092 12.5053 20.9087 13.4267C20.7255 14.3481 20.2731 15.1945 19.6088 15.8588C18.9445 16.5231 18.0981 16.9755 17.1767 17.1587C16.2553 17.342 15.3002 17.2479 14.4323 16.8884C13.5643 16.5289 12.8225 15.9201 12.3005 15.139C11.7786 14.3578 11.5 13.4395 11.5 12.5C11.5014 11.2407 12.0023 10.0333 12.8928 9.14281C13.7833 8.25232 14.9907 7.75142 16.25 7.75ZM16.25 16.5C17.0411 16.5 17.8145 16.2654 18.4723 15.8259C19.1301 15.3864 19.6428 14.7616 19.9455 14.0307C20.2483 13.2998 20.3275 12.4956 20.1731 11.7196C20.0188 10.9437 19.6378 10.231 19.0784 9.67157C18.519 9.11216 17.8063 8.7312 17.0304 8.57686C16.2544 8.42252 15.4502 8.50173 14.7193 8.80448C13.9884 9.10723 13.3636 9.61992 12.9241 10.2777C12.4846 10.9355 12.25 11.7089 12.25 12.5C12.2512 13.5605 12.673 14.5772 13.4229 15.3271C14.1728 16.077 15.1895 16.4988 16.25 16.5ZM16.25 7.5C15.2611 7.5 14.2944 7.79324 13.4721 8.34265C12.6499 8.89206 12.009 9.67295 11.6306 10.5866C11.2522 11.5002 11.1531 12.5055 11.3461 13.4755C11.539 14.4454 12.0152 15.3363 12.7145 16.0355C13.4137 16.7348 14.3046 17.211 15.2745 17.4039C16.2445 17.5969 17.2498 17.4978 18.1634 17.1194C19.077 16.741 19.8579 16.1001 20.4073 15.2779C20.9568 14.4556 21.25 13.4889 21.25 12.5C21.2485 11.1744 20.7212 9.90349 19.7839 8.96614C18.8465 8.02879 17.5756 7.50152 16.25 7.5ZM16.25 16.25C15.5083 16.25 14.7833 16.0301 14.1666 15.618C13.5499 15.206 13.0693 14.6203 12.7855 13.9351C12.5016 13.2498 12.4274 12.4958 12.5721 11.7684C12.7167 11.041 13.0739 10.3728 13.5983 9.84835C14.1228 9.3239 14.791 8.96675 15.5184 8.82206C16.2458 8.67736 16.9998 8.75162 17.6851 9.03545C18.3703 9.31928 18.956 9.79993 19.368 10.4166C19.7801 11.0333 20 11.7583 20 12.5C19.9989 13.4942 19.6035 14.4474 18.9005 15.1505C18.1974 15.8535 17.2442 16.2489 16.25 16.25ZM19.7858 8.96485C19.577 8.75595 19.3503 8.56581 19.1083 8.39661C18.1389 7.74413 16.9749 7.44447 15.811 7.5478C14.6471 7.65114 13.554 8.15119 12.7148 8.96424C11.9268 9.74739 11.4245 10.7724 11.2885 11.875H6.25C6.20681 11.8844 6.16179 11.8809 6.12063 11.8647C6.07947 11.8486 6.04403 11.8206 6.01878 11.7843C5.99353 11.748 5.97962 11.705 5.9788 11.6608C5.97798 11.6166 5.99029 11.5732 6.01417 11.5359L6.85402 9.69109C6.87043 9.64069 6.86981 9.58629 6.85225 9.53628C6.8347 9.48627 6.80119 9.44342 6.75688 9.41432C6.71258 9.38523 6.65994 9.37152 6.60707 9.37529C6.5542 9.37906 6.50404 9.40011 6.46431 9.4352L2.5 12.5L6.46431 15.5648C6.50404 15.5999 6.5542 15.6209 6.60707 15.6247C6.65994 15.6285 6.71258 15.6148 6.75688 15.5857C6.80119 15.5566 6.8347 15.5137 6.85225 15.4637C6.86981 15.4137 6.87043 15.3593 6.85402 15.3089L6.01417 13.4641C5.99029 13.4268 5.97798 13.3834 5.9788 13.3392C5.97962 13.295 5.99353 13.252 6.01878 13.2157C6.04403 13.1794 6.07947 13.1514 6.12063 13.1353C6.16179 13.1191 6.20681 13.1156 6.25 13.125H12.5V12.5C12.4987 12.0073 12.5951 11.5192 12.7837 11.064C12.9722 10.6087 13.249 10.1958 13.5983 9.84835C14.2279 9.2392 15.0478 8.86424 15.9204 8.7867C16.793 8.70916 17.6658 8.93341 18.393 9.422C18.5748 9.54899 18.7452 9.69176 18.902 9.84864C19.4265 10.3731 19.7837 11.0413 19.9284 11.7687C20.0731 12.4962 19.9988 13.2502 19.715 13.9355C19.4311 14.6207 18.9503 15.2063 18.3336 15.6183C17.7168 16.0303 16.9917 16.2502 16.25 16.25H15.625V21.25H16.875V17.4615C17.8033 17.3445 18.6801 16.9694 19.4058 16.3789C20.1314 15.7883 20.6769 15.006 20.9801 14.1209C21.2833 13.2358 21.3321 12.2834 21.121 11.3719C20.9099 10.4605 20.4473 9.62649 19.7858 8.96485Z" fill="#2A5DFF"/>
</svg>
