<svg width="25" height="25" viewBox="0 0 25 25" fill="none" xmlns="http://www.w3.org/2000/svg">
<path d="M13.7425 6.5C14.682 6.5 15.6003 6.77858 16.3815 7.30052C17.1626 7.82246 17.7714 8.5643 18.1309 9.43225C18.4904 10.3002 18.5845 11.2553 18.4012 12.1767C18.218 13.0981 17.7656 13.9445 17.1013 14.6088C16.437 15.2731 15.5906 15.7254 14.6692 15.9087C13.7478 16.092 12.7927 15.9979 11.9248 15.6384C11.0568 15.2789 10.315 14.6701 9.79302 13.889C9.27108 13.1078 8.9925 12.1895 8.9925 11.25C8.99392 9.99066 9.49482 8.7833 10.3853 7.89281C11.2758 7.00232 12.4832 6.50142 13.7425 6.5ZM13.7425 15.25C14.5336 15.25 15.307 15.0154 15.9648 14.5759C16.6226 14.1364 17.1353 13.5116 17.438 12.7807C17.7408 12.0498 17.82 11.2456 17.6656 10.4696C17.5113 9.69372 17.1303 8.98098 16.5709 8.42157C16.0115 7.86216 15.2988 7.4812 14.5229 7.32686C13.7469 7.17252 12.9427 7.25173 12.2118 7.55448C11.4809 7.85723 10.8561 8.36992 10.4166 9.02772C9.9771 9.68552 9.7425 10.4589 9.7425 11.25C9.7437 12.3105 10.1655 13.3272 10.9154 14.0771C11.6653 14.827 12.682 15.2488 13.7425 15.25ZM13.7425 6.25C12.7536 6.25 11.7869 6.54324 10.9646 7.09265C10.1424 7.64206 9.50154 8.42295 9.1231 9.33658C8.74466 10.2502 8.64565 11.2555 8.83857 12.2255C9.0315 13.1954 9.5077 14.0863 10.207 14.7855C10.9062 15.4848 11.7971 15.961 12.767 16.1539C13.737 16.3469 14.7423 16.2478 15.6559 15.8694C16.5695 15.491 17.3504 14.8501 17.8998 14.0279C18.4493 13.2056 18.7425 12.2389 18.7425 11.25C18.741 9.92438 18.2137 8.65349 17.2764 7.71614C16.339 6.77879 15.0681 6.25152 13.7425 6.25ZM13.7425 15C13.0008 15 12.2758 14.7801 11.6591 14.368C11.0424 13.956 10.5618 13.3703 10.278 12.6851C9.99412 11.9998 9.91986 11.2458 10.0646 10.5184C10.2092 9.79098 10.5664 9.1228 11.0908 8.59835C11.6153 8.0739 12.2835 7.71675 13.0109 7.57206C13.7383 7.42736 14.4923 7.50162 15.1776 7.78545C15.8628 8.06928 16.4485 8.54993 16.8605 9.16661C17.2726 9.7833 17.4925 10.5083 17.4925 11.25C17.4914 12.2442 17.096 13.1974 16.393 13.9005C15.6899 14.6035 14.7367 14.9989 13.7425 15ZM17.2789 7.71485C17.0699 7.50594 16.843 7.3158 16.6008 7.14661C15.6314 6.49437 14.4674 6.19485 13.3035 6.29818C12.1397 6.40151 11.0467 6.90141 10.2073 7.71424C9.34624 8.57525 8.82891 9.72088 8.75238 10.9362C8.67585 12.1515 9.0454 13.353 9.79169 14.3152L5.95948 18.1474C5.9356 18.1846 5.90124 18.2138 5.86074 18.2315C5.82024 18.2491 5.77542 18.2544 5.73194 18.2465C5.68846 18.2387 5.64827 18.2182 5.61646 18.1875C5.58465 18.1569 5.56265 18.1175 5.55323 18.0743L4.8425 16.1759C4.81846 16.1287 4.77955 16.0906 4.73178 16.0677C4.684 16.0447 4.63001 16.0381 4.57811 16.0489C4.52622 16.0596 4.47929 16.0872 4.44457 16.1272C4.40985 16.1672 4.38926 16.2176 4.38596 16.2705L3.75 21.2408L8.72033 20.6048C8.77322 20.6015 8.82357 20.5809 8.86361 20.5462C8.90366 20.5115 8.93117 20.4646 8.94193 20.4127C8.95268 20.3608 8.94607 20.3068 8.92313 20.259C8.90018 20.2112 8.86216 20.1723 8.81493 20.1483L6.9165 19.4376C6.87331 19.4282 6.83388 19.4061 6.80321 19.3743C6.77254 19.3425 6.752 19.3022 6.74419 19.2587C6.73638 19.2152 6.74165 19.1704 6.75934 19.1298C6.77703 19.0893 6.80634 19.055 6.84356 19.0311L11.0978 14.7736L11.5208 14.3323L11.0893 13.8996C10.3867 13.1962 9.99213 12.2426 9.99248 11.2484C9.99282 10.2542 10.3877 9.30121 11.0908 8.59835C11.7204 7.98915 12.5403 7.61415 13.4129 7.53661C14.2855 7.45907 15.1583 7.68336 15.8854 8.172C16.0675 8.29899 16.238 8.44175 16.3951 8.59864C16.9195 9.12316 17.2766 9.7914 17.4212 10.5189C17.5658 11.2463 17.4914 12.0003 17.2075 12.6855C16.9236 13.3707 16.4428 13.9564 15.826 14.3683C15.2093 14.7803 14.4842 15.0001 13.7425 15H13.1175V20H14.3675V16.2115C15.2957 16.0944 16.1725 15.7193 16.8981 15.1288C17.6238 14.5383 18.1692 13.756 18.4725 12.871C18.7757 11.9859 18.8246 11.0335 18.6136 10.1221C18.4026 9.21061 17.9402 8.37661 17.2789 7.71485Z" fill="#2A5DFF"/>
<path d="M13.7425 15C13.0008 15 12.2758 14.7801 11.6591 14.368C11.0424 13.956 10.5618 13.3703 10.278 12.6851C9.99412 11.9998 9.91986 11.2458 10.0646 10.5184C10.2092 9.79098 10.5664 9.1228 11.0908 8.59835M13.7425 15C14.7367 14.9989 15.6899 14.6035 16.393 13.9005C17.096 13.1974 17.4914 12.2442 17.4925 11.25C17.4925 10.5083 17.2726 9.7833 16.8605 9.16661C16.4485 8.54993 15.8628 8.06928 15.1776 7.78545C14.4923 7.50162 13.7383 7.42736 13.0109 7.57206C12.2835 7.71675 11.6153 8.0739 11.0908 8.59835M13.7425 15C14.4842 15.0001 15.2093 14.7803 15.826 14.3683C16.4428 13.9564 16.9236 13.3707 17.2075 12.6855C17.4914 12.0003 17.5658 11.2463 17.4212 10.5189C17.2766 9.7914 16.9195 9.12316 16.3951 8.59864C16.238 8.44175 16.0675 8.29899 15.8854 8.172C15.1583 7.68336 14.2855 7.45907 13.4129 7.53661C12.5403 7.61415 11.7204 7.98915 11.0908 8.59835M13.7425 15H13.1175V20H14.3675V16.2115C15.2957 16.0944 16.1725 15.7193 16.8981 15.1288C17.6238 14.5383 18.1692 13.756 18.4725 12.871C18.7757 11.9859 18.8246 11.0335 18.6136 10.1221C18.4026 9.21061 17.9402 8.37661 17.2789 7.71485C17.0699 7.50594 16.843 7.3158 16.6008 7.14661C15.6314 6.49437 14.4674 6.19485 13.3035 6.29818C12.1397 6.40151 11.0467 6.90141 10.2073 7.71424C9.34624 8.57525 8.82891 9.72088 8.75238 10.9362C8.67585 12.1515 9.0454 13.353 9.79169 14.3152L5.95948 18.1474C5.9356 18.1846 5.90124 18.2138 5.86074 18.2315C5.82024 18.2491 5.77542 18.2544 5.73194 18.2465C5.68846 18.2387 5.64827 18.2182 5.61646 18.1875C5.58465 18.1569 5.56265 18.1175 5.55323 18.0743L4.8425 16.1759C4.81846 16.1287 4.77955 16.0906 4.73178 16.0677C4.684 16.0447 4.63001 16.0381 4.57811 16.0489C4.52622 16.0596 4.47929 16.0872 4.44457 16.1272C4.40985 16.1672 4.38926 16.2176 4.38596 16.2705L3.75 21.2408L8.72033 20.6048C8.77322 20.6015 8.82357 20.5809 8.86361 20.5462C8.90365 20.5115 8.93117 20.4646 8.94193 20.4127C8.95268 20.3608 8.94607 20.3068 8.92313 20.259C8.90018 20.2112 8.86216 20.1723 8.81493 20.1483L6.9165 19.4376C6.87331 19.4282 6.83388 19.4061 6.80321 19.3743C6.77254 19.3425 6.752 19.3022 6.74419 19.2587C6.73638 19.2152 6.74165 19.1704 6.75934 19.1298C6.77703 19.0893 6.80634 19.055 6.84356 19.0311L11.0978 14.7736L11.5208 14.3323L11.0893 13.8996C10.3867 13.1962 9.99213 12.2426 9.99248 11.2484C9.99282 10.2542 10.3877 9.30121 11.0908 8.59835M13.7425 6.5C14.682 6.5 15.6003 6.77858 16.3815 7.30052C17.1626 7.82246 17.7714 8.5643 18.1309 9.43225C18.4904 10.3002 18.5845 11.2553 18.4012 12.1767C18.218 13.0981 17.7656 13.9445 17.1013 14.6088C16.437 15.2731 15.5906 15.7254 14.6692 15.9087C13.7478 16.092 12.7927 15.9979 11.9248 15.6384C11.0568 15.2789 10.315 14.6701 9.79302 13.889C9.27108 13.1078 8.9925 12.1895 8.9925 11.25C8.99392 9.99066 9.49482 8.7833 10.3853 7.89281C11.2758 7.00232 12.4832 6.50142 13.7425 6.5ZM13.7425 15.25C14.5336 15.25 15.307 15.0154 15.9648 14.5759C16.6226 14.1364 17.1353 13.5116 17.438 12.7807C17.7408 12.0498 17.82 11.2456 17.6656 10.4696C17.5113 9.69372 17.1303 8.98098 16.5709 8.42157C16.0115 7.86216 15.2988 7.4812 14.5229 7.32686C13.7469 7.17252 12.9427 7.25173 12.2118 7.55448C11.4809 7.85723 10.8561 8.36992 10.4166 9.02772C9.9771 9.68552 9.7425 10.4589 9.7425 11.25C9.7437 12.3105 10.1655 13.3272 10.9154 14.0771C11.6653 14.827 12.682 15.2488 13.7425 15.25ZM13.7425 6.25C12.7536 6.25 11.7869 6.54324 10.9646 7.09265C10.1424 7.64206 9.50154 8.42295 9.1231 9.33658C8.74466 10.2502 8.64565 11.2555 8.83857 12.2255C9.0315 13.1954 9.5077 14.0863 10.207 14.7855C10.9062 15.4848 11.7971 15.961 12.767 16.1539C13.737 16.3469 14.7423 16.2478 15.6559 15.8694C16.5695 15.491 17.3504 14.8501 17.8998 14.0279C18.4493 13.2056 18.7425 12.2389 18.7425 11.25C18.741 9.92438 18.2137 8.65349 17.2764 7.71614C16.339 6.77879 15.0681 6.25152 13.7425 6.25Z" stroke="#2A5DFF" stroke-width="0.5"/>
</svg>
