<svg width="25" height="25" viewBox="0 0 25 25" fill="none" xmlns="http://www.w3.org/2000/svg">
<path d="M8.75 7.75C9.68946 7.75 10.6078 8.02858 11.389 8.55052C12.1701 9.07246 12.7789 9.8143 13.1384 10.6823C13.4979 11.5502 13.592 12.5053 13.4087 13.4267C13.2255 14.3481 12.7731 15.1945 12.1088 15.8588C11.4445 16.5231 10.5981 16.9755 9.67668 17.1587C8.75527 17.342 7.8002 17.2479 6.93226 16.8884C6.06431 16.5289 5.32246 15.9201 4.80052 15.139C4.27858 14.3578 4 13.4395 4 12.5C4.00142 11.2407 4.50232 10.0333 5.39281 9.14281C6.2833 8.25232 7.49066 7.75142 8.75 7.75ZM8.75 16.5C9.54113 16.5 10.3145 16.2654 10.9723 15.8259C11.6301 15.3864 12.1428 14.7616 12.4455 14.0307C12.7483 13.2998 12.8275 12.4956 12.6731 11.7196C12.5188 10.9437 12.1378 10.231 11.5784 9.67157C11.019 9.11216 10.3063 8.7312 9.53036 8.57686C8.75444 8.42252 7.95017 8.50173 7.21927 8.80448C6.48836 9.10723 5.86365 9.61992 5.42412 10.2777C4.9846 10.9355 4.75 11.7089 4.75 12.5C4.7512 13.5605 5.17301 14.5772 5.9229 15.3271C6.67278 16.077 7.6895 16.4988 8.75 16.5ZM8.75 7.5C7.7611 7.5 6.7944 7.79324 5.97215 8.34265C5.14991 8.89206 4.50904 9.67295 4.1306 10.5866C3.75217 11.5002 3.65315 12.5055 3.84608 13.4755C4.039 14.4454 4.51521 15.3363 5.21447 16.0355C5.91373 16.7348 6.80465 17.211 7.77455 17.4039C8.74446 17.5969 9.74979 17.4978 10.6634 17.1194C11.5771 16.741 12.3579 16.1001 12.9074 15.2779C13.4568 14.4556 13.75 13.4889 13.75 12.5C13.7485 11.1744 13.2212 9.90349 12.2839 8.96614C11.3465 8.02879 10.0756 7.50152 8.75 7.5ZM8.75 16.25C8.00832 16.25 7.2833 16.0301 6.66661 15.618C6.04993 15.206 5.56928 14.6203 5.28545 13.9351C5.00163 13.2498 4.92736 12.4958 5.07206 11.7684C5.21675 11.041 5.5739 10.3728 6.09835 9.84835C6.6228 9.3239 7.29098 8.96675 8.01841 8.82206C8.74584 8.67736 9.49984 8.75162 10.1851 9.03545C10.8703 9.31928 11.456 9.79993 11.868 10.4166C12.2801 11.0333 12.5 11.7583 12.5 12.5C12.4989 13.4942 12.1035 14.4474 11.4005 15.1505C10.6974 15.8535 9.74423 16.2489 8.75 16.25ZM18.5472 9.4352C18.5075 9.40011 18.4573 9.37906 18.4045 9.37529C18.3516 9.37152 18.2989 9.38523 18.2546 9.41432C18.2103 9.44342 18.1768 9.48627 18.1593 9.53628C18.1417 9.58629 18.1411 9.64069 18.1575 9.69109L18.9974 11.5359C19.0212 11.5732 19.0335 11.6166 19.0327 11.6608C19.0319 11.705 19.018 11.748 18.9927 11.7843C18.9675 11.8206 18.932 11.8486 18.8908 11.8647C18.8497 11.8809 18.8046 11.8845 18.7615 11.875H12.5V12.5C12.5 12.9925 12.403 13.4801 12.2146 13.9351C12.0261 14.3901 11.7499 14.8035 11.4017 15.1517C11.0535 15.4999 10.6401 15.7761 10.1851 15.9646C9.7301 16.153 9.24246 16.25 8.75 16.25H8.125V21.25H9.375V17.4615C10.4765 17.3222 11.5004 16.8205 12.2855 16.0355C13.0705 15.2504 13.5722 14.2265 13.7116 13.125H18.7615C18.8046 13.1155 18.8497 13.1191 18.8908 13.1353C18.932 13.1514 18.9675 13.1794 18.9927 13.2157C19.018 13.252 19.0319 13.295 19.0327 13.3392C19.0335 13.3834 19.0212 13.4268 18.9974 13.4641L18.1575 15.3089C18.1411 15.3593 18.1417 15.4137 18.1593 15.4637C18.1768 15.5137 18.2103 15.5566 18.2546 15.5857C18.2989 15.6148 18.3516 15.6285 18.4045 15.6247C18.4573 15.6209 18.5075 15.5999 18.5472 15.5648L22.5115 12.5L18.5472 9.4352Z" fill="#2A5DFF"/>
</svg>
