<svg width="25" height="25" viewBox="0 0 25 25" fill="none" xmlns="http://www.w3.org/2000/svg">
<path d="M13.7184 9.00002C14.6579 9.00002 15.5762 9.27861 16.3574 9.80054C17.1385 10.3225 17.7473 11.0643 18.1068 11.9323C18.4664 12.8002 18.5604 13.7553 18.3771 14.6767C18.1939 15.5981 17.7415 16.4445 17.0772 17.1088C16.4129 17.7731 15.5665 18.2255 14.6451 18.4088C13.7237 18.592 12.7686 18.498 11.9007 18.1385C11.0327 17.7789 10.2909 17.1701 9.76893 16.389C9.247 15.6079 8.96841 14.6895 8.96841 13.75C8.96983 12.4907 9.47073 11.2833 10.3612 10.3928C11.2517 9.50234 12.4591 9.00144 13.7184 9.00002ZM13.7184 17.75C14.5095 17.75 15.2829 17.5154 15.9407 17.0759C16.5985 16.6364 17.1112 16.0117 17.4139 15.2808C17.7167 14.5499 17.7959 13.7456 17.6416 12.9697C17.4872 12.1937 17.1062 11.481 16.5468 10.9216C15.9874 10.3622 15.2747 9.98122 14.4988 9.82688C13.7228 9.67254 12.9186 9.75176 12.1877 10.0545C11.4568 10.3573 10.8321 10.8699 10.3925 11.5277C9.95301 12.1855 9.71841 12.9589 9.71841 13.75C9.71961 14.8105 10.1414 15.8272 10.8913 16.5771C11.6412 17.327 12.6579 17.7488 13.7184 17.75ZM13.7184 8.75002C12.7295 8.75002 11.7628 9.04327 10.9406 9.59268C10.1183 10.1421 9.47745 10.923 9.09902 11.8366C8.72058 12.7502 8.62156 13.7556 8.81449 14.7255C9.00741 15.6954 9.48362 16.5863 10.1829 17.2856C10.8821 17.9848 11.7731 18.461 12.743 18.654C13.7129 18.8469 14.7182 18.7479 15.6318 18.3694C16.5455 17.991 17.3264 17.3501 17.8758 16.5279C18.4252 15.7056 18.7184 14.7389 18.7184 13.75C18.7169 12.4244 18.1896 11.1535 17.2523 10.2162C16.3149 9.27881 15.044 8.75154 13.7184 8.75002ZM13.7184 17.5C12.9767 17.5 12.2517 17.2801 11.635 16.868C11.0183 16.456 10.5377 15.8703 10.2539 15.1851C9.97004 14.4999 9.89577 13.7459 10.0405 13.0184C10.1852 12.291 10.5423 11.6228 11.0668 11.0984C11.5912 10.5739 12.2594 10.2168 12.9868 10.0721C13.7143 9.92738 14.4683 10.0016 15.1535 10.2855C15.8387 10.5693 16.4244 11.05 16.8364 11.6666C17.2485 12.2833 17.4684 13.0083 17.4684 13.75C17.4673 14.7443 17.0719 15.6974 16.3689 16.4005C15.6658 17.1035 14.7126 17.4989 13.7184 17.5ZM17.2542 10.2149C17.0454 10.006 16.8187 9.81583 16.5767 9.64664C15.6965 9.05122 14.6521 8.74588 13.5898 8.77335C12.5274 8.80082 11.5003 9.15973 10.652 9.79984L6.84179 5.99359C6.80537 5.96944 6.77689 5.93509 6.7599 5.89483C6.74291 5.85457 6.73817 5.8102 6.74626 5.76727C6.75436 5.72433 6.77494 5.68473 6.80542 5.65343C6.8359 5.62213 6.87494 5.60051 6.91765 5.59127L8.816 4.88055C8.86325 4.85652 8.90129 4.81762 8.92425 4.76984C8.94721 4.72206 8.95383 4.66806 8.94307 4.61615C8.93231 4.56424 8.90479 4.51731 8.86473 4.48259C8.82467 4.44787 8.77431 4.42729 8.7214 4.42401L3.75106 3.78802L4.38713 8.75834C4.39041 8.81123 4.41099 8.86158 4.44571 8.90162C4.48042 8.94167 4.52734 8.96919 4.57923 8.97994C4.63113 8.9907 4.68512 8.98409 4.73289 8.96114C4.78066 8.93819 4.81955 8.90017 4.84359 8.85294L5.55427 6.95452C5.5637 6.91133 5.58573 6.8719 5.61757 6.84123C5.64941 6.81056 5.68964 6.79002 5.73315 6.78221C5.77667 6.77441 5.82152 6.77968 5.86204 6.79737C5.90256 6.81506 5.93692 6.84437 5.96077 6.88159L10.6258 11.5399L11.0668 11.0984C11.6962 10.489 12.5161 10.1138 13.3888 10.0363C14.2614 9.95875 15.1343 10.1832 15.8613 10.672C16.0432 10.799 16.2135 10.9418 16.3704 11.0986C16.8949 11.6231 17.2521 12.2913 17.3968 13.0187C17.5415 13.7462 17.4672 14.5002 17.1834 15.1855C16.8995 15.8707 16.4187 16.4564 15.802 16.8684C15.1852 17.2803 14.4601 17.5002 13.7184 17.5H13.0934V22.5H14.3434V18.7116C15.2717 18.5945 16.1485 18.2194 16.8742 17.6289C17.5999 17.0384 18.1453 16.2561 18.4485 15.371C18.7517 14.4858 18.8006 13.5334 18.5894 12.6219C18.3783 11.7105 17.9157 10.8765 17.2542 10.2149Z" fill="#2A5DFF"/>
</svg>
