<svg width="25" height="25" viewBox="0 0 25 25" fill="none" xmlns="http://www.w3.org/2000/svg">
<path d="M12.5 10.25C13.4395 10.25 14.3578 10.5286 15.139 11.0505C15.9201 11.5725 16.5289 12.3143 16.8884 13.1823C17.2479 14.0502 17.342 15.0053 17.1587 15.9267C16.9755 16.8481 16.5231 17.6945 15.8588 18.3588C15.1945 19.0231 14.3481 19.4755 13.4267 19.6587C12.5053 19.842 11.5502 19.7479 10.6823 19.3884C9.81431 19.0289 9.07246 18.4201 8.55052 17.639C8.02858 16.8578 7.75 15.9395 7.75 15C7.75141 13.7407 8.25231 12.5333 9.1428 11.6428C10.0333 10.7523 11.2407 10.2514 12.5 10.25ZM12.5 19C13.2911 19 14.0645 18.7654 14.7223 18.3259C15.3801 17.8864 15.8928 17.2616 16.1955 16.5307C16.4983 15.7998 16.5775 14.9956 16.4231 14.2196C16.2688 13.4437 15.8878 12.731 15.3284 12.1716C14.769 11.6122 14.0563 11.2312 13.2804 11.0769C12.5044 10.9225 11.7002 11.0017 10.9693 11.3045C10.2384 11.6072 9.61365 12.1199 9.17412 12.7777C8.7346 13.4355 8.5 14.2089 8.5 15C8.5012 16.0605 8.92301 17.0772 9.6729 17.8271C10.4228 18.577 11.4395 18.9988 12.5 19ZM12.5 10C11.5111 10 10.5444 10.2932 9.72215 10.8427C8.8999 11.3921 8.25904 12.173 7.8806 13.0866C7.50216 14.0002 7.40315 15.0055 7.59607 15.9755C7.789 16.9454 8.2652 17.8363 8.96447 18.5355C9.66373 19.2348 10.5546 19.711 11.5245 19.9039C12.4945 20.0969 13.4998 19.9978 14.4134 19.6194C15.327 19.241 16.1079 18.6001 16.6573 17.7779C17.2068 16.9556 17.5 15.9889 17.5 15C17.4985 13.6744 16.9712 12.4035 16.0339 11.4661C15.0965 10.5288 13.8256 10.0015 12.5 10ZM12.5 18.75C11.7583 18.75 11.0333 18.5301 10.4166 18.118C9.79993 17.706 9.31928 17.1203 9.03545 16.4351C8.75162 15.7498 8.67736 14.9958 8.82206 14.2684C8.96675 13.541 9.3239 12.8728 9.84835 12.3483C10.3728 11.8239 11.041 11.4668 11.7684 11.3221C12.4958 11.1774 13.2498 11.2516 13.9351 11.5355C14.6203 11.8193 15.206 12.2999 15.618 12.9166C16.0301 13.5333 16.25 14.2583 16.25 15C16.2489 15.9942 15.8535 16.9474 15.1505 17.6505C14.4474 18.3535 13.4942 18.7489 12.5 18.75ZM16.0382 11.4667C15.2545 10.6777 14.2286 10.1748 13.125 10.0385V6.25519C13.1155 6.21199 13.1191 6.16697 13.1353 6.1258C13.1514 6.08464 13.1794 6.04919 13.2157 6.02393C13.252 5.99868 13.295 5.98476 13.3392 5.98393C13.3834 5.98311 13.4268 5.99541 13.4641 6.01929L15.3089 6.85913C15.3593 6.87554 15.4137 6.87493 15.4637 6.85738C15.5138 6.83983 15.5566 6.80631 15.5857 6.762C15.6148 6.71769 15.6285 6.66505 15.6247 6.61217C15.621 6.5593 15.5999 6.50914 15.5648 6.46941L12.5 2.50519L9.4352 6.46943C9.40011 6.50915 9.37906 6.55931 9.37529 6.61218C9.37152 6.66505 9.38523 6.71769 9.41432 6.762C9.44342 6.8063 9.48627 6.83981 9.53628 6.85737C9.58629 6.87492 9.64069 6.87554 9.69109 6.85914L11.5361 6.0193C11.5733 5.99546 11.6167 5.98318 11.6609 5.98402C11.7051 5.98487 11.7481 5.99879 11.7843 6.02404C11.8206 6.04929 11.8486 6.08472 11.8647 6.12586C11.8809 6.16701 11.8844 6.21201 11.875 6.25519V11.25H12.5C13.4946 11.25 14.4484 11.6451 15.1517 12.3483C15.8549 13.0516 16.25 14.0054 16.25 15C16.25 15.9946 15.8549 16.9484 15.1517 17.6517C14.4484 18.3549 13.4946 18.75 12.5 18.75H11.875V22.5H13.125V19.9615C14.053 19.8445 14.9296 19.4695 15.6551 18.8792C16.3807 18.2889 16.9261 17.507 17.2296 16.6222C17.533 15.7374 17.5822 14.7853 17.3716 13.874C17.161 12.9626 16.6991 12.1286 16.0382 11.4667Z" fill="#2A5DFF"/>
</svg>
