<svg width="25" height="25" viewBox="0 0 25 25" fill="none" xmlns="http://www.w3.org/2000/svg">
<path d="M13.7184 8.99998C14.6579 8.99998 15.5762 9.27856 16.3574 9.8005C17.1385 10.3224 17.7473 11.0643 18.1068 11.9322C18.4664 12.8002 18.5604 13.7552 18.3771 14.6767C18.1939 15.5981 17.7415 16.4444 17.0772 17.1087C16.4129 17.773 15.5665 18.2254 14.6451 18.4087C13.7237 18.592 12.7686 18.4979 11.9007 18.1384C11.0327 17.7789 10.2909 17.1701 9.76893 16.3889C9.247 15.6078 8.96841 14.6894 8.96841 13.75C8.96983 12.4906 9.47073 11.2833 10.3612 10.3928C11.2517 9.50229 12.4591 9.00139 13.7184 8.99998ZM13.7184 17.75C14.5095 17.75 15.2829 17.5154 15.9407 17.0759C16.5985 16.6363 17.1112 16.0116 17.4139 15.2807C17.7167 14.5498 17.7959 13.7455 17.6416 12.9696C17.4872 12.1937 17.1062 11.481 16.5468 10.9215C15.9874 10.3621 15.2747 9.98118 14.4988 9.82683C13.7228 9.67249 12.9186 9.75171 12.1877 10.0545C11.4568 10.3572 10.8321 10.8699 10.3925 11.5277C9.95301 12.1855 9.71841 12.9589 9.71841 13.75C9.71961 14.8105 10.1414 15.8272 10.8913 16.5771C11.6412 17.327 12.6579 17.7488 13.7184 17.75ZM13.7184 8.74998C12.7295 8.74998 11.7628 9.04322 10.9406 9.59263C10.1183 10.142 9.47745 10.9229 9.09902 11.8366C8.72058 12.7502 8.62156 13.7555 8.81449 14.7254C9.00741 15.6953 9.48362 16.5862 10.1829 17.2855C10.8821 17.9848 11.7731 18.461 12.743 18.6539C13.7129 18.8468 14.7182 18.7478 15.6318 18.3694C16.5455 17.9909 17.3264 17.3501 17.8758 16.5278C18.4252 15.7056 18.7184 14.7389 18.7184 13.75C18.7169 12.4244 18.1896 11.1535 17.2523 10.2161C16.3149 9.27876 15.044 8.75149 13.7184 8.74998ZM13.7184 17.5C12.9767 17.5 12.2517 17.28 11.635 16.868C11.0183 16.4559 10.5377 15.8703 10.2539 15.185C9.97004 14.4998 9.89577 13.7458 10.0405 13.0184C10.1852 12.291 10.5423 11.6228 11.0668 11.0983C11.5912 10.5739 12.2594 10.2167 12.9868 10.072C13.7143 9.92734 14.4683 10.0016 15.1535 10.2854C15.8387 10.5693 16.4244 11.0499 16.8364 11.6666C17.2485 12.2833 17.4684 13.0083 17.4684 13.75C17.4673 14.7442 17.0719 15.6974 16.3689 16.4004C15.6658 17.1035 14.7126 17.4989 13.7184 17.5ZM6.84466 5.99768C6.80746 5.97381 6.77817 5.93945 6.76049 5.89894C6.74281 5.85843 6.73754 5.81359 6.74535 5.77009C6.75316 5.72658 6.77369 5.68637 6.80435 5.65453C6.83501 5.62269 6.87442 5.60066 6.9176 5.59123L8.816 4.88049C8.86324 4.85645 8.90127 4.81755 8.92422 4.76977C8.94717 4.722 8.95378 4.668 8.94302 4.6161C8.93226 4.5642 8.90474 4.51727 8.86469 4.48256C8.82463 4.44784 8.77428 4.42726 8.72138 4.42398L3.75108 3.78796L4.38709 8.75828C4.39037 8.81118 4.41095 8.86154 4.44567 8.90159C4.48039 8.94164 4.52731 8.96916 4.57921 8.97992C4.63111 8.99068 4.68511 8.98407 4.73288 8.96112C4.78066 8.93817 4.81956 8.90014 4.8436 8.8529L5.55428 6.9545C5.5637 6.9113 5.58573 6.87187 5.61757 6.8412C5.64941 6.81052 5.68964 6.78998 5.73316 6.78218C5.77667 6.77437 5.82153 6.77964 5.86205 6.79733C5.90257 6.81503 5.93693 6.84434 5.96079 6.88156M14.3434 18.7116C15.2717 18.5945 16.1485 18.2194 16.8742 17.6289C17.5999 17.0383 18.1453 16.2561 18.4485 15.3709C18.7517 14.4858 18.8006 13.5334 18.5894 12.6219C18.3783 11.7105 17.9157 10.8765 17.2542 10.2149C17.0454 10.006 16.8187 9.81582 16.5767 9.64663C15.6965 9.05121 14.6521 8.74587 13.5898 8.77334C12.5274 8.80081 11.5003 9.15971 10.652 9.79983L5.96081 5.11358L5.07706 5.99858L10.6258 11.54L11.0668 11.0983C11.6962 10.4889 12.5161 10.1139 13.3888 10.0363C14.2615 9.95877 15.1343 10.1832 15.8614 10.672C16.0433 10.799 16.2136 10.9418 16.3704 11.0987C16.8949 11.6231 17.2521 12.2913 17.3968 13.0188C17.5415 13.7462 17.4672 14.5002 17.1833 15.1855C16.8994 15.8707 16.4187 16.4563 15.8019 16.8683C15.1852 17.2803 14.4601 17.5001 13.7184 17.5H13.0934V22.5H14.3434L14.3434 18.7116Z" fill="#2A5DFF"/>
<path d="M13.7184 17.5C12.9767 17.5 12.2517 17.28 11.635 16.868C11.0183 16.4559 10.5377 15.8703 10.2539 15.185C9.97004 14.4998 9.89577 13.7458 10.0405 13.0184C10.1852 12.291 10.5423 11.6228 11.0668 11.0983M13.7184 17.5C14.7126 17.4989 15.6658 17.1035 16.3689 16.4004C17.0719 15.6974 17.4673 14.7442 17.4684 13.75C17.4684 13.0083 17.2485 12.2833 16.8364 11.6666C16.4244 11.0499 15.8387 10.5693 15.1535 10.2854C14.4683 10.0016 13.7143 9.92734 12.9868 10.072C12.2594 10.2167 11.5912 10.5739 11.0668 11.0983M13.7184 17.5C14.4601 17.5001 15.1852 17.2803 15.8019 16.8683C16.4187 16.4563 16.8994 15.8707 17.1833 15.1855C17.4672 14.5002 17.5415 13.7462 17.3968 13.0188C17.2521 12.2913 16.8949 11.6231 16.3704 11.0987C16.2136 10.9418 16.0433 10.799 15.8614 10.672C15.1343 10.1832 14.2615 9.95877 13.3888 10.0363C12.5161 10.1139 11.6962 10.4889 11.0668 11.0983M13.7184 17.5H13.0934V22.5H14.3434L14.3434 18.7116C15.2717 18.5945 16.1485 18.2194 16.8742 17.6289C17.5999 17.0383 18.1453 16.2561 18.4485 15.3709C18.7517 14.4858 18.8006 13.5334 18.5894 12.6219C18.3783 11.7105 17.9157 10.8765 17.2542 10.2149C17.0454 10.006 16.8187 9.81582 16.5767 9.64663C15.6965 9.05121 14.6521 8.74587 13.5898 8.77334C12.5274 8.80081 11.5003 9.15971 10.652 9.79983L5.96081 5.11358L5.07706 5.99858L10.6258 11.54L11.0668 11.0983M6.84466 5.99768C6.80746 5.97381 6.77817 5.93945 6.76049 5.89894C6.74281 5.85843 6.73754 5.81359 6.74535 5.77009C6.75316 5.72658 6.77369 5.68637 6.80435 5.65453C6.83501 5.62269 6.87442 5.60066 6.9176 5.59123L8.816 4.88049C8.86324 4.85645 8.90127 4.81755 8.92422 4.76977C8.94717 4.722 8.95378 4.668 8.94302 4.6161C8.93226 4.5642 8.90474 4.51727 8.86469 4.48256C8.82463 4.44784 8.77428 4.42726 8.72138 4.42398L3.75108 3.78796L4.38709 8.75828C4.39037 8.81118 4.41095 8.86154 4.44567 8.90159C4.48039 8.94164 4.52731 8.96916 4.57921 8.97992C4.63111 8.99068 4.68511 8.98407 4.73288 8.96112C4.78066 8.93817 4.81956 8.90014 4.8436 8.8529L5.55428 6.9545C5.5637 6.9113 5.58573 6.87187 5.61757 6.8412C5.64941 6.81052 5.68964 6.78998 5.73316 6.78218C5.77667 6.77437 5.82153 6.77964 5.86205 6.79733C5.90257 6.81503 5.93693 6.84434 5.96079 6.88156M13.7184 8.99998C14.6579 8.99998 15.5762 9.27856 16.3574 9.8005C17.1385 10.3224 17.7473 11.0643 18.1068 11.9322C18.4664 12.8002 18.5604 13.7552 18.3771 14.6767C18.1939 15.5981 17.7415 16.4444 17.0772 17.1087C16.4129 17.773 15.5665 18.2254 14.6451 18.4087C13.7237 18.592 12.7686 18.4979 11.9007 18.1384C11.0327 17.7789 10.2909 17.1701 9.76893 16.3889C9.247 15.6078 8.96841 14.6894 8.96841 13.75C8.96983 12.4906 9.47073 11.2833 10.3612 10.3928C11.2517 9.50229 12.4591 9.00139 13.7184 8.99998ZM13.7184 17.75C14.5095 17.75 15.2829 17.5154 15.9407 17.0759C16.5985 16.6363 17.1112 16.0116 17.4139 15.2807C17.7167 14.5498 17.7959 13.7455 17.6416 12.9696C17.4872 12.1937 17.1062 11.481 16.5468 10.9215C15.9874 10.3621 15.2747 9.98118 14.4988 9.82683C13.7229 9.67249 12.9186 9.75171 12.1877 10.0545C11.4568 10.3572 10.8321 10.8699 10.3925 11.5277C9.95301 12.1855 9.71841 12.9589 9.71841 13.75C9.71961 14.8105 10.1414 15.8272 10.8913 16.5771C11.6412 17.327 12.6579 17.7488 13.7184 17.75ZM13.7184 8.74998C12.7295 8.74998 11.7628 9.04322 10.9406 9.59263C10.1183 10.142 9.47745 10.9229 9.09902 11.8366C8.72058 12.7502 8.62156 13.7555 8.81449 14.7254C9.00741 15.6953 9.48362 16.5862 10.1829 17.2855C10.8821 17.9848 11.7731 18.461 12.743 18.6539C13.7129 18.8468 14.7182 18.7478 15.6318 18.3694C16.5455 17.9909 17.3264 17.3501 17.8758 16.5278C18.4252 15.7056 18.7184 14.7389 18.7184 13.75C18.7169 12.4244 18.1896 11.1535 17.2523 10.2161C16.3149 9.27876 15.044 8.75149 13.7184 8.74998Z" stroke="#2A5DFF" stroke-width="0.5"/>
</svg>
