<svg width="25" height="25" viewBox="0 0 25 25" fill="none" xmlns="http://www.w3.org/2000/svg">
<path d="M11.2141 8.99999C12.1536 8.99999 13.0719 9.27857 13.8531 9.80051C14.6342 10.3224 15.243 11.0643 15.6025 11.9322C15.962 12.8002 16.0561 13.7553 15.8728 14.6767C15.6895 15.5981 15.2372 16.4444 14.5729 17.1087C13.9086 17.773 13.0622 18.2254 12.1408 18.4087C11.2194 18.592 10.2643 18.4979 9.39635 18.1384C8.5284 17.7789 7.78655 17.1701 7.26462 16.3889C6.74268 15.6078 6.4641 14.6895 6.4641 13.75C6.46551 12.4906 6.96641 11.2833 7.8569 10.3928C8.7474 9.5023 9.95475 9.0014 11.2141 8.99999ZM11.2141 17.75C12.0052 17.75 12.7786 17.5154 13.4364 17.0759C14.0942 16.6363 14.6069 16.0116 14.9096 15.2807C15.2124 14.5498 15.2916 13.7456 15.1372 12.9696C14.9829 12.1937 14.6019 11.481 14.0425 10.9216C13.4831 10.3622 12.7704 9.98119 11.9945 9.82685C11.2185 9.67251 10.4143 9.75172 9.68336 10.0545C8.95246 10.3572 8.32775 10.8699 7.88822 11.5277C7.44869 12.1855 7.2141 12.9589 7.2141 13.75C7.2153 14.8105 7.63711 15.8272 8.387 16.5771C9.13688 17.327 10.1536 17.7488 11.2141 17.75ZM11.2141 8.74999C10.2252 8.74999 9.25849 9.04323 8.43625 9.59264C7.614 10.142 6.97314 10.9229 6.5947 11.8366C6.21626 12.7502 6.11725 13.7555 6.31017 14.7254C6.5031 15.6953 6.9793 16.5863 7.67856 17.2855C8.37783 17.9848 9.26874 18.461 10.2386 18.6539C11.2086 18.8468 12.2139 18.7478 13.1275 18.3694C14.0411 17.9909 14.822 17.3501 15.3714 16.5278C15.9209 15.7056 16.2141 14.7389 16.2141 13.75C16.2126 12.4244 15.6853 11.1535 14.748 10.2161C13.8106 9.27877 12.5397 8.7515 11.2141 8.74999ZM11.2141 17.5C10.4724 17.5 9.74739 17.2801 9.13071 16.868C8.51403 16.4559 8.03338 15.8703 7.74955 15.1851C7.46572 14.4998 7.39146 13.7458 7.53615 13.0184C7.68085 12.291 8.038 11.6228 8.56245 11.0983C9.08689 10.5739 9.75508 10.2167 10.4825 10.072C11.2099 9.92735 11.9639 10.0016 12.6492 10.2854C13.3344 10.5693 13.9201 11.0499 14.3321 11.6666C14.7442 12.2833 14.9641 13.0083 14.9641 13.75C14.963 14.7442 14.5676 15.6974 13.8646 16.4004C13.1615 17.1035 12.2083 17.4989 11.2141 17.5ZM16.3156 4.31408C16.2627 4.31736 16.2123 4.33794 16.1723 4.37266C16.1323 4.40737 16.1047 4.45429 16.094 4.50618C16.0832 4.55808 16.0898 4.61207 16.1128 4.65984C16.1357 4.70761 16.1738 4.7465 16.221 4.77054L18.1194 5.48129C18.1626 5.49071 18.202 5.51274 18.2327 5.54458C18.2634 5.57642 18.2839 5.61664 18.2917 5.66016C18.2995 5.70368 18.2943 5.74854 18.2766 5.78905C18.2589 5.82957 18.2296 5.86393 18.1923 5.88779L13.4236 10.6567L13.8655 11.0986C14.3899 11.623 14.7471 12.2912 14.8919 13.0186C15.0366 13.746 14.9624 14.5 14.6785 15.1852C14.3947 15.8704 13.9141 16.456 13.2974 16.8681C12.6808 17.2801 11.9558 17.5 11.2141 17.5H10.5891V22.474H11.8391V18.7115C12.7146 18.601 13.5453 18.2608 14.2468 17.7254C14.9483 17.1901 15.4957 16.4786 15.8334 15.6634C16.1711 14.8481 16.2871 13.958 16.1695 13.0834C16.052 12.2088 15.7052 11.3808 15.1643 10.6836L19.0762 6.77166C19.1001 6.73444 19.1345 6.70512 19.175 6.68743C19.2155 6.66974 19.2604 6.66446 19.3039 6.67227C19.3474 6.68008 19.3876 6.70062 19.4195 6.7313C19.4513 6.76197 19.4733 6.8014 19.4827 6.8446L20.1934 8.74303C20.2174 8.79026 20.2563 8.82828 20.3041 8.85123C20.3519 8.87417 20.4059 8.88077 20.4578 8.87001C20.5097 8.85925 20.5566 8.83172 20.5913 8.79167C20.626 8.75161 20.6466 8.70125 20.6499 8.64835L21.2859 3.6781L16.3156 4.31408Z" fill="#2A5DFF"/>
</svg>
