<svg width="25" height="25" viewBox="0 0 25 25" fill="none" xmlns="http://www.w3.org/2000/svg">
<path d="M4.37236 22.4943C4.29064 22.4943 4.20973 22.4782 4.13423 22.4469C4.05874 22.4156 3.99014 22.3698 3.93236 22.312C3.87458 22.2542 3.82875 22.1857 3.79748 22.1102C3.76621 22.0347 3.75012 21.9537 3.75012 21.872L3.75071 6.28092C3.73961 5.60551 3.989 4.95176 4.44712 4.45535C4.68093 4.21988 4.96081 4.0352 5.26926 3.91284C5.5777 3.79049 5.90808 3.73311 6.23972 3.74429L6.56992 3.74179C7.34426 3.6922 8.12042 3.80457 8.8489 4.07172C9.57738 4.33887 10.2422 4.75493 10.8009 5.29337L17.541 11.0547L17.5457 11.0492C17.5996 11.1192 17.6731 11.1718 17.7569 11.2001C17.8407 11.2284 17.931 11.2312 18.0164 11.2081C18.1017 11.1851 18.1784 11.1373 18.2365 11.0707C18.2947 11.0041 18.3319 10.9218 18.3432 10.8341L19.4338 6.92943C19.4736 6.83118 19.5446 6.74874 19.6359 6.69481C19.7272 6.64088 19.8336 6.61846 19.9389 6.63099C20.0442 6.64353 20.1424 6.69032 20.2184 6.76417C20.2945 6.83802 20.3441 6.93483 20.3597 7.03968L22.4793 16.8347L12.4662 16.4196C12.3603 16.4221 12.2564 16.3897 12.1707 16.3274C12.0849 16.2651 12.022 16.1763 11.9917 16.0748C11.9613 15.9732 11.9652 15.8645 12.0028 15.7653C12.0403 15.6662 12.1094 15.5822 12.1994 15.5262L15.8604 13.7845C15.941 13.7603 16.0129 13.7133 16.0674 13.6492C16.1219 13.585 16.1567 13.5065 16.1676 13.4231C16.1785 13.3396 16.165 13.2548 16.1288 13.1788C16.0926 13.1028 16.0352 13.0389 15.9636 12.9948L9.21946 7.22876C8.88577 6.87697 8.47671 6.60536 8.02299 6.43433C7.56928 6.2633 7.08271 6.19729 6.59983 6.24126L6.2501 6.2492V21.8721C6.2501 22.0371 6.18454 22.1954 6.06785 22.3121C5.95116 22.4288 5.79289 22.4943 5.62786 22.4943L4.37236 22.4943Z" fill="#2A5DFF" stroke="#2A5DFF" stroke-width="0.5"/>
</svg>
