<svg width="25" height="25" viewBox="0 0 25 25" fill="none" xmlns="http://www.w3.org/2000/svg">
<path d="M18.1293 11.208L14.4395 9.52828C14.365 9.48051 14.2781 9.45589 14.1897 9.45754C14.1013 9.45919 14.0154 9.48702 13.9428 9.53752C13.8702 9.58802 13.8142 9.65892 13.782 9.74125C13.7497 9.82357 13.7425 9.91362 13.7615 10V21.8706C13.7615 21.9533 13.7452 22.0351 13.7136 22.1115C13.6819 22.1879 13.6356 22.2572 13.5771 22.3157C13.5187 22.3741 13.4493 22.4205 13.3729 22.4521C13.2966 22.4837 13.2147 22.5 13.1321 22.5H11.8909C11.8082 22.5 11.7264 22.4837 11.65 22.4521C11.5736 22.4205 11.5043 22.3741 11.4458 22.3157C11.3874 22.2572 11.341 22.1879 11.3094 22.1115C11.2778 22.0351 11.2615 21.9533 11.2615 21.8706V10C11.2804 9.91362 11.2733 9.82357 11.241 9.74125C11.2087 9.65893 11.1527 9.58803 11.0801 9.53753C11.0076 9.48703 10.9216 9.45919 10.8332 9.45754C10.7448 9.4559 10.6579 9.48051 10.5835 9.52828L6.89361 11.208C6.79281 11.2408 6.68401 11.2395 6.58398 11.2044C6.48395 11.1693 6.39824 11.1023 6.34006 11.0137C6.28187 10.9251 6.25444 10.8198 6.26199 10.7141C6.26954 10.6083 6.31165 10.508 6.38184 10.4285L12.5115 2.5L18.6411 10.4285C18.7112 10.508 18.7533 10.6083 18.7609 10.7141C18.7684 10.8198 18.741 10.9251 18.6828 11.0137C18.6246 11.1023 18.5389 11.1693 18.4389 11.2044C18.3389 11.2395 18.2301 11.2408 18.1293 11.208Z" fill="#2A5DFF" stroke="#2A5DFF" stroke-width="0.5"/>
</svg>
