<svg width="25" height="25" viewBox="0 0 25 25" fill="none" xmlns="http://www.w3.org/2000/svg">
<path d="M9.19243 10.3107L12.2643 7.71835C12.3419 7.67605 12.4053 7.61166 12.4463 7.53334C12.4874 7.45501 12.5043 7.36627 12.4949 7.27834C12.4855 7.19041 12.4502 7.10724 12.3936 7.03936C12.3369 6.97147 12.2614 6.92192 12.1765 6.89698L8.49037 5.20927C8.39955 5.15461 8.32923 5.07159 8.29024 4.97303C8.25124 4.87446 8.24574 4.7658 8.27458 4.6638C8.30342 4.56179 8.365 4.4721 8.44984 4.40854C8.53467 4.34498 8.63805 4.31108 8.74405 4.31206L18.75 3.75L16.7744 13.575C16.7604 13.6801 16.7122 13.7776 16.6372 13.8526C16.5622 13.9275 16.4647 13.9758 16.3596 13.9899C16.2546 14.004 16.1478 13.9831 16.0557 13.9305C15.9637 13.8779 15.8915 13.7966 15.8502 13.6989L14.7025 9.81064C14.6898 9.72311 14.6515 9.64131 14.5923 9.57558C14.5332 9.50985 14.4559 9.46315 14.3701 9.44138C14.2844 9.41961 14.1942 9.42376 14.1108 9.4533C14.0275 9.48283 13.9548 9.53643 13.9019 9.60731L10.8416 12.1893C10.133 12.8449 9.57872 13.6496 9.21881 14.5454C8.8589 15.4412 8.70231 16.4057 8.76035 17.3693L8.76622 21.8789C8.76634 21.9604 8.75039 22.0412 8.71927 22.1165C8.68815 22.1919 8.64248 22.2604 8.58488 22.3181C8.52727 22.3757 8.45886 22.4215 8.38355 22.4527C8.30824 22.4839 8.22751 22.5 8.14598 22.5H6.88782C6.72333 22.5 6.56558 22.4346 6.44927 22.3183C6.33297 22.202 6.26763 22.0442 6.26763 21.8797V17.5538C6.18432 16.2048 6.40373 14.8542 6.9098 13.601C7.41586 12.3478 8.19577 11.2236 9.19243 10.3107Z" fill="#2A5DFF" stroke="#2A5DFF" stroke-width="0.5"/>
</svg>
