<svg width="25" height="25" viewBox="0 0 25 25" fill="none" xmlns="http://www.w3.org/2000/svg">
<path d="M18.6411 15.8215L12.5115 23.75L6.38184 15.8215C6.31165 15.742 6.26954 15.6417 6.26199 15.5359C6.25444 15.4302 6.28187 15.3249 6.34006 15.2363C6.39824 15.1477 6.48395 15.0807 6.58398 15.0456C6.68401 15.0105 6.79281 15.0092 6.89361 15.042L10.5834 16.7217C10.6578 16.7695 10.7447 16.7941 10.8332 16.7925C10.9216 16.7908 11.0075 16.763 11.0801 16.7125C11.1527 16.662 11.2086 16.5911 11.2409 16.5088C11.2732 16.4264 11.2804 16.3364 11.2615 16.25V8.76038C11.2804 8.674 11.2732 8.58395 11.2409 8.50163C11.2086 8.41931 11.1527 8.34842 11.0801 8.29792C11.0075 8.24742 10.9216 8.21959 10.8332 8.21794C10.7448 8.21629 10.6578 8.2409 10.5834 8.28865L6.89361 9.96834C6.79281 10.0012 6.68401 9.99992 6.58398 9.96482C6.48395 9.92972 6.39824 9.86269 6.34006 9.77408C6.28187 9.68546 6.25444 9.58017 6.26199 9.47443C6.26954 9.36869 6.31165 9.26836 6.38184 9.18891L12.5115 1.26038L18.6411 9.18891C18.7112 9.26837 18.7533 9.36869 18.7609 9.47443C18.7684 9.58016 18.741 9.68545 18.6828 9.77406C18.6246 9.86267 18.5389 9.92969 18.4389 9.9648C18.3389 9.9999 18.2301 10.0011 18.1293 9.96834L14.4395 8.28865C14.365 8.2409 14.2781 8.21629 14.1897 8.21794C14.1013 8.21959 14.0154 8.24742 13.9428 8.29792C13.8702 8.34842 13.8142 8.41931 13.782 8.50163C13.7497 8.58395 13.7425 8.674 13.7614 8.76038V16.25C13.7425 16.3364 13.7497 16.4264 13.782 16.5087C13.8142 16.5911 13.8702 16.662 13.9428 16.7125C14.0154 16.763 14.1013 16.7908 14.1897 16.7924C14.2781 16.7941 14.365 16.7695 14.4395 16.7217L18.1293 15.042C18.2301 15.0092 18.3389 15.0105 18.4389 15.0456C18.5389 15.0807 18.6246 15.1477 18.6828 15.2363C18.741 15.3249 18.7684 15.4302 18.7609 15.5359C18.7533 15.6417 18.7112 15.742 18.6411 15.8215Z" fill="#2A5DFF" stroke="#2A5DFF" stroke-width="0.5"/>
</svg>
