<svg width="25" height="25" viewBox="0 0 25 25" fill="none" xmlns="http://www.w3.org/2000/svg">
<path d="M21.25 10V21.8706C21.25 21.9533 21.2337 22.0351 21.2021 22.1115C21.1705 22.1879 21.1241 22.2572 21.0657 22.3157C21.0072 22.3741 20.9379 22.4205 20.8615 22.4521C20.7851 22.4837 20.7033 22.5 20.6206 22.5H19.3794C19.2967 22.5 19.2149 22.4837 19.1385 22.4521C19.0622 22.4205 18.9928 22.3741 18.9343 22.3157C18.8759 22.2573 18.8295 22.1879 18.7979 22.1115C18.7663 22.0351 18.75 21.9533 18.75 21.8706V10C18.75 8.83968 18.2891 7.72688 17.4686 6.90641C16.6481 6.08594 15.5353 5.625 14.375 5.625C13.2147 5.625 12.1019 6.08594 11.2814 6.90641C10.4609 7.72688 10 8.83968 10 10V15H9.98864C9.96973 15.0864 9.97688 15.1764 10.0092 15.2587C10.0414 15.3411 10.0974 15.412 10.17 15.4625C10.2426 15.513 10.3285 15.5408 10.4169 15.5424C10.5053 15.5441 10.5922 15.5195 10.6667 15.4717L14.3565 13.792C14.4573 13.7592 14.5661 13.7605 14.6661 13.7956C14.7661 13.8307 14.8518 13.8977 14.91 13.9863C14.9682 14.0749 14.9956 14.1802 14.9881 14.286C14.9805 14.3917 14.9384 14.492 14.8682 14.5715L8.73864 22.5L2.60895 14.5715C2.53878 14.492 2.49667 14.3917 2.48913 14.286C2.48159 14.1802 2.50902 14.0749 2.5672 13.9863C2.62538 13.8977 2.71109 13.8307 2.81111 13.7956C2.91113 13.7605 3.01992 13.7592 3.12072 13.792L6.81052 15.4717C6.88495 15.5195 6.97186 15.5441 7.06028 15.5425C7.1487 15.5408 7.23464 15.513 7.30723 15.4625C7.37982 15.412 7.43581 15.3411 7.4681 15.2588C7.50039 15.1764 7.50754 15.0864 7.48864 15H7.5V10C7.5 8.17664 8.22433 6.42795 9.51364 5.13864C10.803 3.84933 12.5516 3.125 14.375 3.125C16.1984 3.125 17.947 3.84933 19.2364 5.13864C20.5257 6.42795 21.25 8.17664 21.25 10Z" fill="#2A5DFF" stroke="#2A5DFF" stroke-width="0.5"/>
</svg>
