<svg width="20" height="27" viewBox="0 0 20 27" fill="none" xmlns="http://www.w3.org/2000/svg">
<path d="M5.37552 1.43262C8.28866 -0.26004 11.8694 -0.230455 14.7552 1.51012C17.6126 3.28615 19.3493 6.45583 19.3332 9.86552C19.2666 13.2528 17.4044 16.4369 15.0766 18.8984C13.7331 20.3255 12.2302 21.5874 10.5985 22.6583C10.4304 22.7555 10.2464 22.8205 10.0553 22.8503C9.87149 22.8424 9.69244 22.7881 9.53436 22.6922C7.04326 21.083 4.8578 19.029 3.08313 16.6289C1.59814 14.6254 0.754466 12.2049 0.666687 9.69615L0.673335 9.33118C0.794583 6.05645 2.56641 3.06483 5.37552 1.43262ZM11.2097 6.89663C10.0254 6.39324 8.66008 6.66673 7.75111 7.58939C6.84214 8.51205 6.56888 9.90189 7.0589 11.11C7.54893 12.318 8.7056 13.1061 9.98882 13.1061C10.8295 13.1121 11.6376 12.7754 12.2331 12.1709C12.8286 11.5664 13.162 10.7444 13.159 9.8881C13.1635 8.58097 12.394 7.40001 11.2097 6.89663Z" fill="#2C83F6"/>
<path opacity="0.4" d="M10 26.8503C13.6819 26.8503 16.6667 26.2533 16.6667 25.5169C16.6667 24.7805 13.6819 24.1836 10 24.1836C6.31814 24.1836 3.33337 24.7805 3.33337 25.5169C3.33337 26.2533 6.31814 26.8503 10 26.8503Z" fill="#2C83F6"/>
</svg>
